<?xml version="1.0" encoding="utf-8"?>
<!-- Generator: Adobe Illustrator 18.1.0, SVG Export Plug-In . SVG Version: 6.00 Build 0)  -->
<svg version="1.1" id="Layer_1" xmlns="http://www.w3.org/2000/svg" xmlns:xlink="http://www.w3.org/1999/xlink" x="0px" y="0px"
	 viewBox="12.6 149.1 589.5 495" enable-background="new 12.6 149.1 589.5 495" xml:space="preserve">
<g>
	<path fill="none" stroke="#FFFFFF" stroke-width="2" stroke-miterlimit="10" d="M544.3,366.6c-14.9-118.7-116-210.4-238.6-210.4
		C173,156.2,65.6,263.6,65.6,396.6c0,14.3,1.2,28.2,3.6,41.9L544.3,366.6z"/>
	<path fill="none" stroke="#FFFFFF" stroke-width="2" stroke-miterlimit="10" d="M131.8,562.1c43.7,46.1,105.6,74.7,174.2,74.7
		c94.7,0,176.7-54.6,215.8-134.2L131.8,562.1z"/>
</g>
<g>
	<path fill="none" stroke="#FFFFFF" stroke-width="2" stroke-miterlimit="10" d="M595.9,476.1c0,8.5-6.7,16.4-15.2,17.6L34,577.2
		c-8.2,1.2-15.2-4.6-15.2-13.1V461.6c0-8.5,6.7-16.4,15.2-17.6l546.7-82.6c8.2-1.2,15.2,4.6,15.2,13.1V476.1z"/>
</g>
<path fill="#FFFFFF" d="M220.1,444c3.9-0.6,8.2-1.2,12.4-1.8c3.9,2.7,8.2,5.8,12.4,9.1c0.6,4.6,1.5,9.4,2.1,14.3
	c5.5-0.9,10.9-1.5,16.7-2.4c-1.2-8.2-2.4-16.4-3.6-24.9c4.2-0.6,8.2-1.2,12.4-1.8c3.9,2.7,7.9,5.8,12.1,8.8
	c3,20.9,6.4,41.9,9.4,62.8c-3.9,0.6-7.9,1.2-12.1,1.8c-3.9-2.7-8.2-5.8-12.4-9.1c-0.6-4.6-1.5-9.4-2.1-14.3
	c-5.5,0.9-10.9,1.8-16.7,2.4c1.2,8.2,2.4,16.4,3.6,24.9c-4.3,0.6-7.9,1.2-12.4,1.8c-3-2.1-6.7-4.9-10-7.3c-0.6-0.6-1.5-0.9-2.4-1.2
	C226.8,486.2,223.4,464.9,220.1,444z M270.8,438.8c-2.4,0.3-4.9,0.6-7.9,1.2c1.8,11.8,3.6,23.4,5.5,35.2
	c-10.6,1.5-21.3,3.3-31.9,4.9c-1.2-8.8-2.7-17.3-3.9-25.8c-3-2.1-5.8-4.3-8.8-6.4c3,19.4,5.8,38.2,8.8,57.4c2.7,1.8,5.5,3.9,8.8,6.4
	c-1.2-8.5-2.4-15.8-3.6-23.4c10.6-1.5,21.3-3.3,31.9-4.9c0.9,5.2,1.5,10,2.1,14.9c2.7-0.3,5.2-0.9,7.9-1.2
	C276.6,477.7,273.5,458.2,270.8,438.8z M273.5,440.3c3,19.4,5.8,38.6,8.8,57.4c3,2.1,5.8,4.2,9.1,6.4c-3-19.4-5.8-38.2-8.8-57.4
	C279.6,444.6,276.9,442.4,273.5,440.3z M240.4,490.4c1.2,7.6,2.4,14.9,3.3,22.5c2.7-0.3,5.2-0.9,7.6-1.2c-1.2-7.6-2.1-14.9-3.3-22.5
	C245.6,489.5,243.2,490.1,240.4,490.4z M264.1,465.8c-5.8,0.9-11.5,1.8-17.3,2.7c-2.1,2.7-3.9,5.5-6.4,8.5
	c8.5-1.2,16.4-2.4,24.6-3.6C265,470.7,264.4,468.6,264.1,465.8z M238.3,475.5c2.4-3.3,4.6-6.1,6.7-8.8c-0.6-4.6-1.2-8.8-2.1-13.1
	c-2.7,0.3-5.2,0.9-7.9,1.2C236.2,461.9,237.1,468.6,238.3,475.5z M224.9,445.8c3.3,2.4,6.1,4.6,8.5,6.4c2.1-0.3,4.2-0.6,6.7-0.9
	c-3.3-2.4-6.1-4.2-8.8-6.4C229.5,444.9,227.7,445.2,224.9,445.8z M289.3,505.9c-3.3-2.4-6.1-4.6-8.8-6.4c-2.1,0.3-4.2,0.6-6.7,0.9
	c3.3,2.4,6.1,4.6,8.8,6.4C285.1,506.8,286.9,506.5,289.3,505.9z"/>
<path fill="#FFFFFF" d="M502.7,476.4c-5.8,0.9-11.2,1.8-16.7,2.4c-4.9-3.6-9.7-7.3-14.6-10.6c-2.4,5.8-6.7,9.4-9.7,14.3
	c-4.2,0.6-8.2,1.2-12.1,1.8c-3-20.9-6.4-41.6-9.4-62.8c3-3.9,6.1-8.2,9.1-12.1c3.9-0.6,7.9-1.2,12.1-1.8c0.9,6.1,1.8,11.8,2.7,18.5
	c6.1-7.6,10.9-14.6,16.1-21.6c5.8-0.9,11.5-1.8,17.6-2.7c0.9,5.5,1.5,10.9,2.4,16.7c-6.4,8.5-12.8,17-19.1,26.1
	c9.7,7.3,19.4,14.3,29.4,21.6C507.6,469.8,505.1,472.8,502.7,476.4z M497.2,474.3c0-0.3,0-0.6,0.3-0.6
	c-14.6-10.6-29.4-21.6-44.3-32.2c-0.9-6.4-1.8-12.8-3-19.1c-2.7,0.3-5.2,0.9-7.6,1.2c3,19.4,5.8,38.6,8.8,58
	c2.7-0.3,5.2-0.9,7.6-1.2c-1.2-8.8-2.7-17.3-3.9-27c10.9,7.9,21.2,15.5,31.3,22.8C490.3,475.5,493.9,474.9,497.2,474.3z
	 M481.5,406.6c-8.2,11.2-16.7,22.5-24.9,33.7c15.2,10.9,30.1,21.9,44.9,33.1c1.8-2.4,3.3-4.6,4.9-7c-13.1-9.4-25.5-18.5-38.3-27.9
	c8.2-11.2,16.4-22.2,24.9-33.7C489.1,405.7,485.4,406.3,481.5,406.6z M472.1,438.2c2.4,1.8,4.6,3.3,6.7,4.9
	c6.4-8.8,12.8-17.3,18.8-25.5c-0.6-3.9-1.2-7.6-1.8-11.5C487.8,416.9,479.9,427.6,472.1,438.2z M462,428.8c-0.9-5.5-1.5-10.9-2.4-17
	c-2.4,3.3-4.6,6.1-6.4,8.8c0.9,5.8,1.8,11.2,2.4,17C457.8,434.6,459.9,431.8,462,428.8z M467.5,465.2c-3-2.1-5.8-4.2-8.8-6.4
	c0.9,6.4,1.8,12.8,3,19.1c2.4-3,4.6-6.1,6.7-8.8C467.8,467.9,467.8,466.7,467.5,465.2z M444.1,420.3c2.7-0.3,4.6-0.6,6.7-0.9
	c2.1-2.7,3.9-5.5,6.4-8.5c-2.4,0.3-4.6,0.6-6.7,0.9C448.7,414.2,446.6,416.9,444.1,420.3z"/>
<path fill="#FFFFFF" d="M401.6,473.4c9.1-0.9,13.4-6.1,15.2-17.9c4.2-0.6,8.5-1.2,13.1-1.8c3,2.4,6.4,4.9,10,7.3
	c-0.3,6.1-2.4,11.2-5.5,15.8c-4.6,7-10.9,11.5-19.1,12.8c-5.2,0.9-10.3,1.8-15.5,1.8c-12.8-0.3-22.2-7.3-27.3-20
	c-5.5-13.1-5.8-26.4,0.9-38.9c4.2-8.2,10.9-13.1,19.7-14.9c4.2-0.9,8.8-1.5,13.1-1.8c11.8-1.2,24.6,7.3,29.4,20
	c-2.4,3.3-4.9,6.7-7.6,10.3c-3.9,0.6-7.9,1.2-12.1,1.8c-1.8-5.5-4.2-10.6-9.1-14.3c-6.7,0.9-10.9,5.2-13.4,11.8
	C390.4,454,393.1,467.6,401.6,473.4z M400.7,488.6c-5.5-2.4-10.3-6.4-14-11.5c-4.9-6.7-7-14.6-7.3-22.8c-0.3-7,1.2-13.7,5.5-19.1
	c3.9-4.9,8.5-7.9,14.9-7.3c6.7,0.6,11.5,5.2,15.2,11.2c0.9,1.5,1.5,3,2.4,4.9c1.8-2.4,3.6-4.9,5.5-7.3c-5.5-9.7-12.8-15.8-22.8-16.7
	c-10.3-0.9-18.5,3.9-24,13.4c-3.6,6.4-5.2,13.7-4.6,21.2c0.6,10.9,3.9,20.3,12.1,27.3C388.3,486.8,394,488.9,400.7,488.6z
	 M403.1,431.8c-3.6-1.8-7-1.2-10.3,0.3c-5.5,2.4-8.5,7.3-10,13.4c-1.8,7.9-0.6,15.8,2.1,23.1c4.2,10.3,11.2,17,21.6,18.5
	c10.3,1.5,19.4-2.1,25.8-11.2c2.7-3.9,4.6-8.5,5.2-13.7c-2.4-1.8-4.6-3.3-7-5.2c-0.9,3-1.2,6.1-2.1,8.8c-2.7,7.6-7.9,12.1-15.5,13.1
	c-7.6,0.9-13.7-2.7-17.9-9.4c-1.5-2.4-2.7-5.2-3.6-8.2C387.1,448.5,391.9,437,403.1,431.8z M419.2,457.9c-0.6,3.9-1.8,7.6-4.2,10.9
	c-2.4,3-5.5,5.2-9.1,6.7c10.6,4.2,21.6-5.2,21.2-18.5C424.7,457.3,422,457.6,419.2,457.9z M406.8,418.8c8.2,3.3,14,9.1,17.9,16.4
	c2.7-0.3,5.2-0.9,7.6-1.2C428,424.5,416.2,417.2,406.8,418.8z M426.8,443.7c1.5-2.1,3-4.3,4.9-6.7c-2.7,0.3-4.6,0.6-6.7,0.9
	c-1.2,2.1-3.3,3.9-4.2,6.4C422.6,444.3,424.7,444,426.8,443.7z"/>
<path fill="#FFFFFF" d="M318.4,429.1c4.6-0.6,8.8-1.2,13.1-2.1c14,19.1,27.9,37.9,42.2,57.1c-1.8,4.2-3.6,8.2-5.5,12.4
	c-4.6,0.6-8.8,1.2-13.1,2.1c-2.1-3-4.6-6.1-7-9.1c-9.1,1.5-18.2,2.7-27.6,4.2c-1.2,3.3-2.4,7-3.9,10.9c-4.2,0.6-8.5,1.2-13.1,2.1
	c-2.7-3.3-5.8-6.7-8.8-10C302.7,474,310.6,451.6,318.4,429.1z M370.7,484.6c-13.1-17.6-26.1-35.2-39.5-53.4
	c-4.6,13.4-9.1,26.1-13.4,38.9c3.3-0.6,5.8-0.9,8.5-1.2c2.7-7,4.6-13.7,7.6-20.9c11.2,15.2,22.2,29.8,33.1,44.9
	C368.2,490.1,369.4,487.4,370.7,484.6z M313.9,473.7c5.2-14.9,10-29.1,15.2-44c-1.8,0.3-3.3,0.6-4.6,0.6c-1.5,0.3-2.7,0.3-3.9,0.6
	c-6.4,16.1-21.2,60.1-21.2,62.8c2.7-0.3,5.5-0.9,7.9-1.2c1.2-3.6,2.7-7.3,3.9-11.2c9.4-1.5,18.8-2.7,28.2-4.3
	c-1.8-2.4-3.3-4.6-5.2-6.7C327.9,471.6,321.2,472.8,313.9,473.7z M364.9,494.4c-10.3-14-20-27.3-30.4-41c-1.2,3.3-2.1,6.1-3,8.8
	c4.2,5.8,8.2,11.2,12.8,17.3c-10,1.5-19.4,3-29.8,4.6c2.1,2.7,3.9,4.6,6.1,7c9.7-1.5,19.4-3,28.8-4.2c2.4,3.3,4.6,6.1,6.7,9.1
	C359.1,495.3,361.9,495,364.9,494.4z M304.5,503.5c3-0.6,5.8-0.9,9.1-1.5c-2.1-2.4-3.9-4.6-5.5-6.4c-3,0.6-5.8,0.9-9.1,1.5
	C301.1,499.5,303,501.6,304.5,503.5z M315.4,500.4c0.9-2.7,1.8-5.5,2.7-8.2c-1.8-2.1-3.6-4.2-5.8-6.7c-0.9,3-1.8,5.5-2.7,7.9
	C311.8,495.9,313.3,498,315.4,500.4z"/>
<path fill="#FFFFFF" d="M507.3,458.8c2.7-3.6,5.5-7.3,7.9-10.6c3.9-0.6,7.9-1.2,12.1-1.8c1.5,5.5,4.2,9.4,9.7,10.6
	c0.9-3.6,0-6.4-2.4-8.5c-1.5-1.2-3-2.1-4.6-3c-4.2-2.1-8.2-4.2-12.4-6.7c-4.2-2.4-7.6-5.8-9.7-10.3c-5.2-11.2-0.9-23.4,9.1-28.2
	c1.5-0.6,3-1.2,4.9-1.5c4.6-0.9,9.4-1.8,14.3-2.1c7.3-0.6,14,2.1,19.1,8.2c1.2,1.5,2.1,3.3,3.3,4.9c-2.7,3.6-5.5,7.3-7.9,10.9
	c-3.9,0.6-7.9,1.2-12.1,1.8c-1.5-5.2-3.9-9.4-9.4-10.3c-1.2,3-0.9,5.5,1.5,7.6c1.2,1.2,3,2.4,4.6,3.3c4.2,2.4,8.5,4.6,12.8,6.7
	c5.2,3,9.1,7,11.2,13.4c3.6,11.2-0.9,22.2-10.6,26.1c-1.8,0.9-3.9,1.5-5.8,1.8c-5.5,0.6-10.9,1.8-16.1,1.5
	C518.2,471.9,511.2,466.4,507.3,458.8z M520.9,457.3c1.5,4.9,7.3,8.8,11.5,10c4.9,1.2,9.7,0.9,14-0.9c11.5-4.6,13.7-16.4,9.1-26.1
	c-2.1-4.6-5.5-7.3-9.7-9.4c-4.2-2.4-8.8-4.6-13.1-7c-4.9-2.4-7.3-6.4-7-12.1c0-0.3-0.3-0.3-0.3-0.6c-6.1,0.9-8.8,5.8-6.1,11.5
	c0.6,1.5,1.8,2.7,3,3.6c1.8,1.5,4.2,2.7,6.4,3.9c4.2,2.1,8.2,4.2,12.4,6.4c2.7,1.5,5.2,3.3,6.7,6.4c3,5.2,2.1,11.2-2.4,14.3
	c-4.6,3.3-13.1,3.3-17.6-3.9c-0.6-0.9-1.2-2.1-2.1-3.3C524.3,452.8,522.4,455.2,520.9,457.3z M544.9,410.6
	c-2.7-5.2-6.4-8.2-10.9-9.4c-5.5-1.8-10.9-1.5-16.4,1.2c-8.8,4.6-12.1,13.7-8.5,23.7c1.8,4.9,5.2,8.2,9.4,10.6
	c4.6,2.4,9.1,4.9,13.7,7.3c5.2,2.7,8.2,6.4,7.3,13.1c3.3-0.3,6.1-1.5,7.3-4.9c1.2-3.3,0-6.7-2.4-9.1c-1.2-1.2-2.4-2.1-3.9-3
	c-1.5-0.9-3-1.8-4.6-2.4c-3.6-1.8-7.6-3.9-11.2-5.8c-2.7-1.5-4.9-3.3-6.7-5.8c-3.6-5.8-2.4-12.8,3-15.5c6.1-3.3,13.1-0.9,17,5.2
	c0.6,0.9,0.9,1.5,1.5,2.7C541.3,415.1,543.1,413,544.9,410.6z M537,399c4.2,2.7,7.6,6.1,10,10.3c2.7-0.3,5.2-0.9,7.6-1.2
	C550.4,401.2,544.3,398.7,537,399z M528.8,469.2c-4.6-2.4-7.9-6.1-10.3-10.3c-2.7,0.3-5.2,0.9-7.9,1.2
	C515.8,467,521.5,469.8,528.8,469.2z M549.2,417.6c1.2-2.4,3.3-3.9,3.9-6.4c-2.1,0.3-3.9,0.6-6.1,0.9c-1.5,2.1-3,3.9-4.9,6.4
	C544.9,418.2,547,417.9,549.2,417.6z M523.4,449.7c-2.7,0.3-4.6,0.6-6.7,0.9c-1.5,1.8-2.7,3.9-4.6,6.4c2.7-0.3,4.6-0.6,6.7-0.9
	C520,454.3,521.2,452.2,523.4,449.7z"/>
<path fill="none" d="M270.8,438.8c3,19.4,5.8,38.9,8.8,58.3c-2.4,0.3-4.9,0.6-7.9,1.2c-0.9-5.2-1.5-10-2.1-14.9
	c-10.6,1.5-21.2,3.3-31.9,4.9c1.2,7.6,2.4,15.2,3.6,23.4c-3.3-2.4-6.1-4.6-8.8-6.4c-3-19.1-5.8-37.9-8.8-57.4c3,2.1,5.8,4.2,8.8,6.4
	c1.2,8.5,2.7,17,3.9,25.8c10.6-1.5,21.3-3.3,31.9-4.9c-1.8-11.8-3.6-23.4-5.5-35.2C265.6,439.7,268.1,439.4,270.8,438.8z"/>
<path fill="none" d="M273.5,440.3c3.3,2.4,6.1,4.6,9.1,6.4c3,19.1,5.8,37.9,8.8,57.4c-3-2.4-6.1-4.2-9.1-6.4
	C279.6,478.6,276.6,459.8,273.5,440.3z"/>
<path fill="none" d="M240.4,490.4c2.4-0.3,4.9-0.6,7.6-1.2c1.2,7.6,2.1,14.9,3.3,22.5c-2.4,0.3-4.9,0.6-7.6,1.2
	C242.9,505.3,241.6,498,240.4,490.4z"/>
<path fill="none" d="M264.1,465.8c0.3,2.7,0.6,4.9,1.2,7.3c-8.2,1.2-16.4,2.4-24.6,3.6c2.1-3,4.2-5.8,6.4-8.5
	C252.6,467.6,258.3,466.7,264.1,465.8z"/>
<path fill="none" d="M238.3,475.5c-1.2-7.3-2.1-14-3-20.9c2.4-0.3,5.2-0.9,7.9-1.2c0.6,4.2,1.2,8.5,2.1,13.1
	C242.9,469.5,240.7,472.2,238.3,475.5z"/>
<path fill="none" d="M224.9,445.8c2.7-0.3,4.6-0.6,6.7-0.9c2.7,1.8,5.5,3.9,8.8,6.4c-2.4,0.3-4.6,0.6-6.7,0.9
	C231,450,228.3,448.2,224.9,445.8z"/>
<path fill="none" d="M289.3,505.9c-2.4,0.3-4.6,0.6-6.7,0.9c-2.7-1.8-5.5-3.9-8.8-6.4c2.4-0.3,4.2-0.6,6.7-0.9
	C283.2,501.6,286,503.5,289.3,505.9z"/>
<path fill="none" d="M497.2,474.3c-3.3,0.6-7,0.9-10.6,1.5c-10-7.3-20.3-14.9-31.3-22.8c1.5,9.4,2.7,18.2,3.9,27
	c-2.7,0.3-5.2,0.9-7.6,1.2c-3-19.1-5.8-38.6-8.8-58c2.4-0.3,4.9-0.6,7.6-1.2c0.9,6.4,1.8,12.7,3,19.1c14.9,10.9,29.4,21.6,44.3,32.2
	C497.2,474,497.2,474,497.2,474.3z"/>
<path fill="none" d="M481.5,406.6c3.9-0.6,7.6-1.2,11.8-1.8c-8.5,11.5-16.7,22.5-24.9,33.7c12.8,9.4,25.2,18.5,38.2,27.9
	c-1.8,2.4-3.3,4.6-4.9,7c-15.2-10.9-29.8-21.9-44.9-33.1C465.1,429.1,473.3,418.2,481.5,406.6z"/>
<path fill="none" d="M472.1,438.2c7.9-10.6,15.8-21.2,23.7-32.2c0.6,4.2,1.2,7.6,1.8,11.5c-6.1,8.2-12.4,16.7-18.8,25.5
	C476.3,441.5,474.2,440,472.1,438.2z"/>
<path fill="none" d="M462,428.8c-2.1,2.7-4.2,5.8-6.4,8.8c-0.9-5.8-1.8-11.2-2.4-17c1.8-2.7,4.2-5.5,6.4-8.8
	C460.2,418.2,461.1,423.6,462,428.8z"/>
<path fill="none" d="M467.5,465.2c0.3,1.2,0.3,2.4,0.6,3.9c-2.1,2.7-4.2,5.5-6.7,8.8c-0.9-6.4-1.8-12.7-3-19.1
	C461.7,461,464.8,463.1,467.5,465.2z"/>
<path fill="none" d="M444.1,420.3c2.4-3.3,4.6-6.1,6.4-8.5c2.1-0.3,3.9-0.6,6.7-0.9c-2.4,3.3-4.2,6.1-6.4,8.5
	C448.7,419.4,446.9,419.7,444.1,420.3z"/>
<path fill="none" d="M400.7,488.6c-6.7,0.3-12.4-1.8-17.6-6.4c-7.9-7-11.2-16.7-12.1-27.3c-0.3-7.6,0.9-14.9,4.6-21.2
	c5.5-9.4,13.7-14.3,24-13.4c10,0.9,17.3,7,22.8,16.7c-1.8,2.4-3.6,4.9-5.5,7.3c-0.9-1.8-1.5-3.3-2.4-4.9
	c-3.6-6.1-8.5-10.3-15.2-11.2c-6.1-0.6-10.9,2.1-14.9,7.3c-4.2,5.5-5.8,12.1-5.5,19.1c0.3,8.2,2.7,16.1,7.3,22.8
	C390.4,482.2,394.9,486.2,400.7,488.6z"/>
<path fill="none" d="M403.1,431.8c-11.2,5.2-16.1,17-12.1,29.8c0.9,2.7,1.8,5.8,3.6,8.2c4.2,7,10.3,10.3,17.9,9.4
	c7.6-0.9,12.8-5.5,15.5-13.1c0.9-2.7,1.5-5.8,2.1-8.8c2.4,1.8,4.6,3.3,7,5.2c-0.6,5.2-2.4,9.7-5.2,13.7
	c-6.4,9.1-15.2,12.8-25.8,11.2c-10.3-1.5-17.3-8.2-21.6-18.5c-3-7.3-4.2-15.2-2.1-23.1c1.5-6.1,4.6-10.9,10-13.4
	C395.9,430.3,399.5,430,403.1,431.8z"/>
<path fill="none" d="M419.2,457.9c3-0.3,5.5-0.9,8.2-1.2c0,13.4-10.6,22.8-21.2,18.5c3.6-1.5,6.7-3.3,9.1-6.7
	C417.1,465.8,418.3,461.9,419.2,457.9z"/>
<path fill="none" d="M406.8,418.8c9.4-1.5,21.2,5.8,25.5,15.2c-2.4,0.3-4.9,0.6-7.6,1.2C420.4,427.9,415,422.1,406.8,418.8z"/>
<path fill="none" d="M426.8,443.7c-2.1,0.3-3.9,0.6-6.1,0.9c0.9-2.7,3-4.2,4.2-6.4c2.1-0.3,3.9-0.6,6.7-0.9
	C429.6,439.7,428.3,441.5,426.8,443.7z"/>
<path fill="none" d="M370.7,484.6c-1.2,2.7-2.4,5.2-3.6,8.2c-11.2-15.2-21.9-29.8-33.1-44.9c-2.7,7-4.9,14-7.6,20.9
	c-2.7,0.3-5.2,0.9-8.5,1.2c4.6-13.1,8.8-25.5,13.4-38.9C344.9,449.4,357.6,467,370.7,484.6z"/>
<path fill="none" d="M313.9,473.7c7.3-1.2,14-2.1,20.6-3c1.5,2.1,3.3,4.2,5.2,6.7c-9.7,1.5-18.8,2.7-28.2,4.2
	c-1.2,3.6-2.7,7.3-3.9,11.2c-2.7,0.3-5.5,0.9-7.9,1.2c0-3,14.9-46.8,21.2-62.8c1.2-0.3,2.7-0.3,3.9-0.6s2.7-0.3,4.6-0.6
	C323.9,444.6,319.1,458.8,313.9,473.7z"/>
<path fill="none" d="M364.9,494.4c-3.3,0.6-5.8,0.9-8.8,1.2c-2.1-2.7-4.2-5.8-6.7-9.1c-9.4,1.5-19.1,3-28.8,4.2
	c-1.8-2.1-3.6-4.2-6.1-7c10-1.5,19.4-3,29.8-4.6c-4.6-6.1-8.5-11.8-12.8-17.3c0.9-2.7,1.8-5.5,3-8.8
	C344.9,467,354.6,480.4,364.9,494.4z"/>
<path fill="none" d="M304.5,503.5c-1.5-1.8-3.3-3.9-5.5-6.4c3.3-0.6,6.1-0.9,9.1-1.5c1.5,1.8,3.3,3.9,5.5,6.4
	C310.6,502.6,307.5,503.2,304.5,503.5z"/>
<path fill="none" d="M315.4,500.4c-2.1-2.4-3.9-4.6-5.8-6.7c0.9-2.4,1.8-4.9,2.7-7.9c2.1,2.4,3.9,4.6,5.8,6.7
	C317.5,495,316.6,497.7,315.4,500.4z"/>
<path fill="none" d="M520.9,457.3c1.8-2.1,3.3-4.6,5.2-6.7c0.6,1.2,1.2,2.1,2.1,3.3c4.6,7.3,13.1,7,17.6,3.9c4.2-3,5.2-9.1,2.4-14.3
	c-1.5-3-3.9-4.9-6.7-6.4c-4.2-2.1-8.2-4.2-12.4-6.4c-2.1-1.2-4.2-2.4-6.4-3.9c-1.2-0.9-2.1-2.1-3-3.6c-2.7-5.8-0.3-10.6,6.1-11.5
	c0,0.3,0.3,0.3,0.3,0.6c-0.3,6.1,2.1,9.7,7,12.1c4.2,2.1,8.8,4.6,13.1,7c3.9,2.1,7.6,4.9,9.7,9.4c4.6,9.7,2.4,21.6-9.1,26.1
	c-4.6,1.8-9.4,2.1-14,0.9C528.2,466.1,522.4,462.2,520.9,457.3z"/>
<path fill="none" d="M544.9,410.6c-1.8,2.4-3.6,4.6-5.2,7c-0.6-1.2-0.9-1.8-1.5-2.7c-3.9-6.1-10.9-8.2-17-5.2
	c-5.5,2.7-6.7,10-3,15.5c1.8,2.7,3.9,4.6,6.7,5.8c3.6,2.1,7.6,3.9,11.2,5.8c1.5,0.9,3,1.5,4.6,2.4c1.5,0.9,2.7,1.8,3.9,3
	c2.4,2.4,3.6,5.8,2.4,9.1c-1.2,3.3-3.6,4.6-7.3,4.9c0.9-6.7-2.1-10.6-7.3-13.1c-4.6-2.4-9.1-4.9-13.7-7.3c-4.2-2.4-7.6-5.8-9.4-10.6
	c-3.6-10-0.3-19.1,8.5-23.7c5.2-2.7,10.6-3,16.4-1.2C538.5,402.7,542.2,405.4,544.9,410.6z"/>
<path fill="none" d="M537,399c7.3-0.3,13.4,2.1,17.9,9.1c-2.7,0.3-5.2,0.9-7.6,1.2C544.6,405.1,541.3,401.8,537,399z"/>
<path fill="none" d="M528.8,469.2c-7.3,0.6-13.4-2.1-18.2-9.1c2.7-0.3,5.2-0.9,7.9-1.2C521.2,463.1,524.6,466.7,528.8,469.2z"/>
<path fill="none" d="M549.2,417.6c-2.1,0.3-4.2,0.6-6.7,0.9c1.8-2.4,3.3-4.6,4.9-6.4c2.1-0.3,3.9-0.6,6.1-0.9
	C552.5,413.6,550.4,415.1,549.2,417.6z"/>
<path fill="none" d="M523.4,449.7c-1.8,2.7-3.3,4.6-4.6,6.4c-2.1,0.3-3.9,0.6-6.7,0.9c1.8-2.4,3.3-4.6,4.6-6.4
	C518.8,450.3,520.6,450,523.4,449.7z"/>
<path fill="#FFFFFF" d="M135.4,525c-1.8,2.1-3.3,4.2-5.5,6.4c-2.4,2.7-5.8,4.2-9.4,4.9c-4.9,0.6-7.9-1.5-9.4-6.1
	c-0.3-0.9-0.6-2.1-0.9-3.6c-0.6,0.9-1.2,1.8-1.8,2.7c-3,4.2-6.4,8.2-11.5,10.3c-6.7,2.4-10.9,0.9-14-5.2c-2.1,2.1-4.2,4.6-6.7,6.7
	c-0.9,0.9-2.1,1.5-3.3,2.1c-7,3-13.7-0.3-14.9-7.9c-1.5-8.5-0.3-17,1.5-25.2c1.2-5.8,3.3-11.5,6.7-16.4c1.2-1.8,2.7-3.6,4.2-5.2
	c6.7-6.1,14.3-5.2,19.4,2.4c0.3-0.9,0.6-1.2,0.6-1.8c2.1-8.5,3.9-16.7,6.1-25.2c0.3-1.2,0.9-2.1,2.1-2.1c3-0.3,6.1-0.9,9.1-1.5
	c-1.2,5.2-2.4,10-3.3,14.9c-3.6,15.5-7.3,31-10.9,46.4c-0.6,3-0.9,6.1-0.6,8.8c0,2.4,2.1,3.6,4.2,2.1c2.1-1.2,3.9-3,5.2-4.9
	c6.7-9.1,10.9-19.4,13.1-30.4c1.2-5.8,2.7-11.8,4.3-17.6c3.6-0.6,7-1.2,10.9-1.8c-0.3,0.9-0.3,1.8-0.6,2.7
	c-3,12.4-5.8,25.2-8.8,37.6c-0.6,2.1-0.6,4.6-0.6,6.7c0,2.7,1.5,3.6,3.6,2.1c2.1-1.2,3.9-3,5.5-5.2c4.2-6.1,7-13.1,8.8-20.6
	c2.1-8.5,3.9-17.3,6.1-25.8c3.6-0.6,7-1.2,10.9-1.8c-1.2,4.9-2.1,9.7-3.3,14.3c-1.8,8.2-3.9,16.4-5.8,24.6c-0.6,3-0.9,6.1-0.9,9.1
	c0,2.7,2.1,3.6,4.3,2.1c1.8-1.2,3.6-2.7,4.9-4.6c5.5-7.6,9.7-16.1,11.5-25.5c3-14.6,6.7-28.8,10-43.4c0.3-0.6,0.9-1.5,1.5-1.8
	c3-0.6,6.4-0.9,9.7-1.5c-2.1,8.8-3.9,17-6.1,26.1c3-3.3,6.1-5.8,10-7c5.2-1.5,9.7,0.6,11.8,5.8c1.8,4.6,1.8,9.7,1.5,14.6
	c-0.6,7-2.1,14-4.9,20.6c3.6-0.6,6.7-2.4,8.8-4.9c2.4-3,4.2-6.7,6.1-10c0.9-1.5,1.8-1.8,3-0.9c1.2,0.6,3,0.9,2.1,3.3
	c-3.9,10.3-10.6,17.3-22.2,19.4c-0.9,0-1.8,0.9-2.1,1.8c-3.9,5.8-9.1,9.7-16.1,10.6c-7.3,0.9-12.1-2.1-14.3-9.1
	c-0.3-0.6-0.6-1.5-0.9-2.4c-1.2,2.1-2.4,3.9-3.6,5.8c-3,4.2-6.4,8.2-11.2,10c-6.7,2.7-11.2,0.6-14-6.1
	C135.7,525,135.4,525,135.4,525z M67.7,528.4c0.6,5.8,3,7,6.7,4.9c0.3-0.3,0.9-0.3,1.2-0.6c3.3-2.7,5.8-6.1,7-10.3
	c2.1-7,3.6-14.3,5.2-21.6c0.6-2.4-1.2-5.8-3.3-7c-1.8-0.9-4.2-0.6-6.4,1.2c-0.9,0.6-1.5,1.5-2.1,2.4C69.5,507.4,68,518.3,67.7,528.4
	z M188.8,508c3-6.4,5.8-19.4,5.5-26.1c-0.3-4.6-3.6-6.7-7.6-4.6c-6.4,3.6-8.8,9.4-8.5,16.7C178.8,501,182.4,505.9,188.8,508z
	 M187,513.8c-5.5-2.1-9.1-5.2-11.8-10c-0.6,4.6-1.2,8.8,0,12.7c0.9,3,3.3,3.9,6.1,2.4C183.1,517.4,184.6,515.6,187,513.8z"/>
</svg>
