<?xml version="1.0" encoding="utf-8"?>
<!-- Generator: Adobe Illustrator 18.1.0, SVG Export Plug-In . SVG Version: 6.00 Build 0)  -->
<svg version="1.1" id="Layer_1" xmlns="http://www.w3.org/2000/svg" xmlns:xlink="http://www.w3.org/1999/xlink" x="0px" y="0px"
	 viewBox="0 0 762 573" enable-background="new 0 0 762 573" xml:space="preserve">
<path fill="none" d="M380.3,282.7c0.8-0.1,1.6-0.2,2.5-0.4c0.4,2.5,0.7,4.9,1.1,7.4c-0.8,0.1-1.6,0.2-2.5,0.4
	C381,287.6,380.6,285.2,380.3,282.7z"/>
<path fill="none" d="M385.8,284.4c0.1,0.9,0.2,1.6,0.4,2.4c-2.7,0.4-5.4,0.8-8.1,1.2c0.7-1,1.4-1.9,2.1-2.8
	C382,284.9,383.9,284.7,385.8,284.4z"/>
<path fill="none" d="M384.6,287.1c-0.8,0.1-1.5,0.2-2.2,0.3c-0.9-0.6-1.8-1.3-2.9-2.1c0.8-0.1,1.4-0.2,2.2-0.3
	C382.6,285.6,383.5,286.3,384.6,287.1z"/>
<path fill="none" d="M382.1,275.5c1.3-0.2,2.5-0.4,3.9-0.6c-2.8,3.8-5.5,7.4-8.2,11.1c4.2,3.1,8.3,6.1,12.6,9.2
	c-0.6,0.8-1.1,1.5-1.6,2.3c-5-3.6-9.8-7.2-14.8-10.9C376.6,282.9,379.3,279.2,382.1,275.5z"/>
<path fill="none" d="M377.9,290.7c2.6-3.5,5.2-7,7.8-10.6c0.2,1.4,0.4,2.5,0.6,3.8c-2,2.7-4.1,5.5-6.2,8.4
	C379.3,291.8,378.6,291.2,377.9,290.7z"/>
<path fill="none" d="M383.4,285.2c0.1,0.4,0.1,0.8,0.2,1.3c-0.7,0.9-1.4,1.8-2.2,2.9c-0.3-2.1-0.6-4.2-1-6.3
	C381.5,283.8,382.5,284.5,383.4,285.2z"/>
<path fill="none" d="M381.5,287.5c-0.5-0.6-1.1-1.3-1.8-2.1c1.1-0.2,2-0.3,3-0.5c0.5,0.6,1.1,1.3,1.8,2.1
	C383.4,287.2,382.5,287.3,381.5,287.5z"/>
<path fill="none" d="M382.6,288.6c-0.7-0.8-1.3-1.5-1.9-2.2c0.3-0.8,0.6-1.6,0.9-2.6c0.7,0.8,1.3,1.5,1.9,2.2
	C383.2,286.9,382.9,287.7,382.6,288.6z"/>
<path fill="none" d="M376.4,292c0.6-0.7,1.1-1.5,1.7-2.2c0.2,0.4,0.4,0.7,0.7,1.1c1.5,2.4,4.3,2.3,5.8,1.3c1.4-1,1.7-3,0.8-4.7
	c-0.5-1-1.3-1.6-2.2-2.1c-1.4-0.7-2.7-1.4-4.1-2.1c-0.7-0.4-1.4-0.8-2.1-1.3c-0.4-0.3-0.7-0.7-1-1.2c-0.9-1.9-0.1-3.5,2-3.8
	c0,0.1,0.1,0.1,0.1,0.2c-0.1,2,0.7,3.2,2.3,4c1.4,0.7,2.9,1.5,4.3,2.3c1.3,0.7,2.5,1.6,3.2,3.1c1.5,3.2,0.8,7.1-3,8.6
	c-1.5,0.6-3.1,0.7-4.6,0.3C378.8,294.9,377,293.6,376.4,292z"/>
<path fill="none" d="M387.8,280.3c-0.6,0.8-1.2,1.5-1.7,2.3c-0.2-0.4-0.3-0.6-0.5-0.9c-1.3-2-3.6-2.7-5.6-1.7
	c-1.8,0.9-2.2,3.3-1,5.1c0.6,0.9,1.3,1.5,2.2,1.9c1.2,0.7,2.5,1.3,3.7,1.9c0.5,0.3,1,0.5,1.5,0.8c0.5,0.3,0.9,0.6,1.3,1
	c0.8,0.8,1.2,1.9,0.8,3c-0.4,1.1-1.2,1.5-2.4,1.6c0.3-2.2-0.7-3.5-2.4-4.3c-1.5-0.8-3-1.6-4.5-2.4c-1.4-0.8-2.5-1.9-3.1-3.5
	c-1.2-3.3-0.1-6.3,2.8-7.8c1.7-0.9,3.5-1,5.4-0.4C385.7,277.7,386.9,278.6,387.8,280.3z"/>
<path fill="none" d="M379.1,284.5c2.4-0.1,4.4,0.7,5.9,3c-0.9,0.1-1.7,0.3-2.5,0.4C381.6,286.5,380.5,285.4,379.1,284.5z"/>
<path fill="none" d="M385.1,287.9c-2.4,0.2-4.4-0.7-6-3c0.9-0.1,1.7-0.3,2.6-0.4C382.5,285.9,383.6,287.1,385.1,287.9z"/>
<path fill="none" d="M382.5,287.1c-0.7,0.1-1.4,0.2-2.2,0.3c0.6-0.8,1.1-1.5,1.6-2.1c0.7-0.1,1.3-0.2,2-0.3
	C383.6,285.8,383,286.3,382.5,287.1z"/>
<path fill="none" d="M383.9,285c-0.6,0.9-1.1,1.5-1.5,2.1c-0.7,0.1-1.3,0.2-2.2,0.3c0.6-0.8,1.1-1.5,1.5-2.1
	C382.4,285.2,383.1,285.1,383.9,285z"/>
<g>
	<path fill="none" stroke="#FFFFFF" stroke-width="2" stroke-miterlimit="10" d="M473.1,264.3c-4.9-39.1-38.2-69.3-78.6-69.3
		c-43.7,0-79.2,35.5-79.2,79.2c0,4.7,0.4,9.3,1.2,13.8L473.1,264.3z"/>
	<path fill="none" stroke="#FFFFFF" stroke-width="2" stroke-miterlimit="10" d="M337.1,328.8c14.4,15.2,34.8,24.6,57.4,24.6
		c31.2,0,58.2-18,71.1-44.2L337.1,328.8z"/>
</g>
<g>
	<path fill="none" stroke="#FFFFFF" stroke-width="2" stroke-miterlimit="10" d="M490.1,300.4c0,2.8-2.2,5.4-5,5.8L305,333.7
		c-2.7,0.4-5-1.5-5-4.3v-33.8c0-2.8,2.2-5.4,5-5.8l180.1-27.2c2.7-0.4,5,1.5,5,4.3V300.4z"/>
</g>
<g>
	<path fill="#FFFFFF" d="M366.3,289.8c1.3-0.2,2.7-0.4,4.1-0.6c1.3,0.9,2.7,1.9,4.1,3c0.2,1.5,0.5,3.1,0.7,4.7
		c1.8-0.3,3.6-0.5,5.5-0.8c-0.4-2.7-0.8-5.4-1.2-8.2c1.4-0.2,2.7-0.4,4.1-0.6c1.3,0.9,2.6,1.9,4,2.9c1,6.9,2.1,13.8,3.1,20.7
		c-1.3,0.2-2.6,0.4-4,0.6c-1.3-0.9-2.7-1.9-4.1-3c-0.2-1.5-0.5-3.1-0.7-4.7c-1.8,0.3-3.6,0.6-5.5,0.8c0.4,2.7,0.8,5.4,1.2,8.2
		c-1.4,0.2-2.6,0.4-4.1,0.6c-1-0.7-2.2-1.6-3.3-2.4c-0.2-0.2-0.5-0.3-0.8-0.4C368.4,303.7,367.4,296.8,366.3,289.8z M382.9,288.2
		c-0.8,0.1-1.6,0.2-2.6,0.4c0.6,3.9,1.2,7.7,1.8,11.6c-3.5,0.5-7,1.1-10.5,1.6c-0.4-2.9-0.9-5.7-1.3-8.5c-1-0.7-1.9-1.4-2.9-2.1
		c1,6.4,1.9,12.6,2.9,18.9c0.9,0.6,1.8,1.3,2.9,2.1c-0.4-2.8-0.8-5.2-1.2-7.7c3.5-0.5,7-1.1,10.5-1.6c0.3,1.7,0.5,3.3,0.7,4.9
		c0.9-0.1,1.7-0.3,2.6-0.4C384.9,300.9,383.9,294.6,382.9,288.2z M383.9,288.6c1,6.4,1.9,12.7,2.9,18.9c1,0.7,1.9,1.4,3,2.1
		c-1-6.4-1.9-12.6-2.9-18.9C385.9,290.1,385,289.4,383.9,288.6z M373,305.1c0.4,2.5,0.8,4.9,1.1,7.4c0.9-0.1,1.7-0.3,2.5-0.4
		c-0.4-2.5-0.7-4.9-1.1-7.4C374.7,304.9,373.9,305,373,305.1z M380.8,297c-1.9,0.3-3.8,0.6-5.7,0.9c-0.7,0.9-1.3,1.8-2.1,2.8
		c2.8-0.4,5.4-0.8,8.1-1.2C381,298.7,380.9,297.9,380.8,297z M372.3,300.3c0.8-1.1,1.5-2,2.2-2.9c-0.2-1.5-0.4-2.9-0.7-4.3
		c-0.9,0.1-1.7,0.3-2.6,0.4C371.6,295.7,371.9,297.9,372.3,300.3z M367.9,290.4c1.1,0.8,2,1.5,2.8,2.1c0.7-0.1,1.4-0.2,2.2-0.3
		c-1.1-0.8-2-1.4-2.9-2.1C369.4,290.2,368.8,290.3,367.9,290.4z M389.1,310.3c-1.1-0.8-2-1.5-2.9-2.1c-0.7,0.1-1.4,0.2-2.2,0.3
		c1.1,0.8,2,1.5,2.9,2.1C387.7,310.5,388.3,310.4,389.1,310.3z"/>
	<path fill="#FFFFFF" d="M459.4,300.5c-1.9,0.3-3.7,0.6-5.5,0.8c-1.6-1.2-3.2-2.4-4.8-3.5c-0.8,1.9-2.2,3.1-3.2,4.7
		c-1.4,0.2-2.7,0.4-4,0.6c-1-6.9-2.1-13.7-3.1-20.7c1-1.3,2-2.7,3-4c1.3-0.2,2.6-0.4,4-0.6c0.3,2,0.6,3.9,0.9,6.1
		c2-2.5,3.6-4.8,5.3-7.1c1.9-0.3,3.8-0.6,5.8-0.9c0.3,1.8,0.5,3.6,0.8,5.5c-2.1,2.8-4.2,5.6-6.3,8.6c3.2,2.4,6.4,4.7,9.7,7.1
		C461,298.3,460.2,299.4,459.4,300.5z M457.6,299.9c0-0.1,0-0.2,0.1-0.2c-4.8-3.5-9.7-7.1-14.6-10.6c-0.3-2.1-0.6-4.2-1-6.3
		c-0.9,0.1-1.7,0.3-2.5,0.4c1,6.4,1.9,12.7,2.9,19.1c0.9-0.1,1.7-0.3,2.5-0.4c-0.4-2.9-0.9-5.7-1.3-8.9c3.6,2.6,7,5.1,10.3,7.5
		C455.3,300.2,456.4,300,457.6,299.9z M452.4,277.6c-2.7,3.7-5.5,7.4-8.2,11.1c5,3.6,9.9,7.2,14.8,10.9c0.6-0.8,1.1-1.5,1.6-2.3
		c-4.3-3.1-8.4-6.1-12.6-9.2c2.7-3.7,5.4-7.3,8.2-11.1C454.9,277.2,453.7,277.4,452.4,277.6z M449.3,287.9c0.8,0.6,1.5,1.1,2.2,1.6
		c2.1-2.9,4.2-5.7,6.2-8.4c-0.2-1.3-0.4-2.5-0.6-3.8C454.4,280.9,451.9,284.4,449.3,287.9z M446,284.9c-0.3-1.8-0.5-3.6-0.8-5.6
		c-0.8,1.1-1.5,2-2.1,2.9c0.3,1.9,0.6,3.7,0.8,5.6C444.6,286.7,445.3,285.8,446,284.9z M447.8,296.9c-1-0.7-1.9-1.4-2.9-2.1
		c0.3,2.1,0.6,4.2,1,6.3c0.8-1,1.5-2,2.2-2.9C447.9,297.7,447.9,297.3,447.8,296.9z M440.1,282c0.9-0.1,1.5-0.2,2.2-0.3
		c0.7-0.9,1.3-1.8,2.1-2.8c-0.8,0.1-1.5,0.2-2.2,0.3C441.6,280,440.9,280.9,440.1,282z"/>
	<path fill="#FFFFFF" d="M426.1,299.5c3-0.3,4.4-2,5-5.9c1.4-0.2,2.8-0.4,4.3-0.6c1,0.8,2.1,1.6,3.3,2.4c-0.1,2-0.8,3.7-1.8,5.2
		c-1.5,2.3-3.6,3.8-6.3,4.2c-1.7,0.3-3.4,0.6-5.1,0.6c-4.2-0.1-7.3-2.4-9-6.6c-1.8-4.3-1.9-8.7,0.3-12.8c1.4-2.7,3.6-4.3,6.5-4.9
		c1.4-0.3,2.9-0.5,4.3-0.6c3.9-0.4,8.1,2.4,9.7,6.6c-0.8,1.1-1.6,2.2-2.5,3.4c-1.3,0.2-2.6,0.4-4,0.6c-0.6-1.8-1.4-3.5-3-4.7
		c-2.2,0.3-3.6,1.7-4.4,3.9C422.4,293.2,423.3,297.6,426.1,299.5z M425.8,304.6c-1.8-0.8-3.4-2.1-4.6-3.8c-1.6-2.2-2.3-4.8-2.4-7.5
		c-0.1-2.3,0.4-4.5,1.8-6.3c1.3-1.6,2.8-2.6,4.9-2.4c2.2,0.2,3.8,1.7,5,3.7c0.3,0.5,0.5,1,0.8,1.6c0.6-0.8,1.2-1.6,1.8-2.4
		c-1.8-3.2-4.2-5.2-7.5-5.5c-3.4-0.3-6.1,1.3-7.9,4.4c-1.2,2.1-1.7,4.5-1.5,7c0.2,3.6,1.3,6.7,4,9
		C421.7,303.9,423.6,304.6,425.8,304.6z M426.6,285.8c-1.2-0.6-2.3-0.4-3.4,0.1c-1.8,0.8-2.8,2.4-3.3,4.4c-0.6,2.6-0.2,5.2,0.7,7.6
		c1.4,3.4,3.7,5.6,7.1,6.1c3.4,0.5,6.4-0.7,8.5-3.7c0.9-1.3,1.5-2.8,1.7-4.5c-0.8-0.6-1.5-1.1-2.3-1.7c-0.3,1-0.4,2-0.7,2.9
		c-0.9,2.5-2.6,4-5.1,4.3c-2.5,0.3-4.5-0.9-5.9-3.1c-0.5-0.8-0.9-1.7-1.2-2.7C421.3,291.4,422.9,287.5,426.6,285.8z M431.8,294.5
		c-0.2,1.3-0.6,2.5-1.4,3.6c-0.8,1-1.8,1.7-3,2.2c3.5,1.4,7.1-1.7,7-6.1C433.7,294.2,432.8,294.3,431.8,294.5z M427.8,281.5
		c2.7,1.1,4.6,3,5.9,5.4c0.9-0.1,1.7-0.3,2.5-0.4C434.8,283.5,430.9,281,427.8,281.5z M434.3,289.7c0.5-0.7,1-1.4,1.6-2.2
		c-0.9,0.1-1.5,0.2-2.2,0.3c-0.4,0.7-1.1,1.3-1.4,2.1C433,289.9,433.6,289.9,434.3,289.7z"/>
	<path fill="#FFFFFF" d="M398.6,284.9c1.5-0.2,2.9-0.4,4.3-0.7c4.6,6.3,9.2,12.5,13.9,18.8c-0.6,1.4-1.2,2.7-1.8,4.1
		c-1.5,0.2-2.9,0.4-4.3,0.7c-0.7-1-1.5-2-2.3-3c-3,0.5-6,0.9-9.1,1.4c-0.4,1.1-0.8,2.3-1.3,3.6c-1.4,0.2-2.8,0.4-4.3,0.7
		c-0.9-1.1-1.9-2.2-2.9-3.3C393.5,299.7,396.1,292.4,398.6,284.9z M415.9,303.3c-4.3-5.8-8.6-11.6-13-17.6c-1.5,4.4-3,8.6-4.4,12.8
		c1.1-0.2,1.9-0.3,2.8-0.4c0.9-2.3,1.5-4.5,2.5-6.9c3.7,5,7.3,9.8,10.9,14.8C415.1,305,415.5,304.2,415.9,303.3z M397.2,299.7
		c1.7-4.9,3.3-9.6,5-14.5c-0.6,0.1-1.1,0.2-1.5,0.2c-0.5,0.1-0.9,0.1-1.3,0.2c-2.1,5.3-7,19.8-7,20.7c0.9-0.1,1.8-0.3,2.6-0.4
		c0.4-1.2,0.9-2.4,1.3-3.7c3.1-0.5,6.2-0.9,9.3-1.4c-0.6-0.8-1.1-1.5-1.7-2.2C401.8,299,399.6,299.3,397.2,299.7z M414,306.5
		c-3.4-4.6-6.6-9-10-13.5c-0.4,1.1-0.7,2-1,2.9c1.4,1.9,2.7,3.7,4.2,5.7c-3.3,0.5-6.4,1-9.8,1.5c0.7,0.9,1.3,1.5,2,2.3
		c3.2-0.5,6.4-1,9.5-1.4c0.8,1.1,1.5,2,2.2,3C412.1,306.8,412.9,306.6,414,306.5z M394.1,309.5c1-0.2,1.9-0.3,3-0.5
		c-0.7-0.8-1.3-1.5-1.8-2.1c-1,0.2-1.9,0.3-3,0.5C393,308.1,393.6,308.8,394.1,309.5z M397.7,308.4c0.3-0.9,0.6-1.8,0.9-2.7
		c-0.6-0.7-1.2-1.4-1.9-2.2c-0.3,1-0.6,1.8-0.9,2.6C396.5,306.9,397,307.6,397.7,308.4z"/>
	<path fill="#FFFFFF" d="M460.9,294.7c0.9-1.2,1.8-2.4,2.6-3.5c1.3-0.2,2.6-0.4,4-0.6c0.5,1.8,1.4,3.1,3.2,3.5
		c0.3-1.2,0-2.1-0.8-2.8c-0.5-0.4-1-0.7-1.5-1c-1.4-0.7-2.7-1.4-4.1-2.2c-1.4-0.8-2.5-1.9-3.2-3.4c-1.7-3.7-0.3-7.7,3-9.3
		c0.5-0.2,1-0.4,1.6-0.5c1.5-0.3,3.1-0.6,4.7-0.7c2.4-0.2,4.6,0.7,6.3,2.7c0.4,0.5,0.7,1.1,1.1,1.6c-0.9,1.2-1.8,2.4-2.6,3.6
		c-1.3,0.2-2.6,0.4-4,0.6c-0.5-1.7-1.3-3.1-3.1-3.4c-0.4,1-0.3,1.8,0.5,2.5c0.4,0.4,1,0.8,1.5,1.1c1.4,0.8,2.8,1.5,4.2,2.2
		c1.7,1,3,2.3,3.7,4.4c1.2,3.7-0.3,7.3-3.5,8.6c-0.6,0.3-1.3,0.5-1.9,0.6c-1.8,0.2-3.6,0.6-5.3,0.5
		C464.5,299,462.2,297.3,460.9,294.7z M465.4,294.2c0.5,1.6,2.4,2.9,3.8,3.3c1.6,0.4,3.2,0.3,4.6-0.3c3.8-1.5,4.5-5.4,3-8.6
		c-0.7-1.5-1.8-2.4-3.2-3.1c-1.4-0.8-2.9-1.5-4.3-2.3c-1.6-0.8-2.4-2.1-2.3-4c0-0.1-0.1-0.1-0.1-0.2c-2,0.3-2.9,1.9-2,3.8
		c0.2,0.5,0.6,0.9,1,1.2c0.6,0.5,1.4,0.9,2.1,1.3c1.4,0.7,2.7,1.4,4.1,2.1c0.9,0.5,1.7,1.1,2.2,2.1c1,1.7,0.7,3.7-0.8,4.7
		c-1.5,1.1-4.3,1.1-5.8-1.3c-0.2-0.3-0.4-0.7-0.7-1.1C466.5,292.8,465.9,293.5,465.4,294.2z M473.3,278.9c-0.9-1.7-2.1-2.7-3.6-3.1
		c-1.8-0.6-3.6-0.5-5.4,0.4c-2.9,1.5-4,4.5-2.8,7.8c0.6,1.6,1.7,2.7,3.1,3.5c1.5,0.8,3,1.6,4.5,2.4c1.7,0.9,2.7,2.1,2.4,4.3
		c1.1-0.1,2-0.5,2.4-1.6c0.4-1.1,0-2.2-0.8-3c-0.4-0.4-0.8-0.7-1.3-1c-0.5-0.3-1-0.6-1.5-0.8c-1.2-0.6-2.5-1.3-3.7-1.9
		c-0.9-0.5-1.6-1.1-2.2-1.9c-1.2-1.9-0.8-4.2,1-5.1c2-1.1,4.3-0.3,5.6,1.7c0.2,0.3,0.3,0.5,0.5,0.9
		C472.1,280.4,472.7,279.6,473.3,278.9z M470.7,275c1.4,0.9,2.5,2,3.3,3.4c0.9-0.1,1.7-0.3,2.5-0.4
		C475.1,275.8,473.1,274.9,470.7,275z M468,298.2c-1.5-0.8-2.6-2-3.4-3.4c-0.9,0.1-1.7,0.3-2.6,0.4
		C463.6,297.4,465.6,298.3,468,298.2z M474.7,281.1c0.4-0.8,1.1-1.3,1.3-2.1c-0.7,0.1-1.3,0.2-2,0.3c-0.5,0.7-1,1.3-1.6,2.1
		C473.3,281.3,474,281.2,474.7,281.1z M466.2,291.7c-0.9,0.1-1.5,0.2-2.2,0.3c-0.5,0.6-0.9,1.3-1.5,2.1c0.9-0.1,1.5-0.2,2.2-0.3
		C465,293.2,465.5,292.6,466.2,291.7z"/>
</g>
<path fill="none" d="M382.9,288.2c1,6.4,1.9,12.8,2.9,19.2c-0.8,0.1-1.6,0.2-2.6,0.4c-0.3-1.7-0.5-3.3-0.7-4.9
	c-3.5,0.5-7,1.1-10.5,1.6c0.4,2.5,0.8,5,1.2,7.7c-1.1-0.8-2-1.5-2.9-2.1c-1-6.3-1.9-12.5-2.9-18.9c1,0.7,1.9,1.4,2.9,2.1
	c0.4,2.8,0.9,5.6,1.3,8.5c3.5-0.5,7-1.1,10.5-1.6c-0.6-3.9-1.2-7.7-1.8-11.6C381.3,288.4,382.1,288.3,382.9,288.2z"/>
<path fill="none" d="M383.9,288.6c1.1,0.8,2,1.5,3,2.1c1,6.3,1.9,12.5,2.9,18.9c-1-0.8-2-1.4-3-2.1
	C385.8,301.3,384.9,295,383.9,288.6z"/>
<path fill="none" d="M372.3,300.3c-0.4-2.4-0.7-4.6-1-6.9c0.8-0.1,1.7-0.3,2.6-0.4c0.2,1.4,0.4,2.8,0.7,4.3
	C373.8,298.2,373.1,299.2,372.3,300.3z"/>
<path fill="none" d="M367.9,290.4c0.9-0.1,1.5-0.2,2.2-0.3c0.9,0.6,1.8,1.3,2.9,2.1c-0.8,0.1-1.5,0.2-2.2,0.3
	C369.9,291.9,369,291.2,367.9,290.4z"/>
<path fill="none" d="M457.6,299.9c-1.1,0.2-2.3,0.3-3.5,0.5c-3.3-2.4-6.7-4.9-10.3-7.5c0.5,3.1,0.9,6,1.3,8.9
	c-0.9,0.1-1.7,0.3-2.5,0.4c-1-6.3-1.9-12.7-2.9-19.1c0.8-0.1,1.6-0.2,2.5-0.4c0.3,2.1,0.6,4.2,1,6.3c4.9,3.6,9.7,7.1,14.6,10.6
	C457.6,299.7,457.6,299.8,457.6,299.9z"/>
<path fill="none" d="M446,284.9c-0.7,0.9-1.4,1.9-2.1,2.9c-0.3-1.9-0.6-3.7-0.8-5.6c0.6-0.9,1.4-1.8,2.1-2.9
	C445.4,281.3,445.7,283.1,446,284.9z"/>
<path fill="none" d="M440.1,282c0.8-1.1,1.5-2,2.1-2.8c0.7-0.1,1.3-0.2,2.2-0.3c-0.8,1.1-1.4,2-2.1,2.8
	C441.6,281.8,440.9,281.9,440.1,282z"/>
<path fill="none" d="M425.8,304.6c-2.2,0.1-4.1-0.6-5.8-2.1c-2.6-2.3-3.7-5.5-4-9c-0.1-2.5,0.3-4.9,1.5-7c1.8-3.1,4.5-4.7,7.9-4.4
	c3.3,0.3,5.7,2.3,7.5,5.5c-0.6,0.8-1.2,1.6-1.8,2.4c-0.3-0.6-0.5-1.1-0.8-1.6c-1.2-2-2.8-3.4-5-3.7c-2-0.2-3.6,0.7-4.9,2.4
	c-1.4,1.8-1.9,4-1.8,6.3c0.1,2.7,0.9,5.3,2.4,7.5C422.4,302.5,423.9,303.7,425.8,304.6z"/>
<path fill="none" d="M426.6,285.8c-3.7,1.7-5.3,5.6-4,9.8c0.3,0.9,0.6,1.9,1.2,2.7c1.4,2.3,3.4,3.4,5.9,3.1c2.5-0.3,4.2-1.8,5.1-4.3
	c0.3-0.9,0.5-1.9,0.7-2.9c0.8,0.6,1.5,1.1,2.3,1.7c-0.2,1.7-0.8,3.2-1.7,4.5c-2.1,3-5,4.2-8.5,3.7c-3.4-0.5-5.7-2.7-7.1-6.1
	c-1-2.4-1.4-5-0.7-7.6c0.5-2,1.5-3.6,3.3-4.4C424.2,285.4,425.4,285.2,426.6,285.8z"/>
<path fill="none" d="M431.8,294.5c1-0.1,1.8-0.3,2.7-0.4c0,4.4-3.5,7.5-7,6.1c1.2-0.5,2.2-1.1,3-2.2
	C431.2,297,431.6,295.8,431.8,294.5z"/>
<path fill="none" d="M427.8,281.5c3.1-0.5,7,1.9,8.4,5c-0.8,0.1-1.6,0.2-2.5,0.4C432.3,284.5,430.5,282.7,427.8,281.5z"/>
<path fill="none" d="M434.3,289.7c-0.7,0.1-1.3,0.2-2,0.3c0.3-0.9,1-1.4,1.4-2.1c0.7-0.1,1.3-0.2,2.2-0.3
	C435.3,288.4,434.9,289,434.3,289.7z"/>
<path fill="none" d="M415.9,303.3c-0.4,0.9-0.8,1.7-1.2,2.7c-3.7-5-7.2-9.8-10.9-14.8c-0.9,2.3-1.6,4.6-2.5,6.9
	c-0.9,0.1-1.7,0.3-2.8,0.4c1.5-4.3,2.9-8.4,4.4-12.8C407.3,291.6,411.6,297.4,415.9,303.3z"/>
<path fill="none" d="M397.2,299.7c2.4-0.4,4.6-0.7,6.8-1c0.5,0.7,1.1,1.4,1.7,2.2c-3.2,0.5-6.2,0.9-9.3,1.4
	c-0.4,1.2-0.9,2.4-1.3,3.7c-0.9,0.1-1.8,0.3-2.6,0.4c0-1,4.9-15.4,7-20.7c0.4-0.1,0.9-0.1,1.3-0.2c0.4-0.1,0.9-0.1,1.5-0.2
	C400.5,290.1,398.9,294.8,397.2,299.7z"/>
<path fill="none" d="M414,306.5c-1.1,0.2-1.9,0.3-2.9,0.4c-0.7-0.9-1.4-1.9-2.2-3c-3.1,0.5-6.3,1-9.5,1.4c-0.6-0.7-1.2-1.4-2-2.3
	c3.3-0.5,6.4-1,9.8-1.5c-1.5-2-2.8-3.9-4.2-5.7c0.3-0.9,0.6-1.8,1-2.9C407.4,297.5,410.6,301.9,414,306.5z"/>
<path fill="#FFFFFF" d="M338.4,316.5c-0.6,0.7-1.1,1.4-1.8,2.1c-0.8,0.9-1.9,1.4-3.1,1.6c-1.6,0.2-2.6-0.5-3.1-2
	c-0.1-0.3-0.2-0.7-0.3-1.2c-0.2,0.3-0.4,0.6-0.6,0.9c-1,1.4-2.1,2.7-3.8,3.4c-2.2,0.8-3.6,0.3-4.6-1.7c-0.7,0.7-1.4,1.5-2.2,2.2
	c-0.3,0.3-0.7,0.5-1.1,0.7c-2.3,1-4.5-0.1-4.9-2.6c-0.5-2.8-0.1-5.6,0.5-8.3c0.4-1.9,1.1-3.8,2.2-5.4c0.4-0.6,0.9-1.2,1.4-1.7
	c2.2-2,4.7-1.7,6.4,0.8c0.1-0.3,0.2-0.4,0.2-0.6c0.7-2.8,1.3-5.5,2-8.3c0.1-0.4,0.3-0.7,0.7-0.7c1-0.1,2-0.3,3-0.5
	c-0.4,1.7-0.8,3.3-1.1,4.9c-1.2,5.1-2.4,10.2-3.6,15.3c-0.2,1-0.3,2-0.2,2.9c0,0.8,0.7,1.2,1.4,0.7c0.7-0.4,1.3-1,1.7-1.6
	c2.2-3,3.6-6.4,4.3-10c0.4-1.9,0.9-3.9,1.4-5.8c1.2-0.2,2.3-0.4,3.6-0.6c-0.1,0.3-0.1,0.6-0.2,0.9c-1,4.1-1.9,8.3-2.9,12.4
	c-0.2,0.7-0.2,1.5-0.2,2.2c0,0.9,0.5,1.2,1.2,0.7c0.7-0.4,1.3-1,1.8-1.7c1.4-2,2.3-4.3,2.9-6.8c0.7-2.8,1.3-5.7,2-8.5
	c1.2-0.2,2.3-0.4,3.6-0.6c-0.4,1.6-0.7,3.2-1.1,4.7c-0.6,2.7-1.3,5.4-1.9,8.1c-0.2,1-0.3,2-0.3,3c0,0.9,0.7,1.2,1.4,0.7
	c0.6-0.4,1.2-0.9,1.6-1.5c1.8-2.5,3.2-5.3,3.8-8.4c1-4.8,2.2-9.5,3.3-14.3c0.1-0.2,0.3-0.5,0.5-0.6c1-0.2,2.1-0.3,3.2-0.5
	c-0.7,2.9-1.3,5.6-2,8.6c1-1.1,2-1.9,3.3-2.3c1.7-0.5,3.2,0.2,3.9,1.9c0.6,1.5,0.6,3.2,0.5,4.8c-0.2,2.3-0.7,4.6-1.6,6.8
	c1.2-0.2,2.2-0.8,2.9-1.6c0.8-1,1.4-2.2,2-3.3c0.3-0.5,0.6-0.6,1-0.3c0.4,0.2,1,0.3,0.7,1.1c-1.3,3.4-3.5,5.7-7.3,6.4
	c-0.3,0-0.6,0.3-0.7,0.6c-1.3,1.9-3,3.2-5.3,3.5c-2.4,0.3-4-0.7-4.7-3c-0.1-0.2-0.2-0.5-0.3-0.8c-0.4,0.7-0.8,1.3-1.2,1.9
	c-1,1.4-2.1,2.7-3.7,3.3c-2.2,0.9-3.7,0.2-4.6-2C338.5,316.6,338.4,316.5,338.4,316.5z M316.1,317.7c0.2,1.9,1,2.3,2.2,1.6
	c0.1-0.1,0.3-0.1,0.4-0.2c1.1-0.9,1.9-2,2.3-3.4c0.7-2.3,1.2-4.7,1.7-7.1c0.2-0.8-0.4-1.9-1.1-2.3c-0.6-0.3-1.4-0.2-2.1,0.4
	c-0.3,0.2-0.5,0.5-0.7,0.8C316.7,310.7,316.1,314.4,316.1,317.7z M356,310.9c1-2.1,1.9-6.4,1.8-8.6c-0.1-1.5-1.2-2.2-2.5-1.5
	c-2.1,1.2-2.9,3.1-2.8,5.5C352.6,308.6,353.9,310.2,356,310.9z M355.4,312.8c-1.8-0.7-3-1.7-3.9-3.3c-0.2,1.5-0.4,2.9,0,4.2
	c0.3,1,1.1,1.3,2,0.8C354.1,314,354.6,313.4,355.4,312.8z"/>
<g>
	<path fill="#FFFFFF" d="M272.7,434.3c4.7-5.9,9.5-11.7,14.2-17.6c1.7-2.1,3.5-4.1,5.2-6.2c1.8-2.2,3.4-4.4,5.1-6.6
		c1.4-1.8,2.7-3.6,4.2-5.2c2.2-2.3,4-4.9,6-7.3c0.5-0.6,0.9-1.2,1.2-1.9c0.3-0.6,0.3-1.3-0.5-1.8c-1.2,0.6-2.3,1.5-3,2.7
		c-0.7,1.3-1.7,2.4-2.6,3.6c-4.9,6-9.8,12-14.6,18c-6.7,8.4-13.3,16.8-20,25.2c-3.3,4.2-6.7,8.3-10,12.4c-7.7,9.7-15.5,19.3-23.2,29
		c-9.2,11.6-18.5,23.1-27.7,34.7c-4.3,5.4-8.4,10.9-12.8,16.2c-4.1,4.9-8.1,10-12.1,15c-3.9,4.9-7.9,9.7-11.8,14.5
		c-0.9,1.2-1.9,2.3-2.1,3.9c0.6,0,1.1,0,1.7,0c1.2-1.4,2.4-2.9,3.5-4.3c2.1-2.7,4-5.6,6.3-8.2c3.1-3.5,5.9-7.2,8.8-10.8
		c3.3-4.1,6.5-8.1,9.8-12.2c3.8-4.7,7.5-9.5,11.3-14.2c3.5-4.4,7-8.7,10.4-13.1c3.6-4.6,7.1-9.3,10.9-13.8c3.6-4.3,7-8.7,10.5-13
		c3.7-4.6,7.5-9.3,11.2-13.9c2.7-3.4,5.4-6.8,8.2-10.2C264.7,444.1,268.7,439.2,272.7,434.3z"/>
	<path fill="#FFFFFF" d="M431.8,531.9c-0.6-4.6-1.3-9.1-2-13.7c-0.8-5.4-1.5-10.8-2.3-16.2c-0.9-6.1-1.8-12.2-2.6-18.3
		c-0.7-4.9-1.3-9.9-2-14.8c-0.2-1.1-0.3-2.3-1.3-3.4c0,1.2-1.1,1.6-1.4,2.5c1.1,3.3,1.4,6.7,2,10c0.6,3.7,0.9,7.5,1.6,11.2
		c0.2,1.2,0.2,2.6,1.1,3.7c0.3,0.4,0.4,0.8,0.2,1.3c-0.5,1.3-0.1,2.5,0,3.8c0.2,2.2,1,4.3,1.1,6.5c0,1.9,0.4,3.8,0.6,5.7
		c0.1,0.9,0.5,1.8,0.5,2.7c0,2.5,0.8,4.9,1,7.3c0.2,2.4,0.8,4.7,1.1,7.1c1,8.1,2.3,16.2,3.5,24.3c0.1,0.5,0.3,1.1,0.5,1.6
		c0.5,1.5,1.2,2.9,0.7,4.5c-0.1,0.3,0.1,0.7,0.2,1c0.4,0.8,0.4,1.6,0.4,2.4c-0.1,0.6,0.1,1.1,0.4,1.6c0.4,0,0.8,0,1.1,0
		c-0.4-2.6-0.8-5.1-1.1-7.7C434,547.4,432.9,539.7,431.8,531.9z"/>
	<path fill="#FFFFFF" d="M398.6,17c-0.2,3-0.2,6.1-0.3,9.1c-0.1,5.9-0.4,11.8-0.5,17.7c-0.1,4.7-0.2,9.4-0.2,14.1
		c0,0.6,0,1.1,0.1,1.7c0,0.5,0.3,1,0.8,1c0.6,0.1,0.8-0.4,0.8-0.9c0.2-2.6,0.4-5.1,0.4-7.7c0.1-3.5,0-7,0.1-10.5
		c0.4-10.6,0.5-21.2,0.6-31.8c-0.6,0-1.1,0-1.7,0C398.7,12,398.8,14.5,398.6,17z"/>
	<path fill="#FFFFFF" d="M578.6,44.4c2.4-2.9,4.7-5.8,7-8.7c0.8-1,1.6-2.1,2.4-3.1c2.5-3.1,5.1-6.2,7.6-9.3c3.1-3.9,6-8,9.4-11.8
		c0.5-0.6,0.9-1.2,1-2c-0.6,0-1.1,0-1.7,0c-0.9,1.1-1.8,2.2-2.6,3.3c-1.4,1.9-2.8,3.7-4.1,5.6c-1.7,2.4-4.1,4.3-5.3,7.1
		c-0.1,0.2-0.2,0.3-0.4,0.4c-1.6,1.1-2.5,2.7-3.6,4.2c-0.9,1.2-1.6,2.5-2.7,3.6c-3.3,3.2-5.7,7-8.5,10.7c-0.3,0.4-0.7,0.9-0.4,1.6
		C577.7,45.8,578.1,45,578.6,44.4z"/>
	<path fill="#FFFFFF" d="M504.4,549.4C504.4,549.4,504.4,549.4,504.4,549.4C504.4,549.4,504.4,549.4,504.4,549.4
		C504.4,549.4,504.4,549.4,504.4,549.4z"/>
	<path fill="#FFFFFF" d="M505.8,551.4c-0.3-0.8-0.6-1.5-1.4-2c0.2,0.6,0.2,1.3,0.5,1.8c0.7,1.1,1.1,2.3,1,3.6
		c-0.1,0.8,0.2,1.4,0.5,2.1c0.9,2,1.8,4,2.8,5.9c0.2,0,0.4,0,0.6,0c0.1-1-0.2-2-0.6-3C508,557.1,506.9,554.3,505.8,551.4z"/>
	<path fill="#FFFFFF" d="M504.4,549.4C504.4,549.4,504.4,549.4,504.4,549.4C504.4,549.4,504.4,549.4,504.4,549.4z"/>
	<path fill="#FFFFFF" d="M247.4,12.3c-0.1-0.9-0.5-1.8-0.8-2.7c-0.6,0-1.1,0-1.7,0c0.5,0.9,0.9,1.8,1.4,2.6
		C246.6,12.5,246.9,12.7,247.4,12.3z"/>
	<path fill="#FFFFFF" d="M357.3,562.2c-0.4,0-0.6,0.3-0.8,0.6c0.4,0,0.8,0,1.1,0C357.7,562.6,357.6,562.2,357.3,562.2z"/>
	<path fill="#FFFFFF" d="M309.8,445.7c3.1-6,6.2-12,9.3-18c1-1.9,2.2-3.7,3-5.6c1.4-3,3.1-5.8,4.5-8.8c0.5-1.2,1.3-2.2,2-3.4
		c0.5-0.9,0.6-1.7-0.4-2.6c-1.6,0.5-2.9,1.3-3.5,2.9c-0.3,0.7-0.6,1.3-1,2c-4.3,8.5-8.6,17-13,25.5c-4.7,9.2-9.5,18.5-14.2,27.7
		c-2.6,5.2-5.3,10.4-7.9,15.6c-1.2,2.4-2.3,4.8-3.5,7.2c-2,4-4.1,7.9-6.1,11.8c-1.8,3.5-3.5,6.9-5.4,10.3c-2.6,4.9-5,9.9-7.5,14.9
		c-2.6,5-5.2,10-7.7,15.1c-1.5,3.2-3.3,6.2-4.6,9.5c-0.2,0.5-0.4,1-0.5,1.6c-0.1,0.4,0.2,0.7,0.5,0.9c0.4,0.2,0.8,0.2,1.1-0.1
		c0.4-0.3,0.7-0.6,0.9-1c0.5-0.8,0.9-1.6,1.3-2.5c1.6-4.3,4-8.1,5.9-12.2c2.2-4.6,4.7-9,7-13.5c0.4-0.8,0.7-1.7,1.1-2.5
		c0.8-1.7,1.4-3.5,2.4-5c0.9-1.4,1.6-2.7,1.5-4.2c0.6-0.6,1.1-1,1.5-1.5c0.4-0.5,0.7-1.1,0.9-1.7c0.5-1,1.1-2,1.5-3
		c1.2-3,3.2-5.6,4.5-8.6c0.9-2.1,2.2-4,3.2-6.2c0.9-2,1.6-4.2,2.9-6c2.8-4.1,4.4-8.7,6.9-13c1.6-2.7,2.8-5.6,4.3-8.4
		c1.2-2.3,2.6-4.5,3.6-6.9C306.1,452.7,308,449.2,309.8,445.7z"/>
	<path fill="#FFFFFF" d="M138.8,277.5c5.1,0.1,10.2,0.2,15.3,0.3c7.5,0.1,15,0.1,22.5,0.1c10.4,0,20.9,0.2,31.3,0.1
		c10.4-0.1,20.9,0.1,31.3,0.1c4.8,0,9.7,0,14.5,0c4.1,0,8.2-0.1,12.2,0c4.9,0.1,9.9,0.2,14.8,0.1c0.7,0,1.3-0.1,2-0.2
		c0.5-0.1,0.8-0.4,0.8-1c0-0.5,0-0.9-0.4-1.2c-3,0-6.1,0-9.1,0c-3.3,0-6.6,0.1-9.9,0.1c-4-0.1-8-0.4-11.9-0.1
		c-2.6,0.2-5.3,0.1-8,0.1c-2.7,0-5.3-0.1-8-0.1c-2.2,0-4.4,0.1-6.5,0.1c-2.4,0-4.7-0.1-7.1-0.1c-3.5,0-7,0-10.5,0
		c-3.6,0-7.2-0.1-10.8,0c-5.2,0.1-10.4,0.3-15.6,0.1c-5.5-0.2-11-0.2-16.5-0.2c-5.4,0-10.8,0-16.2,0.1c-2.7,0-5.5,0-8.2,0
		c-2.8,0-5.7-0.1-8.5,0c-6.2,0.2-12.3,0.1-18.5,0.1c-5.4-0.1-10.8,0-16.2,0c-4,0-8,0-11.9,0c-2.3,0-4.6,0-6.8,0
		c-0.9,0-1.6,0.2-2.3,0.8c-0.8,0.6-1.8-0.7-3,0.6c1.2,0,1.9,0,2.5,0c4.6,0,9.3,0.1,13.9,0.1c4.5,0.1,8.9,0.2,13.4,0.2
		c6.3,0,12.5-0.1,18.8-0.1C130.3,277.4,134.5,277.4,138.8,277.5z"/>
	<path fill="#FFFFFF" d="M126.6,410.8c-8.3,4.2-16.5,8.7-25.2,12.1c-0.7,0.3-1.3,0.8-1.8,1.4c-0.4,0.5-0.1,1.4,0.6,1.5
		c0.7,0.2,1.3-0.1,1.9-0.3c4.2-2,8.5-4,12.7-6.2c5.4-2.7,10.7-5.5,16.1-8.3c5.3-2.8,10.7-5.5,16.2-8.1c1.3-0.6,2.5-1.3,3.8-2
		c5.7-2.9,11.5-5.7,17.1-8.7c3.4-1.8,6.9-3.5,10.3-5.3c2.1-1.1,4.3-2,6.4-3c0.8-0.4,1.5-0.7,2.2-1.2c3.1-2,6.5-3.3,9.8-5
		c1.5-0.8,3.1-1.3,4.6-2.1c2.9-1.7,5.9-3.3,9-4.7c3.2-1.5,6.4-3.2,9.5-4.9c1.3-0.7,2.6-1.5,4-2c3.4-1.4,6.6-3.3,9.9-4.8
		c3.9-1.8,7.7-3.9,11.5-5.9c2.1-1.1,4.4-1.7,6.2-3.3c0.3-0.2,0.7-0.4,1-0.5c2.1-0.5,3.9-1.8,5.9-2.7c6.6-3.2,13.2-6.5,19.8-9.7
		c1.4-0.7,2.9-1.4,4.3-2.2c0.9-0.4,1.5-1,1.5-2c-0.5-0.4-1-0.2-1.4,0c-2.7,1.3-5.5,2.5-8.2,3.9c-11.7,5.9-23.4,11.8-35.1,17.6
		c-7.8,3.9-15.7,7.8-23.5,11.8c-10.2,5.1-20.4,10.2-30.6,15.3c-7.6,3.8-15.2,7.6-22.8,11.4c-4.8,2.4-9.6,4.8-14.4,7.2
		C140.8,403.7,133.7,407.3,126.6,410.8z"/>
	<path fill="#FFFFFF" d="M232.9,50.4c4.4,6.2,8.8,12.4,13.2,18.7c3.7,5.3,7.4,10.7,11.1,16.1c4.2,6.1,8.8,12,12.9,18.2
		c3,4.6,6.3,9,9.4,13.5c6.3,9,12.6,18,18.9,27c4.6,6.6,9.2,13.1,13.8,19.6c2.9,4.1,5.7,8.2,8.6,12.4c0.4,0.6,0.9,1.2,1.4,1.7
		c0.3,0.3,0.8,0.5,1.3,0.2c0.4-0.3,0.6-0.7,0.5-1.2c-0.2-0.9-0.7-1.7-1.3-2.4c-1.7-2.3-3.4-4.7-5-7c-1.4-2-2.7-4-4-6
		c-2.7-3.8-5.6-7.4-8.1-11.3c-2.2-3.4-4.9-6.6-7-10c-0.2-0.3-0.4-0.6-0.6-0.9c-2.7-3.7-5.5-7.5-8.2-11.2c-4-5.5-7.8-11.1-11.8-16.6
		c-2-2.9-4.2-5.7-6.2-8.6c-1.2-1.7-2.4-3.3-3.7-4.9c-0.5-0.6-1.1-1.1-1.3-1.8c-0.9-2.1-2.4-3.8-3.7-5.6c-0.5-0.7-1-1.3-1.5-2
		c-1.5-2.3-2.9-4.5-4.7-6.5c-0.7-0.7-1.2-1.6-1.8-2.5c-2-2.9-3.8-5.9-6.3-8.5c-0.5-0.5-0.9-1.2-1.3-1.8c-2.3-3.5-4.3-7.1-7.2-10.3
		c-0.4-0.5-0.7-1.1-1-1.6c-1.2-2-2.3-4-3.7-5.9c-1.3-1.7-2.5-3.5-3.6-5.3c-0.2-0.3-0.4-0.7-0.6-0.9c-0.6-0.5-1.3-0.7-2,0
		c0.1,0.3,0.1,0.5,0.2,0.8C230.6,47.3,231.8,48.9,232.9,50.4z"/>
	<path fill="#FFFFFF" d="M328.9,32c1.5,5.5,3,11,4.5,16.6c1.9,7,3.6,14.1,5.5,21.2c2.2,8.4,4.5,16.8,6.7,25.2
		c2.1,7.9,4.1,15.9,6.2,23.8c1.8,7.1,3.7,14.1,5.5,21.2c0.7,2.8,1.4,5.5,2.1,8.3c0.2,0.7,0.4,1.4,0.9,2c0.3,0.3,0.6,0.4,1,0.3
		c0.4-0.1,0.7-0.3,0.7-0.7c0-0.5,0-0.9-0.1-1.4c-1.2-5-2.3-10.1-3.8-15c-1.8-6.1-3.1-12.3-4.9-18.4c-1.5-4.9-2.5-9.8-3.8-14.7
		c-1.2-4.6-2.5-9.2-3.8-13.9c-0.6-2.3-1.5-4.6-2-6.9c-1.1-5.7-3.1-11.2-4.6-16.8c-0.7-2.4-1.4-4.8-1.9-7.2c-0.8-3.7-2.3-7.2-2.7-11
		c0-0.1-0.1-0.2-0.1-0.3c-0.8-2.8-1.6-5.5-2.2-8.3c-0.5-2.2-1.4-4.2-1.8-6.4c-0.9-4-2.2-7.8-2.6-11.9c-0.2-1.7-1.2-2.6-2.8-3
		c-0.7,0.6-0.3,1.3-0.1,1.8C326.1,21.7,327.5,26.9,328.9,32z"/>
	<path fill="#FFFFFF" d="M459.9,163c1-1.5,1.9-2.9,2.8-4.5c2.6-4.6,5.2-9.2,7.9-13.8c3-5.2,6-10.4,9-15.7
		c4.1-7.1,8.2-14.1,12.2-21.2c4.8-8.5,9.4-17,14.4-25.4c5.2-8.7,10-17.6,15-26.3c2.6-4.6,5-9.3,7.8-13.8c4.2-6.7,8-13.6,12.1-20.3
		c0.4-0.6,0.6-1.4,0.6-2.1c0-0.2-0.2-0.5-0.4-0.7c-0.2-0.2-0.6-0.1-0.8,0.1c-0.3,0.2-0.5,0.5-0.7,0.8c-0.9,1.5-1.8,3-2.7,4.5
		c-2.8,4.8-5.5,9.7-8.3,14.5c-3.9,6.5-7.7,13.1-11.3,19.8c-3,5.5-6,11.1-9.2,16.5c-2.4,4-4.4,8.2-6.8,12.1
		c-3.4,5.5-6.5,11.3-9.7,16.9c-1.8,3.1-3.6,6.3-5.4,9.4c-1.2,2-2.3,4-3.5,6c-2.7,4.7-5.5,9.5-8.2,14.2c-2.1,3.8-4,7.7-6.3,11.4
		c-3.5,5.7-6.6,11.6-10.1,17.3c-0.1,0.2-0.2,0.5-0.3,0.9C459.1,164.1,459.5,163.5,459.9,163z"/>
	<path fill="#FFFFFF" d="M178.4,426.4c2.8-2,5.4-4.4,8.6-5.9c0.3-0.2,0.6-0.4,0.9-0.6c3.7-2.6,7.4-5.2,11.1-7.7
		c3.2-2.1,6.1-4.7,9.4-6.7c3.5-2.2,6.9-4.5,10.3-6.8c3-2,6.1-4.1,9.1-6.2c0.6-0.4,1.2-0.9,1.7-1.5c0.2-0.2,0.1-0.5,0.2-0.6
		c-0.1-0.5-0.4-0.6-0.7-0.5c-0.4,0.1-0.7,0.3-1,0.5c-4.8,3.1-9.6,6.2-14.3,9.5c-1.9,1.4-3.7,2.9-5.7,4.1c-3.4,2.2-6.5,4.8-10.1,6.7
		c-0.7,0.4-1.4,0.9-2.1,1.4c-3.9,2.6-7.7,5.3-11.6,7.9c-2.9,2-5.9,4-8.8,6.1c-2.6,1.8-5.3,3.6-7.9,5.4c-2.7,1.9-5.7,3.3-8.1,5.6
		c-0.3,0.3-0.6,0.4-0.9,0.6c-2.6,1.7-5.1,3.5-7.7,5.3c-3.3,2.3-6.5,4.8-9.8,7.1c-3.9,2.7-7.9,5.4-11.9,8c-0.7,0.5-1.5,0.8-2.2,1.3
		c-2,1.7-4.2,3.1-6.4,4.6c-1.9,1.2-3.9,2.4-5.7,3.7c-3.6,2.7-7.4,5.1-11.2,7.6c-1.4,0.9-2.8,1.8-4.3,2.7c-0.7,0.5-1.2,1.1-1.6,1.9
		c-0.2,0.3-0.2,0.7,0.1,1c0.3,0.3,0.7,0.2,1.1,0.1c0.5-0.3,1-0.6,1.4-0.9c0.7-0.6,1.4-1.2,2.2-1.8c3.8-2.9,7.9-5.4,11.8-8.2
		c4.9-3.6,10-6.9,15.2-10.2c4.4-2.8,8.7-5.8,13.1-8.7c0.4-0.3,0.7-0.6,1.1-0.9c2.8-2,5.6-4.1,8.5-6c3.8-2.6,7.7-5,11.5-7.6
		c3.8-2.6,7.5-5.3,11.3-8C176,427.9,177.2,427.2,178.4,426.4z"/>
	<path fill="#FFFFFF" d="M613.4,279.1c5.6-0.1,11.2,0,16.8,0.3c2.7,0.1,5.5,0.2,8.2,0.3c1.9,0,2.3-0.4,2.2-2.8
		c-1.7,0.3-3.2,0.7-4.7,0.6c-1.6-0.1-3.2,0-4.8,0c-6.4,0-12.9-0.1-19.3-0.1c-5.9,0-11.8,0-17.6,0c-8.1,0-16.1,0-24.2-0.3
		c-0.5,0-0.9,0-1.4,0c-2.9,0.1-5.9,0.2-8.8,0.2c-5.2,0-10.4-0.1-15.6-0.2c-7.1-0.1-14.2-0.1-21.3-0.2c-5.7-0.1-11.4-0.1-17.1-0.1
		c-1.4,0-2.8,0-4.3,0.1c-1.3,0-2.3,0.4-3.1,1.7c1.1,0.7,2.2,0.7,3.4,0.7c2.8,0,5.7-0.1,8.5-0.1c2.4,0,4.7,0,7.1,0
		c3.7,0,7.4-0.1,11.1-0.1c6.8,0,13.6,0,20.5,0.1c0.9,0,1.9,0.1,2.8,0.1c1.3,0,2.7,0.1,4,0.1c3.5-0.1,7-0.2,10.5-0.2
		c9.9,0,19.7,0.1,29.6,0.1C601.7,279.1,607.5,279.2,613.4,279.1z"/>
	<path fill="#FFFFFF" d="M459.6,527.2c-1.4-5.3-2.7-10.5-4.1-15.8c-0.5-2-1.1-3.9-1.6-5.9c-1.1-4.4-2.1-8.8-3.3-13.2
		c-1.1-4.3-2.3-8.5-3.4-12.8c-1.9-7.4-3.8-14.8-5.7-22.3c-1.4-5.4-3-10.7-4.2-16c-1.2-5.2-2.7-10.3-4-15.5c-1.3-5.3-2.9-10.5-4-15.8
		c-0.2-0.8-0.5-1.4-1.4-1.7c-0.5,0.3-1.1,0.5-1.5,1.3c1.1,4,2.3,7.9,3.3,11.8c0.8,2.8,1.5,5.7,2.3,8.6c0.9,3.2,1.9,6.3,2.8,9.5
		c1.2,4.4,2.3,8.7,3.4,13.1c0.8,3.1,1.8,6.2,2.6,9.3c1,3.8,1.9,7.7,2.9,11.5c1.4,5.4,2.9,10.9,4.4,16.3c0.7,2.5,1.2,5,1.9,7.5
		c0.9,3.7,1.9,7.3,2.8,11c0.6,2.2,1,4.5,1.9,6.6c0.7,1.6,1,3.1,1.1,4.8c0,0.5,0.2,1.1,0.3,1.6c0.6,1.9,1,3.9,2,5.7
		c0.2,0.4,0.5,0.9,0.4,1.3c-0.4,1.4,0.2,2.7,0.6,4.1c0.5,2,0.9,4.1,2.2,5.9c0.4,0.6,0.3,1.2,0.3,1.9c0.1,1.4,0.1,2.8,0.4,4.1
		c0.2,1.1,0.7,1.2,2.2,0.8c0-0.4,0-0.9-0.2-1.3C462.5,538,461,532.6,459.6,527.2z"/>
	<path fill="#FFFFFF" d="M103.5,153.2c1.9,0.8,3.9,1.4,5.8,2.2c4.5,1.9,9,3.9,13.5,5.8c6,2.6,12.1,4.9,17.9,7.7c2,0.9,4,1.8,6,2.6
		c3.6,1.6,7.3,3.1,10.9,4.6c3.2,1.3,6.5,2.6,9.7,4c3.5,1.5,7,3.2,10.5,4.8c4.1,1.8,8.1,3.5,12.2,5.3c2.7,1.2,5.4,2.3,8,3.5
		c3.6,1.5,7.3,3,11,4.6c4.4,1.9,8.8,3.9,13.2,5.8c6.9,3,13.9,6,20.8,9c3.4,1.5,6.8,2.9,10.1,4.4c0.7,0.3,1.4,0.6,2.1,0.7
		c0.6,0.1,1.1,0,1.3-1.1c-0.7-0.4-1.3-0.8-2-1.1c-1.9-0.9-3.8-1.7-5.7-2.6c-11.7-5-23.4-10-35.1-15c-7.9-3.4-15.8-6.7-23.7-10
		c-9-3.8-17.9-7.5-26.9-11.3c-4.3-1.8-8.7-3.7-13-5.6c-4.8-2.1-9.7-4.3-14.5-6.3c-2.9-1.2-5.8-2.3-8.6-3.6
		c-7.8-3.5-15.7-6.9-23.6-10.4c-0.5-0.2-1-0.4-1.6-0.6c-0.4-0.1-0.8,0-0.9,0.4c0,0.2,0.1,0.6,0.2,0.7
		C101.9,152.7,102.7,152.9,103.5,153.2z"/>
	<path fill="#FFFFFF" d="M715.1,378.3c-1-0.4-1.9-0.8-2.9-1.1c-2.1-0.6-4.2-1.2-6.2-1.9c-3.6-1.1-7.2-2.3-10.8-3.4
		c-5.8-1.8-11.5-3.7-17.3-5.5c-5.8-1.8-11.5-3.6-17.3-5.5c-4.1-1.3-8.3-2.6-12.4-3.9c-3.2-1-6.5-2.1-9.7-3.1
		c-3.3-1.1-6.7-2.1-10-3.1c-0.8-0.3-1.6-0.5-2.4-0.8c-3.1-1-6.2-1.8-9.2-2.9c-3.3-1.1-6.6-2.3-10-3.1c-0.5-0.1-1.1-0.3-1.6-0.5
		c-3.3-1.4-6.8-2.3-10.2-3.4c-4.3-1.4-8.7-2.5-13-4.1c-5.3-1.9-10.8-3.5-16.1-5.4c-0.6-0.2-1.3-0.4-1.9-0.5
		c-0.5-0.1-0.9,0.1-1.1,0.7c0.1,0.7,0.7,0.8,1.2,1c1.4,0.5,2.9,0.9,4.3,1.4c5.2,1.7,10.5,2.9,15.7,4.8c3.3,1.3,6.8,2.2,10.2,3.4
		c1.7,0.6,3.4,1.2,5.1,1.8c2.9,0.9,5.8,1.7,8.7,2.7c3.8,1.2,7.5,2.5,11.3,3.7c5.8,1.8,11.5,3.6,17.3,5.5c1.4,0.5,2.9,0.9,4.3,1.4
		c3.5,1.2,7,2.4,10.5,3.5c4.8,1.5,9.5,3,14.3,4.6c5.3,1.7,10.6,3.4,15.9,5.1c5.8,1.9,11.5,3.8,17.2,5.6c4.6,1.5,9.2,3,13.7,4.5
		c1.1,0.4,2.2,0.4,3.2-0.2C715.9,378.8,715.5,378.4,715.1,378.3z"/>
	<path fill="#FFFFFF" d="M417.8,155.2c1.2-0.5,1.4-0.6,1.6-1.3c0.3-1.1,0.6-2.1,0.8-3.2c1.3-6.1,2.5-12.3,3.8-18.4
		c1.2-6.1,2.5-12.3,3.7-18.4c1.4-7.2,2.8-14.5,4.2-21.7c1.2-6.2,2.5-12.5,3.8-18.7c1-5.2,2-10.3,3-15.5c0.9-4.6,1.7-9.2,2.7-13.9
		c1.3-6.5,2.2-13.1,3.8-19.6c0.1-0.4,0.2-0.9,0.3-1.4c0.1-0.9,0.5-1.9-0.6-2.5c-0.5-0.3-1.1,0.5-1.4,2c0,0.2,0,0.4-0.1,0.5
		c-1.3,7.2-2.5,14.3-3.9,21.5c-0.8,4.4-1.6,8.8-2.7,13.2c-0.1,0.5-0.2,1.1-0.3,1.6c-0.5,3.2-1,6.4-2,9.5c-0.2,0.6-0.3,1.3-0.4,1.9
		c0,1.4-0.3,2.7-0.6,4.1c-0.7,3.2-1.5,6.5-2.1,9.7c-0.6,3.8-1.4,7.6-2.4,11.3c-0.2,0.6-0.2,1.3-0.2,1.9c-0.1,0.6,0,1.3-0.2,1.9
		c-1.7,5.4-2.1,11-3.4,16.5c-0.5,2.1-0.7,4.2-1.1,6.3c-1.2,5.9-2.6,11.7-3.7,17.6c-0.6,3.5-1,7.1-2.2,10.5c-0.4,1-0.5,2.2-0.7,3.2
		C417.4,154.4,417.3,154.8,417.8,155.2z"/>
	<path fill="#FFFFFF" d="M601.7,143.3c-11.4,7.3-22.7,14.7-34.1,22.1c-8.6,5.5-17.3,11-25.9,16.5c-8.2,5.2-16.4,10.4-24.5,15.6
		c-1.9,1.2-3.7,2.6-5.5,3.9c-0.3,0.2-0.5,0.6-0.2,1c0.2,0.3,0.6,0.3,1,0.3c0.1,0,0.2,0,0.3-0.1c2-1.1,4-2,6-3.2
		c3.4-2.1,6.8-4.4,10.2-6.5c1.7-1.1,3.5-2.1,5.3-3.2c3.1-2,6-4.1,9.2-6c4-2.4,8-5,11.9-7.5c6.3-4.1,12.7-8.1,19-12.1
		c3.1-2,6.2-3.9,9.2-6c1.9-1.3,4.1-2,5.8-3.5c0.7-0.6,1.6-1,2.3-1.6c3.5-2.4,7.2-4.4,10.9-6.6c0.5-0.3,1-0.6,1.4-1
		c1-0.9,1.3-1.9,0.7-3.2C603.3,142.1,602.5,142.8,601.7,143.3z"/>
	<path fill="#FFFFFF" d="M138.3,333.9c4.2-0.9,8.3-1.8,12.5-2.7c11.5-2.4,23-4.8,34.5-7.3c7.1-1.5,14.2-3.1,21.4-4.7
		c6.9-1.5,13.9-3,20.8-4.4c12.3-2.6,24.6-5.2,37-7.8c6.1-1.3,12.2-2.5,18.4-3.8c0.7-0.2,1.5-0.3,2.2-0.6c0.3-0.1,0.7-0.4,0.5-0.8
		c-0.2-0.4-0.6-0.5-0.9-0.3c-0.8,0.4-1.7,0.6-2.6,0.9c-2.3,0.5-4.7,0.4-6.9,1.3c-0.3,0.1-0.6,0.1-0.8,0.1c-1.8,0-3.6,0.5-5.3,1.1
		c-1.8,0.6-3.7,0.9-5.5,1.2c-1.9,0.3-3.8,0.3-5.6,1c-1.3,0.6-2.7,1-4.1,0.9c-0.5,0-1,0.1-1.4,0.2c-4.8,1.2-9.6,2-14.3,3.4
		c-0.4,0.1-0.9,0.1-1.4,0.2c-0.7,0.1-1.5,0.1-2.2,0.3c-3.7,0.7-7.4,1.5-11.1,2.3c-5.2,1.1-10.4,2.1-15.6,3.2c-9.3,2-18.5,4-27.8,5.9
		c-5.6,1.2-11.3,2.2-17,3.4c-6.8,1.4-13.5,2.7-20.3,4.1c-1.5,0.3-3,0.7-4.4,1c-1.1,0.2-1.9,0.7-2.4,1.9
		C136.7,334.5,137.5,334.1,138.3,333.9z"/>
	<path fill="#FFFFFF" d="M613.6,107.1c-6.6,5.1-13.1,10.4-19.6,15.5c-3.5,2.7-7,5.3-10.5,8c-1.6,1.2-3.1,2.4-4.6,3.6
		c-1.6,1.3-3.2,2.5-4.9,3.7c-3.5,2.4-6.8,5-10.1,7.6c-2.1,1.7-4.2,3.4-6.3,5.1c-3,2.3-6,4.5-9,6.7c-0.6,0.4-1.3,0.8-1.3,1.7
		c0.6,0.6,1.2,0.3,1.8-0.1c1.4-1,2.9-2.1,4.3-3.2c5.2-4.1,10.3-8.2,15.4-12.2c4.7-3.6,9.3-7.2,14.1-10.7c2-1.5,3.9-3,5.8-4.5
		c4.3-3.4,8.6-6.6,13-9.9c4.5-3.5,9-7.1,13.5-10.6c5.9-4.5,11.8-9,17.7-13.4c6.1-4.6,12.3-9.3,18.4-13.9c0.6-0.5,1.2-0.9,1.6-1.5
		c0.2-0.4,0.3-0.9-0.2-1.3c-1.1,0.1-1.8,0.8-2.6,1.4c-4.7,3.6-9.4,7.2-14.1,10.7c-0.9,0.7-1.8,1.4-2.7,2.1c-2.3,1.8-4.6,3.6-6.9,5.4
		C622.2,100.7,617.9,103.8,613.6,107.1z"/>
	<path fill="#FFFFFF" d="M545.8,129c-3.9,3.7-7.7,7.3-11.6,11c-0.9,0.8-1.7,1.7-2.5,2.7c-0.3,0.3-0.6,0.7-0.3,1.3
		c0.8,0.3,1.4-0.2,1.9-0.7c2.3-2.1,4.6-4.1,6.8-6.3c7.2-7,14.3-14,21.4-21c6.8-6.6,13.6-13.1,20.3-19.7c4.2-4.1,8.4-8.3,12.6-12.4
		c4-3.9,8.2-7.7,12.3-11.5c7.4-7,14.6-14.3,22.2-21.1c0.3-0.3,0.7-0.7,0.9-1c0.2-0.3,0.3-0.7-0.1-1c-0.3-0.3-0.7-0.3-1.1-0.1
		c-0.7,0.5-1.3,1.1-1.9,1.6c-2.5,2.4-4.9,4.8-7.4,7.2c-4.4,4.3-8.9,8.6-13.3,12.9c-1.3,1.2-2.4,2.6-3.7,3.8
		c-2.9,2.7-5.9,5.2-8.7,7.9c-5,4.8-9.9,9.6-14.9,14.5c-4.6,4.5-9.2,9-13.9,13.5C558.6,116.6,552.3,122.8,545.8,129z"/>
	<path fill="#FFFFFF" d="M285.8,315.3c-0.7,0.2-1.5,0.4-2.2,0.7c-3.6,1.2-7.2,2.4-10.7,3.6c-4.6,1.6-9.1,3.1-13.7,4.7
		c-4.1,1.4-8.2,2.9-12.3,4.3c-7.8,2.7-15.6,5.3-23.4,7.9c-7.7,2.6-15.4,5.2-23.1,7.8c-4.5,1.5-9,3-13.4,4.6c-1.1,0.4-2.3,0.8-3,1.8
		c0.1,0.5,0.4,0.7,0.8,0.8c0.8,0.1,1.5-0.1,2.2-0.3c3.9-1.2,7.5-3,11.4-4.1c3.4-0.9,6.6-2.3,9.9-3.4c3.6-1.2,7.2-2.4,10.7-3.6
		c3.5-1.2,6.9-2.5,10.4-3.7c5-1.7,10-3.4,15-5.2c2.7-1,5.6-1.7,8.2-3.2c0.6-0.4,1.4-0.6,2.2-0.7c1.8-0.3,3.5-0.9,5.2-1.5
		c1.3-0.5,2.6-1.1,4-1.4c7-2,13.8-4.7,20.7-6.9c0.5-0.2,1.1-0.4,1.6-0.6c0.4-0.2,0.7-0.6,0.6-1.1
		C286.8,315.1,286.3,315.1,285.8,315.3z"/>
	<path fill="#FFFFFF" d="M45.2,201c0.7,0.3,1.4,0.4,2.2,0.6c4.8,0.9,9.7,1.7,14.5,2.8c5.2,1.1,10.4,2.1,15.5,3.5
		c1.1,0.3,2.2,0.5,3.3,0.7c3.5,0.7,7.1,1.2,10.6,2.2c4.3,1.1,8.7,1.9,13,2.8c4.1,0.9,8.4,1.6,12.5,2.6c6.4,1.6,12.9,2.9,19.4,4.2
		c6.1,1.3,12.2,2.7,18.3,4.1c4.1,0.9,8.1,1.7,12.2,2.6c0.6,0.1,1.3,0.4,2,0.1c0.2-0.1,0.5-0.3,0.5-0.5c0-0.2-0.2-0.6-0.4-0.7
		c-0.6-0.3-1.2-0.5-1.9-0.7c-3.1-0.7-6.3-1.5-9.4-2.1c-15.9-3.3-31.9-6.6-47.8-10c-2.5-0.5-5-1-7.5-1.5c-3.8-0.7-7.6-1.4-11.4-2.2
		c-3.6-0.8-7.2-1.6-10.8-2.4c-4.1-0.9-8.1-1.7-12.2-2.7c-7.1-1.7-14.3-2.9-21.3-4.9c-0.7-0.2-1.5-0.4-2.2,0.2
		C44.3,200.4,44.6,200.8,45.2,201z"/>
	<path fill="#FFFFFF" d="M395.6,389.2c-0.5-0.1-0.9,0.5-1,1.5c0,0.4,0,0.7-0.1,1.1c-0.1,6.2-0.2,12.3-0.2,18.5
		c0,5.1,0.1,10.1,0,15.2c-0.2,9,0,18.1-0.6,27.1c-0.1,1.8,0,3.7,0,5.5c0,2.1,0.2,4.2,0.9,6.3c0.2,0.6,0.3,1.3,1.6,1.3
		c0.1-2.3,0.3-4.5,0.3-6.7c0.1-4,0-7.9,0-11.9c0-4.2,0.2-8.5,0-12.7c-0.1-3.3-0.1-6.6,0-9.9c0.1-3,0.1-6.1,0.1-9.1
		c0-7.4,0.1-14.7,0.1-22.1c0-0.8,0-1.7-0.2-2.5C396.5,390.1,396.5,389.3,395.6,389.2z"/>
	<path fill="#FFFFFF" d="M216,235.9c-8.5-1.8-17-3.7-25.5-5.5c-0.7-0.2-1.5-0.3-2.1-0.4c-0.6,0.1-1.1,0-1.4,0.5
		c-0.2,0.4,0.2,1.1,0.8,1.3c0.6,0.2,1.3,0.4,1.9,0.5c0.7,0.2,1.5,0.2,2.2,0.3c3.8,0.8,7.6,1.7,11.4,2.5c11.3,2.3,22.6,4.6,33.9,7
		c3.4,0.7,6.8,1.5,10.2,2.3c3.5,0.8,7,1.7,10.5,2.5c4.7,1.1,9.4,2.1,14.1,3.1c0.4,0.1,0.7,0.1,1.1,0.1c0.4,0,0.7-0.2,0.9-0.6
		c0.2-0.4,0.1-0.7-0.2-1c-0.5-0.5-1.1-0.7-1.7-0.9c-1.4-0.3-2.8-0.7-4.1-0.9c-7.7-1.6-15.4-3.1-23.1-4.7
		C235.3,240,225.6,237.9,216,235.9z"/>
	<path fill="#FFFFFF" d="M160.2,250.9c-0.7,0-1.3,0.5-1.2,0.9c0.1,0.5,0.5,0.8,1,0.9c0.4,0.1,0.7,0.1,1.1,0.2
		c2.9,0.3,5.8,0.6,8.8,0.9c4,0.4,8.1,0.9,12.1,1.4c3.4,0.4,6.8,0.6,10.2,1c5.7,0.7,11.5,1.1,17.2,2c5.1,0.7,10.3,1.1,15.5,1.7
		c3.7,0.4,7.3,0.8,11,1.2c4.5,0.5,9,1.1,14,1.7c0.4,0,1.2,0,2.1,0c0.4,0,0.7-0.3,0.8-0.7c0.1-0.4-0.1-0.7-0.5-0.9
		c-1-0.4-2-0.6-3-0.7c-5.7-0.6-11.3-1.1-17-1.7c-4.7-0.5-9.4-0.8-14.1-1.3c-7.7-0.8-15.4-1.7-23.2-2.6c-11-1.2-22.1-2.3-33-3.8
		C161.4,250.9,160.8,250.9,160.2,250.9z"/>
	<path fill="#FFFFFF" d="M364.3,42c0.9,5,1.1,10.1,1.9,15.1c0.4,2.5,0.5,4.9,0.8,7.4c1,7.8,1.8,15.5,2.7,23.3
		c0.3,2.8,0.8,5.7,1.2,8.5c0.1,0.5,0.2,1.1,0.5,1.5c0.3,0.3,1,0.3,1.2,0c0.1-0.2,0.3-0.5,0.3-0.7c0.1-1.7,0.3-3.5-0.1-5.2
		c-0.4-1.4-0.4-2.9-0.6-4.4c-0.5-3.3-0.9-6.6-1.5-9.8c-0.5-2.7-0.7-5.5-1-8.2c-0.3-2.6-0.4-5.1-0.8-7.7c-0.4-2.5-0.7-4.9-1.1-7.4
		c-0.6-4.3-1.3-8.5-1.7-12.8c-0.1-1-0.4-2-0.5-3c-0.2-2.8-0.3-5.7-0.7-8.5c-0.2-1.5-0.2-3.1-0.3-4.7c-0.8-0.3-1.4-0.7-2.5-0.4
		c0,0.4-0.1,0.6-0.1,0.9c0.3,2.5,0.6,4.9,1,7.4C363.4,36.2,363.7,39.1,364.3,42z"/>
	<path fill="#FFFFFF" d="M323.1,493.4c-0.5-0.2-0.9,0-1.3,0.3c-1,0.8-1.4,1.9-1.8,3.1c-1.4,4.5-2.8,9-4.3,13.5
		c-2.3,7-4.6,14-6.9,21.1c-2,6.2-3.9,12.5-5.9,18.8c-0.3,0.9-0.7,1.7-0.6,2.9c1.2,0.2,2-0.1,2.4-1.1c0.3-0.7,0.5-1.4,0.7-2.1
		c2.1-6.5,4.2-13,6.3-19.5c0.6-2,1.3-4,2-6c1.4-4,2.9-8,4.1-12c1.6-5.1,3.5-10.1,5.2-15.2c0.3-0.9,0.6-1.7,0.5-2.7
		C323.5,493.9,323.5,493.6,323.1,493.4z"/>
	<path fill="#FFFFFF" d="M668.7,501.5c-2.8-2.2-5.8-4.1-8.5-6.5c-1.4-1.2-2.9-2.3-4.4-3.5c-2.1-1.7-4.1-3.5-6.3-5.1
		c-1.7-1.2-3.1-2.7-4.8-3.8c-1.8-1.2-3.1-2.9-5.2-3.8c-0.2-0.1-0.3-0.2-0.4-0.4c-0.8-1.3-2.1-2.1-3.4-2.9c-0.8-0.5-1.4-1.2-2.2-1.8
		c-2.1-1.7-4.1-3.5-6.2-5.2c-0.7-0.6-1.6-1-2.3-1.6c-3.7-3.1-7.4-6.3-11.1-9.4c-3.1-2.5-5.9-5.2-9.3-7.3c-0.8-0.5-1.6-0.9-2.8-1
		c-0.1,1.2,0.6,1.7,1.3,2.2c4.6,3.6,9,7.3,13.7,10.8c5.1,3.8,9.9,8,14.9,12c4.3,3.5,8.6,6.9,12.9,10.4c7.7,6.4,15.5,12.8,23.2,19.1
		c0.7,0.6,1.4,1.2,2.4,1.3c0.6,0.1,1.2,0.1,1.4-0.7C671.1,503.1,669.8,502.4,668.7,501.5z"/>
	<path fill="#FFFFFF" d="M130.4,303.7c8.1-0.8,16.2-1.8,24.3-2.6c6.7-0.7,13.4-1.2,20.1-1.9c7.4-0.7,14.7-1.4,22.1-2.1
		c4.6-0.4,9.3-0.8,13.9-1.2c0.8-0.1,1.5-0.1,2.2-0.5c0.2-0.1,0.4-0.4,0.4-0.7c0-0.4-0.3-0.7-0.7-0.7c-1.2,0-2.5,0-3.7,0.1
		c-6.5,0.7-13,1.4-19.5,2.1c-8,0.8-16,1.5-24.1,2.2c-4.7,0.4-9.4,0.9-14.2,1.4c-4.1,0.4-8.3,0.9-12.4,1.2c-2.4,0.2-4.7,0.2-7.1,0.4
		c-1,0.1-2.1,0.2-3.1,0.4c-0.9,0.2-1.8,0.5-2.5,1.7C127.7,304.2,129.1,303.9,130.4,303.7z"/>
	<path fill="#FFFFFF" d="M380.2,149.4c0-0.5-0.2-0.9-0.2-1.4c-0.4-3-1-6-1.3-9c-0.5-5.7-1.5-11.3-2.3-17c-0.3-1.8-0.4-3.7-0.6-5.5
		c0-0.5,0-0.9-0.1-1.4c-0.1-0.6-0.5-1-1.1-1.1c-0.5-0.1-0.9-0.2-1.4,0.2c-0.4,0.6-0.1,1.2-0.1,1.9c0.1,1.4,0.3,2.7,0.5,4.1
		c0.7,5.7,1.4,11.3,2,17c0.6,5.2,1.3,10.4,1.8,15.6c0.3,3.9,0.9,7.7,1.4,11.5c0,0.4,0.2,0.9,0.4,1.3c0.3,0.7,0.9,1,1.6,0.9
		c0.7-0.1,1.2-0.6,1.2-1.3c0-1.2-0.1-2.4-0.2-3.6C381.2,157.6,380.4,153.5,380.2,149.4z"/>
	<path fill="#FFFFFF" d="M339.5,438.1c-0.1,0.5-0.3,1.1-0.5,1.6c-4,12.8-8.4,25.6-12.8,38.3c-0.3,0.8-0.5,1.6-0.7,2.4
		c-0.2,0.7,0.5,1.2,1.2,1.1c1.2-0.1,1.9-0.7,2.2-1.8c0.6-1.9,1.1-3.9,1.7-5.8c2.3-7.3,4.7-14.6,7.1-21.8c0.9-2.9,2-5.7,3-8.6
		c0.8-2.4,1.6-4.7,2.3-7.1c0.3-1,0.6-2.1-0.1-3.5C341.1,434.5,339.8,436,339.5,438.1z"/>
	<path fill="#FFFFFF" d="M361.4,381.9c0.4-1.1,0.8-2.1-0.1-3.4c-1.4,0.8-2.7,1.4-3,2.9c-1.1,4.6-2.8,9-4.3,13.4
		c-2.6,8-5.5,15.9-8.2,23.8c-0.4,1.1-0.7,2.3-0.9,3.5c-0.1,0.6,0.3,1.1,1,1.1c1-0.1,1.8-0.4,2.3-1.4c0.2-0.5,0.4-1,0.6-1.5
		c1-2.9,2-5.8,2.9-8.7c0.7-2.2,1.2-4.5,2-6.6c1.3-3.2,2.2-6.4,3.3-9.7C358.4,390.8,359.9,386.3,361.4,381.9z"/>
	<path fill="#FFFFFF" d="M473.7,178c0.9-1.1,1.8-2.1,2.7-3.2c5.4-6.9,10.8-13.8,16.2-20.7c4.4-5.6,8.8-11.3,13.2-17
		c4.7-6,9.5-12,14.2-17.9c0.3-0.4,0.8-0.8,0.6-1.5c-0.9-0.4-1.6-0.2-2.2,0.5c-0.7,1-1.4,2-2.2,2.9c-4.7,5.9-9.4,11.8-14,17.7
		c-5.5,7-10.9,14.1-16.4,21.2c-1.1,1.5-2.1,3-3.4,4.4c-3.2,3.5-5.9,7.5-8.9,11.1c-0.7,0.8-1.3,1.6-1.9,2.4c-0.2,0.3-0.4,0.6,0,1.1
		C472.5,179.1,473.1,178.6,473.7,178z"/>
	<path fill="#FFFFFF" d="M598.1,476.8c-3.7-3.7-7.4-7.4-11.2-11c-3.3-3.2-6.6-6.3-9.8-9.6c-1.4-1.5-3-2.8-4.5-4.3
		c-1.9-2-3.8-3.8-5.7-5.7c-3.3-3.4-7.1-6.3-10.2-10c-1.5-1.8-3.3-3.3-5-4.9c-0.3-0.3-0.8-0.4-1.2-0.2c0,0.2-0.1,0.4,0,0.5
		c1.4,1.5,2.6,3.1,4.1,4.5c1.3,1.2,2.2,2.8,3.9,3.6c0.2,0.1,0.4,0.4,0.5,0.6c0.5,1.4,1.6,2.2,2.7,3.1c2.8,2.2,4.6,5.4,7.5,7.5
		c1.5,2.1,3.6,3.7,5.4,5.6c1.8,2,3.9,3.8,5.8,5.7c3.8,3.8,7.5,7.6,11.2,11.3c0.9,0.9,2,1.5,2.6,2.5c1.4,2,3.5,3.4,5,5.2
		c0.9,1.1,2,1.2,3.3,1.1c0-0.9-0.4-1.4-0.8-1.8C600.7,479.2,599.4,478,598.1,476.8z"/>
	<path fill="#FFFFFF" d="M50.9,311.1c5.4-0.7,10.9-1.1,16.4-1.5c9.6-0.9,19.3-1.7,28.9-2.6c1.7-0.2,3.4-0.4,5.1-0.6
		c0.4-0.1,0.7-0.3,0.6-0.8c-0.1-0.3-0.3-0.4-0.6-0.5c-1.8-0.2-3.6,0.1-5.4,0.3c-5.1,0.5-10.2,1.2-15.3,1.6
		c-6.1,0.5-12.2,1.2-18.4,1.8c-5,0.6-10,1.1-15,1.6c-5.8,0.5-11.5,0.9-17.3,1.5c-6.8,0.7-13.6,1.4-20.3,2.2c-0.4,0-1,0-1.1,0.6
		c0.7,0.4,1.5,0.2,2.2,0.1c7.1-0.6,14.2-1.2,21.2-1.9C38.3,312.3,44.6,311.9,50.9,311.1z"/>
	<path fill="#FFFFFF" d="M672.7,193.4c-4.3,1.3-8.5,2.6-12.7,3.9c-6.5,1.9-13.1,3.7-19.6,5.6c-1.1,0.3-2.2,0.5-3.4,1.5
		c1.7,0.8,3,0.4,4.2,0.1c4.7-1.4,9.4-2.8,14.1-4.2c4.5-1.4,9-2.9,13.6-4.2c5.4-1.6,10.8-3,16.1-4.6c7.1-2,14.2-4.1,21.3-6.2
		c1.6-0.5,3.3-1,4.9-1.5c0.5-0.1,0.9-0.3,1-0.9c0.1-0.4-0.7-0.9-1.3-0.8c-0.5,0.1-0.9,0.2-1.4,0.3c-2.6,0.8-5.3,1.6-7.9,2.4
		c-4.3,1.3-8.5,2.6-12.8,3.9C683.4,190.4,678,191.8,672.7,193.4z"/>
	<path fill="#FFFFFF" d="M127.6,371.5c4.1-1.5,8.2-2.9,12.3-4.4c1-0.3,2-0.6,3-1c4.4-1.4,8.8-2.9,13.1-4.6c0.6-0.2,1.3-0.4,1.5-1.3
		c-0.5-0.5-1-0.4-1.4-0.3c-1.1,0.3-2.2,0.6-3.3,1c-6.7,2.3-13.4,4.7-20.1,6.9c-9.4,3.2-18.8,6.4-28.2,9.6c-3.7,1.3-7.3,2.6-10.9,3.9
		c-0.6,0.2-1.2,0.6-1.7,0.9c-0.3,0.2-0.5,0.5-0.4,1c0.3,0.5,0.9,0.6,1.5,0.5c0.6-0.1,1.1-0.3,1.6-0.5c5.3-1.9,10.7-3.7,16-5.8
		C116.1,375.3,122,373.6,127.6,371.5z"/>
	<path fill="#FFFFFF" d="M395.5,480.2c-0.6,0.1-0.7,0.5-0.8,0.8c-0.4,1.5-0.5,3.1-0.5,4.7c-0.1,6.7-0.1,13.5-0.1,20.2
		c0,7.6,0,15.1,0,22.7c0,3.5,0.4,7,0.7,10.5c0,0.4,0.1,0.9,0.9,1c0.1-0.4,0.2-0.9,0.2-1.3c0.1-2.6,0.3-5.2,0.4-7.7
		c0.1-14.4,0.2-28.8,0.3-43.1c0-1.8-0.1-3.7-0.1-5.5C396.3,481.5,396.2,480.7,395.5,480.2z"/>
	<path fill="#FFFFFF" d="M93.6,244.8c5.2,1.1,10.4,1.8,15.7,2.3c1.5,0.2,3,0.2,4.5,0.4c4.1,0.5,8.3,1.1,12.4,1.5
		c4.1,0.4,8.1,0.6,12.2,1.2c1.5,0.2,3,0.3,4.5,0.4c0.6,0,1.4,0.2,1.7-0.6c-0.4-0.9-1.3-0.7-2-0.8c-6.6-0.8-13.1-1.7-19.7-2.2
		c-10.7-0.9-21.3-2.3-31.9-3.4c-4.5-0.4-9-1.1-13.5-1.5c-5.6-0.5-11.1-1.2-16.6-1.9c-1.6-0.2-3.2-0.2-4.9-0.3c0.3,0.9,0.6,1,1,1.1
		c1.5,0.2,3,0.5,4.5,0.6c3.7,0.4,7.3,0.8,11,1.2c6.6,0.7,13.1,1.7,19.8,2C92.7,244.6,93.2,244.7,93.6,244.8z"/>
	<path fill="#FFFFFF" d="M369.6,450c0,0.8-0.1,1.7-0.2,2.5c-0.3,2.7-0.6,5.5-0.9,8.2c-0.4,3.3-0.8,6.6-1.3,9.9
		c-0.6,3.9-1.1,7.8-1.7,11.7c-0.3,1.9-0.4,3.8-1.2,5.6c-0.3,0.8-0.3,1.6-0.3,2.4c0,0.7,0.7,1.3,1.5,1.4c0.7,0.1,1.3-0.3,1.5-1
		c0.2-0.5,0.3-1.1,0.4-1.6c0.7-5.2,1.4-10.4,2.1-15.6c1-7.4,1.7-14.8,3.3-22.1c0.4-1.9,0.1-3.6-1.2-5.1
		C370,447.7,369.6,448.4,369.6,450z"/>
	<path fill="#FFFFFF" d="M473.6,201.1c0.7-0.5,1.3-1.1,1.9-1.7c7.2-7,14.4-14.1,21.6-21.1c7.7-7.4,15.4-14.7,23.1-22.1
		c0.5-0.4,0.9-0.9,1.3-1.5c0.1-0.2,0.1-0.6,0-0.8c-0.2-0.3-0.6-0.4-1-0.3c-0.7,0.2-1.1,0.7-1.5,1.2c-3.2,3.1-6.3,6.4-9.6,9.4
		c-5.2,4.8-10.1,9.9-15.2,14.9c-1.2,1.2-2.5,2.2-3.7,3.4c-4.4,4.3-8.8,8.6-13.2,12.9c-1.5,1.4-3,2.8-4.5,4.2
		c-0.4,0.4-0.9,0.7-0.8,1.4C472.4,201.7,473,201.4,473.6,201.1z"/>
	<path fill="#FFFFFF" d="M585.6,523.4c-2.1-2.7-4.2-5.5-6.3-8.2c-2.4-3.1-4.7-6.2-7.1-9.3c-3.2-4.2-6.4-8.4-9.6-12.6
		c-0.4-0.5-0.9-1-1.3-1.4c-0.3-0.3-0.7-0.4-1-0.2c-0.4,0.3-0.5,0.8-0.3,1.2c0.1,0.2,0.3,0.5,0.4,0.7c0.6,0.8,1.2,1.6,1.9,2.4
		c1.8,2.3,3.8,4.6,5.5,7c3.5,4.9,7.3,9.6,11.1,14.3c1.1,1.4,2.1,2.8,3.3,4.1c1,1.2,1.7,2.7,2.6,3.9c3.8,5.1,7.7,10.2,11.6,15.3
		c0.4,0.6,1,1.1,1.5,1.6c0.4,0.4,1,0.5,1.5,0c0.1-1-0.7-1.7-1.2-2.4C594,534.5,589.8,529,585.6,523.4z"/>
	<path fill="#FFFFFF" d="M570.6,225.2c6.4-1.9,12.9-3.7,19.4-5.5c0.5-0.1,0.9-0.2,1.2-0.8c-0.8-0.9-1.7-0.8-2.8-0.5
		c-3.6,1.1-7.2,2.2-10.8,3.3c-2,0.6-4,1.2-6,1.8c-6.2,1.9-12.4,3.9-18.7,5.7c-6,1.8-12,3.5-17.9,5.3c-2.4,0.7-4.9,1.6-7.3,2.2
		c-5.6,1.3-11.1,3.2-16.6,4.7c-0.5,0.1-0.9,0.2-1.3,0.8c0.4,0.5,0.7,0.5,1.1,0.5c0.8-0.2,1.7-0.3,2.5-0.5c3.2-0.7,6.3-2,9.5-2.9
		c10-2.8,20-5.8,29.9-8.7C558.6,228.8,564.6,227,570.6,225.2z"/>
	<path fill="#FFFFFF" d="M489.8,400.4c1.2,1.4,2.5,2.8,3.4,4.4c1.1,1.9,2.9,3.3,3.7,5.4c2.1,2.2,3.8,4.8,5.5,7.3
		c1.6,2.4,3.4,4.6,5.2,6.9c2,2.6,3.8,5.2,5.7,7.8c0.6,0.2,1.2,0.3,1.8,0c0.1-0.7-0.2-1.1-0.4-1.4c-0.7-1-1.5-1.9-2.2-2.9
		c-3.5-4.6-7-9.1-10.5-13.7c-3.4-4.4-6.9-8.7-10.2-13.2c-3.2-4.3-6.4-8.7-9.7-13c-3.5-4.7-7.1-9.4-10.6-14c-0.4-0.5-0.9-1-1.4-1.4
		c-0.3-0.2-0.7-0.2-1,0.1c-0.2,0.2-0.2,0.5,0,0.8c1.6,2.2,3.2,4.3,4.8,6.5c2.4,3.1,4.8,6.1,7.2,9.2
		C483.9,393,486.7,396.8,489.8,400.4z"/>
	<path fill="#FFFFFF" d="M237,178.6c2.9,1.9,5.9,3.7,8.8,5.6c4.6,2.9,9.1,5.9,13.7,8.9c3.3,2.1,6.7,4.1,10,6.3
		c5.8,3.7,11.5,7.5,17.3,11.2c0.5,0.3,1,0.5,1.5,0.7c0.2,0.1,0.6-0.1,0.7-0.3c0.1-0.2,0.1-0.6-0.1-0.8c-0.4-0.5-0.9-0.9-1.5-1.3
		c-5.2-3.4-10.4-6.8-15.5-10.1c-1.4-0.9-2.8-1.9-4.2-2.8c-3-1.9-6.1-3.8-9.1-5.7c-2.9-1.8-5.7-3.6-8.5-5.5c-4-2.6-8.3-4.8-12-7.8
		c-0.7-0.6-1.5-0.7-2.4-0.1C235.7,177.8,236.4,178.2,237,178.6z"/>
	<path fill="#FFFFFF" d="M709.5,279.6c0.7,0,1.2-0.4,1.4-1.1c0.1-0.4,0-0.8-0.4-0.9c-0.9-0.3-1.9-0.2-2.8-0.2
		c-8.1,0.1-16.1,0.1-24.2,0.2c-4.4,0-8.7,0.1-13.1,0.1c-3,0-6,0-9.1,0.1c-1.2,0-2.5,0.1-3.7,0.2c-0.6,0.1-1.3,0.2-1.6,0.9
		c0.1,0.4,0.5,0.6,0.8,0.6c0.8,0.1,1.7,0.1,2.5,0.1c7.7,0,15.3,0,23,0c7.8,0,15.5,0.1,23.3,0.1C707,279.7,708.3,279.6,709.5,279.6z"
		/>
	<path fill="#FFFFFF" d="M420.2,449.6c-0.5-3.4-1-6.7-1.5-10.1c-0.8-5.4-1.7-10.7-2.5-16.1c-0.9-6-1.7-12-2.5-18.1
		c-0.3-2.2-0.5-4.4-0.9-6.6c-0.1-0.8,0-1.7-0.9-2.3c-0.7-0.1-1.3,0.1-1.7,0.7c0.6,3.7,1.1,7.5,1.7,11.2c0.4,2.2,0.4,4.4,1,6.5
		c0.8,3,0.9,6.2,1.5,9.2c0.7,3.6,1,7.3,1.5,10.9c0.3,2.3,0.6,4.5,0.9,6.8c0.3,2.2,0.6,4.4,0.8,6.6c0.1,1.4,0.8,2.2,2.3,2.4
		C420.2,450.3,420.3,449.9,420.2,449.6z"/>
	<path fill="#FFFFFF" d="M377.4,399.3c-0.8,1.4-1.6,2.8-1.5,4.5c0,0.7-0.1,1.5-0.2,2.2c-0.7,4.8-1.3,9.7-2,14.5
		c-0.5,3.3-1,6.5-1.5,9.8c-0.1,0.5-0.2,0.9-0.2,1.4c0,1.2,1.3,1.9,2.4,1.4c0.6-0.3,0.8-0.7,0.9-1.3c0.3-2.2,0.7-4.4,1-6.5
		c0.8-6.9,1.8-13.7,3.1-20.5c0.3-1.5,0.1-2.9-0.4-4.3C378.8,399.8,378.4,399.3,377.4,399.3z"/>
	<path fill="#FFFFFF" d="M626.6,386.8c4.4,2,8.7,4.1,13.1,6.1c2.9,1.3,5.8,2.6,8.7,4c2.7,1.3,5.3,2.8,8.2,3.7
		c0.4,0.1,0.8,0.4,1.2,0.7c0.8,0.5,1.6,1,2.4,1.4c3,1.5,6.2,2.8,9.2,4.4c2.6,1.4,5.5,2.5,7.9,4.3c1.1,0.8,2.1,0.5,3.2-0.4
		c-0.6-1.4-1.8-1.7-2.8-2.2c-3.7-1.7-7.4-3.4-11.1-5.1c-5.6-2.6-11.1-5.2-16.6-7.8c-3.8-1.8-7.7-3.6-11.5-5.4
		c-4.9-2.3-9.9-4.7-14.8-7.1c-0.6-0.3-1.2-0.6-1.9-0.6c-0.4,0-1-0.1-1.1,0.7c1,0.9,2.2,1.6,3.5,2.1
		C625.1,386.2,625.9,386.5,626.6,386.8z"/>
	<path fill="#FFFFFF" d="M753.9,333.4c-1.5-0.3-3-0.5-4.5-0.7c-4.6-0.7-9.2-1.3-13.8-2c-5.2-0.8-10.5-1.7-15.7-2.5
		c-4.9-0.8-9.7-1.5-14.6-2.3c-4.5-0.7-8.9-1.6-13.4-2.4c-0.9-0.2-1.9-0.2-2.8-0.3c-0.5,0-0.9,0.1-1.1,1c0.1,0.1,0.3,0.2,0.6,0.3
		c1.3,0.4,2.7,0.9,4.1,0.9c1.4,0,2.8,0.3,4.2,0.5c2.3,0.4,4.7,0.8,7,1.1c3,0.5,6,0.9,9,1.4c3.9,0.7,7.8,1.4,11.7,2.1
		c3.9,0.6,7.9,1.2,11.8,1.8c5.4,0.9,10.8,1.9,16.2,2.8c1.1,0.2,2.1,0.1,2.9-0.5C755.4,333.6,754.6,333.5,753.9,333.4z"/>
	<path fill="#FFFFFF" d="M492.8,518.6c-2.5-6.1-4.8-12.4-7.3-18.5c-1.5-3.7-2.9-7.4-4.3-11.1c-1.4-3.8-2.9-7.6-4.3-11.4
		c-0.3-0.8-0.5-1.6-1.5-1.9c-0.6,0.2-1,0.5-1.3,1.1c2.2,5.4,4.5,10.8,6.8,16.3c0.3,0.7,0.6,1.3,0.9,2c0.3,1,0.6,1.9,1.5,2.6
		c0.4,0.3,0.5,0.8,0.5,1.2c-0.1,1.1,0.3,1.9,0.9,2.8c0.5,0.8,0.7,1.7,1.1,2.5c1.9,5.3,3.8,10.6,6.4,15.6c0.2,0.4,0.3,0.8,0.5,1.3
		c0.5,1.7,0.9,3.4,1.7,4.9c1.4,2.7,2.8,5.4,3.8,8.3c0.1,0.4,0.6,0.4,0.9-0.1c-0.5-1.5-1-3.1-1.6-4.6
		C495.6,526,494.3,522.3,492.8,518.6z"/>
	<path fill="#FFFFFF" d="M707.6,489.6c-2.3-1.5-4.6-3-6.8-4.5c-3-2-6.2-4-9.1-6.2c-3.5-2.6-7.1-5-10.6-7.4
		c-3.8-2.6-7.9-4.8-11.4-7.7c-1-0.8-2.2-1.5-3.3-2.1c-0.7-0.4-1.5-0.8-2.4-0.2c-0.1,1,0.7,1.3,1.3,1.7c4.8,3.3,9.7,6.4,14.5,9.7
		c7.3,5,14.5,10.1,21.7,15.1c1.4,1,2.7,2,4.1,3c0.7,0.5,1.4,1,2.3,1c0.4,0,0.7-0.2,1-0.5c0.3-0.4,0.1-0.7-0.1-1
		C708.3,490.1,707.9,489.8,707.6,489.6z"/>
	<path fill="#FFFFFF" d="M263.5,42.7c3.7,6.7,7.4,13.5,11.2,20.2c4.4,7.9,8.8,15.7,13.1,23.6c0.2,0.4,0.4,0.8,0.6,1.2
		c0.6,1,1.4,1.4,2,0.9c0.7-0.6,0.3-1.2,0-1.7c-1.4-2.4-2.8-4.8-4.1-7.2c-1.8-3.2-3.9-6.3-5.6-9.6c-0.9-1.7-2-3.3-3-5
		c-2.4-4.1-4.9-8-7.2-12.2c-1.9-3.5-4-6.9-5.7-10.5c-1.5-3-3.4-5.8-5.1-8.6c-0.2-0.3-0.3-0.7-1-0.9c-0.5,0.9,0.1,1.5,0.5,2.1
		C260.6,37.6,262,40.1,263.5,42.7z"/>
	<path fill="#FFFFFF" d="M279,357.2c1.6-1,3.1-2.1,4.6-3.2c2.1-1.4,4.2-2.8,6.4-4.1c0.9-0.6,1.6-1.3,1-2.8c-0.6,0.3-0.9,0.4-1.2,0.6
		c-3.3,2.5-6.8,4.7-10.3,6.9c-1.8,1.1-3.5,2.2-5.1,3.4c-3.7,3-7.8,5.5-11.8,8.2c-5.5,3.8-10.9,7.6-16.6,11.1c-1,0.6-1.9,1.4-2,2.8
		c1.1,0.6,2,0.3,2.7-0.4c2.4-2.2,5.2-4,7.8-5.9c3.6-2.7,7.4-5.1,11.1-7.6C270.2,363.2,274.6,360.1,279,357.2z"/>
	<path fill="#FFFFFF" d="M538.5,211.6c5.8-2.6,11.7-5.2,17.6-7.8c4.4-1.9,8.8-3.8,13.2-5.8c0.2-0.1,0.4-0.3,0.7-0.5
		c-0.1-0.6-0.5-0.8-1-0.8c-0.5-0.1-0.9,0.1-1.4,0.3c-3.7,1.7-7.4,3.4-11,5.1c-3.7,1.7-7.3,3.5-11,5.2c-1.5,0.7-3.2,1.2-4.7,1.9
		c-4,1.9-8,3.8-12.1,5.5c-5.6,2.3-11.1,4.8-16.6,7.3c-1.4,0.6-2.8,1.2-4.1,1.9c-0.3,0.2-0.7,0.3-0.6,0.8c0.5,0.5,1.1,0.4,1.6,0.2
		c1.3-0.4,2.5-0.9,3.7-1.4C521.3,219.4,529.9,215.4,538.5,211.6z"/>
	<path fill="#FFFFFF" d="M478,66.8c0.2,0.1,0.4,0.1,0.5,0c0.4-0.3,0.8-0.6,1-1c0.5-1.1,1.1-2.2,1.5-3.3c1.2-3.2,2.4-6.4,3.7-9.6
		c3.4-8.3,6.6-16.7,9.7-25.1c1.1-2.9,2-6,3.9-8.5c0.1-0.1,0.2-0.3,0.3-0.5c0.2-0.8,0.1-1.6-0.8-2.3c-0.7,0.5-0.8,1-1,1.6
		c-0.6,2.2-1.5,4.4-2.6,6.4c-1,1.9-1.7,3.9-2.5,5.9c-1.3,3.3-2.5,6.6-3.7,9.8c-1.3,3.4-2.6,6.9-3.9,10.3c-0.2,0.4-0.3,0.9-0.5,1.3
		c-1.7,3.9-3.4,7.8-5,11.7c-0.4,0.8-0.6,1.7-0.9,2.6C477.4,66.5,477.7,66.7,478,66.8z"/>
	<path fill="#FFFFFF" d="M68,390.5c-1.1,0.3-2.2,0.6-3.3,1c-10,3.4-20,6.8-30,10.2c-3.7,1.2-7.4,2.4-11,3.6c-1.4,0.5-2.9,1-4,2.3
		c0.7,0.7,1.4,0.7,2,0.5c2.3-0.8,4.6-1.6,6.9-2.4c2.9-1,5.8-2.2,8.8-3.1c9.9-3,19.6-6.8,29.5-10c0.5-0.2,1.1-0.4,1.5-0.7
		c0.4-0.2,0.8-0.6,0.5-1.1C68.8,390.4,68.4,390.4,68,390.5z"/>
	<path fill="#FFFFFF" d="M230.5,145.3c-1.1-0.9-2.2-1.3-3.7-1.2c0,1.1,0.6,1.5,1.1,1.9c0.9,0.8,1.9,1.5,2.9,2.2
		c5,4,10.1,8.1,15.1,12.1c3.3,2.6,6.5,5.3,9.8,8c1.8,1.5,3.6,3,5.4,4.4c0.5,0.4,1,0.9,1.7,0.9c0.5,0,1-0.1,1.2-0.6
		c0.2-0.4,0-0.7-0.3-1c-0.8-0.7-1.7-1.5-2.6-2.2c-5.3-4.1-10.7-8.1-15.9-12.5C240.3,153.4,235.3,149.4,230.5,145.3z"/>
	<path fill="#FFFFFF" d="M536.1,96.7c0.9,0,1.5-0.2,1.9-0.7c0.5-0.5,1-1.1,1.5-1.7c5.4-6.9,10.7-13.9,16-20.8
		c1.3-1.6,2.5-3.3,3.7-4.9c3.9-5,7.9-9.9,11.9-14.9c0.3-0.4,0.5-0.8,0.7-1.2c0.1-0.3,0-0.5-0.3-0.6c-0.1,0-0.4,0.1-0.5,0.2
		c-0.5,1-0.9,2.1-1.9,2.6c-1.2,0.7-2.1,1.7-2.7,2.8c-1.1,2.1-3.2,3.4-4.2,5.5c-2.9,2.5-4.9,5.9-7.4,8.7c-1.9,2.2-3.5,4.6-5.2,6.9
		c-4.2,5.3-8.5,10.6-12.7,16C536.5,95.3,536,95.7,536.1,96.7z"/>
	<path fill="#FFFFFF" d="M275.9,288c-2.9,0.3-5.8,0.7-8.8,0.9c-3,0.2-5.9,1.2-8.9,0.8c-0.4-0.1-0.9,0.2-1.4,0.2
		c-1.5,0.2-3,0.6-4.5,0.7c-2.6,0.1-5.1,0.2-7.6,0.5c-1.5,0.2-3,0.4-4.5,0.5c-3.6,0.1-7.2,0.8-10.8,0.6c-1.2-0.1-2.2,0.4-2.9,1.5
		c0.4,0.7,0.9,0.6,1.4,0.6c5.8-0.6,11.7-0.9,17.5-1.8c5.1-0.7,10.2-0.9,15.2-1.3c6.1-0.5,12.3-1.1,18.4-1.7c0.5,0,0.9-0.1,1.3-0.4
		c0.5-0.2,0.5-0.7,0.2-1.4C279,287.8,277.4,287.8,275.9,288z"/>
	<path fill="#FFFFFF" d="M106,339.2c-2.7,0.6-5.4,1.2-8,1.8c-2.8,0.6-5.6,1.2-8.3,2c-2.7,0.8-5.7,0.5-8.2,2
		c-0.1,0.1-0.4,0.1-0.6,0.1c-1.3-0.2-2.4,0.3-3.6,0.6c-3.1,0.6-6.4,0.8-9.4,1.9c-0.4,0.2-0.9,0.1-1.4,0.2c-0.8,0.1-1.7,0.2-2.5,0.5
		c-2.1,0.6-4.2,1-6.4,1.4c-3,0.6-5.9,1.3-9,2.6c0.8,0.5,1.3,0.3,1.7,0.2c3.6-0.7,7.3-1.4,10.9-2.1c11.1-2.4,22.3-4.3,33.4-6.9
		c3.2-0.8,6.5-1.4,9.7-2.1c1.2-0.3,2.4-0.6,3.5-1c0.3-0.1,0.6-0.4,0.4-0.9C107.5,338.8,106.8,339.1,106,339.2z"/>
	<path fill="#FFFFFF" d="M398.1,93.5c-0.4-0.1-0.8,0.1-1,0.4c-0.2,0.3-0.4,0.6-0.4,1c-0.1,0.7-0.1,1.5-0.1,2.2c0,5.3,0,10.7,0,16
		c0,0,0,0-0.1,0c-0.1,5.9-0.3,11.8-0.4,17.6c0,0.4,0.1,0.9,0.2,1.3c0.1,0.2,0.4,0.4,0.6,0.5c0.2,0,0.6-0.1,0.7-0.3
		c0.6-0.8,0.5-1.7,0.6-2.6c0.1-3.7,0.2-7.3,0.2-11c0.1-7,0.1-14,0.5-20.9c0.1-1.1,0-2.2-0.1-3.3C398.9,93.8,398.6,93.6,398.1,93.5z"
		/>
	<path fill="#FFFFFF" d="M655.8,533.8c-3.4-3.4-6.8-6.7-10.1-10.1c-3.4-3.6-7-7-10.6-10.4c-0.5-0.4-1-0.9-1.6-1.2
		c-0.5-0.3-1.1-0.3-1.6,0.5c0.8,1.4,2,2.4,3.1,3.4c3.1,2.8,5.9,5.7,8.7,8.8c4.4,4.9,9.4,9.1,13.6,14.1c0.8,1,2,1.2,3.3,0.7
		c0.2-1-0.4-1.5-0.9-2C658.4,536.3,657.1,535,655.8,533.8z"/>
	<path fill="#FFFFFF" d="M608.2,421.8c-1-0.8-2.2-1.5-3.3-2.2c-0.9-0.6-1.8-0.8-2.8-0.5c-0.1,0.6,0.1,0.8,0.4,1.1
		c0.8,0.6,1.6,1.3,2.5,1.8c7.5,5.1,15.1,10.1,22.6,15.2c3.1,2.1,6,4.4,9,6.6c0.4,0.3,0.8,0.5,1.2,0.6c0.5,0.2,1,0.1,1.3-0.3
		c0.3-0.4,0.2-0.9-0.2-1.2c-0.6-0.5-1.3-1.1-2-1.5c-3.7-2.2-7.1-4.9-10.7-7.2c-1.3-0.9-2.6-1.8-4-2.7c-2.4-1.6-4.8-3.3-7.2-4.9
		C612.8,425,610.3,423.7,608.2,421.8z"/>
	<path fill="#FFFFFF" d="M657.6,110.1c0.8-0.1,1.4-0.5,2-0.9c1.7-1.1,3.5-2.3,5.2-3.4c2.9-1.9,5.8-3.7,8.8-5.6
		c3.6-2.3,7.3-4.6,11-6.9c1.3-0.8,1.3-0.7,1-2.7c-0.9-0.2-1.3,0.2-1.8,0.5c-5.7,3.6-11.4,7.2-17.2,10.8c-2.8,1.8-5.6,3.5-8.3,5.3
		c-0.6,0.4-1.3,0.7-1.7,1.4c-0.2,0.3-0.2,0.7,0,1.1C656.9,110,657.2,110.1,657.6,110.1z"/>
	<path fill="#FFFFFF" d="M266.5,395.6c0.5-0.2,1-0.6,1.3-1c1-1.1,2-2.2,3.3-2.9c0.2-0.1,0.4-0.4,0.6-0.6c1.5-2.1,3.5-3.6,5.4-5.2
		c2.6-2.2,4.9-4.5,7.5-6.7c5.9-4.9,11-10.7,16.9-15.6c0.5-0.4,1-0.9,1-1.6c0.1-0.4,0-0.7-0.6-1c-12.2,11.3-24.6,22.3-36.6,33.8
		C265.6,395.6,266,395.8,266.5,395.6z"/>
	<path fill="#FFFFFF" d="M527.2,503.5c-1.9-3.3-3.7-6.6-5.6-9.9c-2.8-5-5.7-9.9-8.6-14.9c-0.5-0.8-0.8-1.7-1.7-2.1
		c-0.4,0.6-0.6,1.3-0.1,1.7c1.3,1.1,1.5,2.7,2.3,4.1c2.3,4.1,4.6,8.2,7,12.3c1.3,2.3,2.9,4.5,4.1,6.9c1.5,3.1,3.2,6,4.8,9
		c1.1,2.1,2.5,4.1,3.5,6.3c0.5,1.2,1.3,2.2,3,2.1c0-1.4-0.8-2.4-1.4-3.4C532,511.6,529.6,507.6,527.2,503.5z"/>
	<path fill="#FFFFFF" d="M511.4,476.6C511.4,476.6,511.4,476.6,511.4,476.6C511.4,476.6,511.4,476.6,511.4,476.6
		C511.4,476.5,511.4,476.6,511.4,476.6z"/>
	<path fill="#FFFFFF" d="M118.7,102c0,0,0-0.1,0-0.1l-0.1,0.1C118.7,101.9,118.7,102,118.7,102z"/>
	<path fill="#FFFFFF" d="M120.9,103.9c1,0.6,2,1.1,2.9,1.7c3.2,2.1,6.4,4.2,9.7,6.3c5.1,3.3,10.3,6.6,15.4,9.8c4,2.5,7.9,5,11.9,7.6
		c3.9,2.5,7.9,4.7,11.5,7.6c0.6,0.5,1.2,0.9,1.9,1.2c0.3,0.2,0.8,0.1,1-0.2c0.2-0.3,0.2-0.8-0.1-1c-0.4-0.4-0.8-0.8-1.3-1
		c-1.8-1-3.6-2-5.4-3c-4.3-2.7-8.6-5.4-12.8-8.2c-7.6-4.8-15.3-9.6-22.9-14.4c-1.6-1-3.3-1.9-4.8-2.9c-2.9-2-5.9-3.8-9.1-5.4
		C119.1,103,120,103.4,120.9,103.9z"/>
	<path fill="#FFFFFF" d="M584.7,308.2c3.4,0.6,6.7,1.1,10.1,1.7c2,0.3,4.1,0.7,6.1,1.1c0.2,0,0.4,0,0.6-0.1c0.2-0.1,0.5-0.3,0.5-0.6
		c0-0.2-0.1-0.6-0.3-0.7c-0.8-0.3-1.6-0.5-2.5-0.7c-3.4-0.6-6.7-1.1-10.1-1.6c-6.5-1-13.1-2-19.6-3c-4.9-0.8-9.9-1.7-14.8-2.5
		c-1.1-0.2-2.2-0.6-3.4,0.1c0.2,0.7,0.6,0.9,0.9,0.9c1.1,0.3,2.2,0.5,3.3,0.7c5,0.8,10.1,1.5,15.1,2.3
		C575.4,306.6,580,307.4,584.7,308.2z"/>
	<path fill="#FFFFFF" d="M598.3,184.5c-1.8,0.8-3.2,2.2-5.3,2.4c-0.5,0-1.3,0.4-1.1,1.3c1.3,0.3,1.3,0.3,2.1-0.1
		c3.8-1.9,7.5-4,11.5-5.4c0.6-0.2,1.3-0.5,1.8-0.9c1.6-1.3,3.4-1.9,5.4-2.3c1.5-0.3,2.7-1.4,4.1-1.9c1.2-0.4,2.3-0.8,3.1-1.9
		c0.2-0.3,0.6-0.5,1-0.5c1.9,0,3.4-1.1,5-1.9c1.1-0.6,2.1-1.2,3.3-1.4c0.6-0.1,1.2-0.4,1.9-0.7c4.2-1.5,8.1-3.8,12.5-5.6
		c-0.5-1.1-1.2-1.2-2-0.7c-2.2,1.1-4.4,2.1-6.7,2.9c-1.1,0.3-2,1-3,1.5c-1.2,0.6-2.3,1.4-3.5,1.9c-2.9,1.3-5.9,2.4-8.9,3.7
		c-2.7,1.2-5.2,2.5-7.9,3.7C607,180.6,602.7,182.6,598.3,184.5z"/>
	<path fill="#FFFFFF" d="M321.8,111.5c2,4.7,4,9.4,6,14c0.4,0.8,0.6,1.7,1.4,2.4c0.1,0.1,0.4,0.2,0.5,0.1c0.2-0.1,0.5-0.3,0.6-0.5
		c0.3-0.6-0.1-1.3-0.2-1.9c-0.7-2.8-2.2-5.3-3.2-8c-1.6-4-3.3-8-5-12c-1-2.3-1.9-4.6-2.8-6.9c-0.6-1.5-0.9-1.6-2.8-1.3
		c-0.3,0.8,0.2,1.4,0.5,2.1C318.4,103.5,320.1,107.5,321.8,111.5z"/>
	<path fill="#FFFFFF" d="M567.5,357.1c-2.5-1.2-5.1-2.5-7.6-3.7c-5-2.3-10.1-4.6-15.2-6.9c-1.8-0.8-3.6-1.6-5.4-2.5
		c-1.7-0.8-3.4-1.7-5.1-2.5c-1.1-0.5-2.1-0.5-3.3-0.1c0.1,0.7,0.5,0.9,1,1.1c1.9,0.6,3.6,1.6,5.4,2.5c3.7,1.8,7.6,3.4,11.3,5.2
		c5.9,2.9,11.9,5.6,17.7,8.8c0.8,0.5,1.6,0.4,2.5-0.3C568.6,357.7,568.1,357.4,567.5,357.1z"/>
	<path fill="#FFFFFF" d="M297.4,54.3c3.4,8.1,6.7,16.2,10.1,24.3c0.8,1.9,1.7,3.7,2.6,5.5c0.3,0.6,0.8,1,1.6,0.9
		c0.5-0.1,0.7-0.7,0.4-1.7c-0.1-0.4-0.2-0.7-0.4-1c-1.6-3.5-3.2-7.1-4.8-10.6c-1.9-4.2-4.2-8.2-5.7-12.6c-0.9-2.7-2.3-5-4.1-7.6
		C296.6,52.8,297.1,53.5,297.4,54.3z"/>
	<path fill="#FFFFFF" d="M459.7,114.6c0.6-0.6,1-1.4,1.3-2.1c1-2.6,1.9-5.2,3-7.8c2-5.2,4.1-10.3,6.2-15.4c1-2.6,2.1-5.2,3.1-7.7
		c0.1-0.3,0.3-0.5,0.2-0.8c0-0.2-0.2-0.6-0.4-0.7c-0.2-0.1-0.6-0.1-0.8,0c-0.7,0.4-1,1.1-1.3,1.8c-1.1,2.8-2.2,5.5-3.2,8.3
		c-2.1,5.9-4.5,11.7-7,17.5c-1,2.3-1.8,4.6-2.8,7C458.9,115.1,459.3,114.9,459.7,114.6z"/>
	<path fill="#FFFFFF" d="M439,162.8c0.4,0.3,0.7,0.1,1-0.2c0.8-0.7,1.1-1.7,1.5-2.6c1.2-2.8,2.4-5.6,3.6-8.4
		c3.2-7.8,6.4-15.6,9.6-23.4c0.1-0.3,0.3-0.7-0.1-1.1c-0.8-0.3-1.4,0-1.9,0.7c-0.2,0.3-0.3,0.7-0.4,1c-1.7,4.7-3.5,9.3-5.4,13.9
		c-0.3,0.9-0.6,1.7-1,2.6c-2.2,5.3-4.4,10.6-6.6,15.8C439.1,161.7,438.7,162.2,439,162.8z"/>
	<path fill="#FFFFFF" d="M491.9,441.2c-4.3-7.6-8.5-15.2-12.7-22.8c-0.6-1-1.2-2.1-1.8-3.1c-0.5-0.9-1.5-1.2-1.8-0.8
		c-0.6,0.7-0.1,1.2,0.3,1.7c2.5,4.2,5.1,8.4,7.5,12.6c0.9,1.5,1.9,3,2.7,4.5c1.7,3.2,3.1,6.7,5.5,9.5c0.5,1.9,2.2,3.2,2.6,5.1
		c0.2,0.8,0.7,1.5,1.1,2.2c0.4,0.8,1.1,1.2,2,1.1c-0.5-1.7-1.3-3.2-2.2-4.7C494,444.9,492.9,443.1,491.9,441.2z"/>
	<path fill="#FFFFFF" d="M497.3,451.5C497.3,451.5,497.3,451.5,497.3,451.5L497.3,451.5C497.3,451.4,497.3,451.4,497.3,451.5z"/>
	<path fill="#FFFFFF" d="M466.8,452.5c-2.3-5.8-4.5-11.5-6.7-17.3c-0.4-0.9-0.8-1.9-1.5-2.7c-0.3-0.3-0.6-0.5-1.1-0.2
		c-0.4,1.1-0.1,2.3,0.4,3.4c1.6,3.8,3.2,7.7,4.8,11.5c0.4,0.9,1.1,1.8,1.3,2.7c1,3.8,2.8,7.4,3.9,11.2c0.3,1.1,1.2,1.5,2.4,1.5
		c0.3-0.8-0.1-1.5-0.3-2.1C468.9,457.9,467.8,455.2,466.8,452.5z"/>
	<path fill="#FFFFFF" d="M338.8,145.5c-0.2-0.4-0.3-0.9-0.6-1.3c-0.6-0.8-1.3-1.2-2.5-1c0.1,1.9,10.1,24.4,11,26.9
		c0.2,0.4,0.3,0.9,1.1,1c0.5-0.8,0.6-1.6,0.4-2.5c-0.3-1-0.6-1.9-1-2.9C344.4,159,341.6,152.3,338.8,145.5z"/>
	<path fill="#FFFFFF" d="M571.2,396.8c-2-0.7-3.7-2-5.2-3.3c-1.7-1.5-3.7-2.5-5.5-3.8c-3.6-2.5-7.3-4.9-10.9-7.4
		c-1.1-0.7-2.1-1.5-3.1-2.3c-0.3,1.2,0.4,1.8,1.3,2.4c2.3,1.5,4.7,3,7,4.6c2.8,1.9,5.6,4,8.5,5.9c1.9,1.3,3.7,2.8,5.7,4.1
		c0.9,0.6,1.9,1.1,2.8,1.8c3.1,2.4,6.3,4.6,9.5,6.9c0.5,0.3,0.9,0.7,1.4,0.9c0.6,0.3,1.3,0.4,1.9,0c-0.4-1.4-0.4-1.4-0.7-1.7
		c-1.1-0.7-2.2-1.5-3.3-2.1c-2.8-1.5-5.3-3.2-7.6-5.2C572.4,397.4,571.8,397,571.2,396.8z"/>
	<path fill="#FFFFFF" d="M546.4,380C546.4,380,546.4,380,546.4,380C546.5,380,546.5,380,546.4,380L546.4,380z"/>
	<path fill="#FFFFFF" d="M396,143.8c-0.1,0.7-0.1,1.5-0.1,2.2c-0.2,6.4,0.3,12.9-0.2,19.3c-0.2,2.1-0.2,4.2-0.3,6.3
		c0,0.6-0.2,1.3,0.7,1.7c1.1-0.3,1.3-1.2,1.3-2.1c0.1-2.6,0.3-5.1,0.3-7.7c0.1-4.9,0.2-9.7,0.3-14.6c0-2.1,0.1-4.2,0-6.3
		C396.4,142.8,396,142.9,396,143.8z"/>
	<path fill="#FFFFFF" d="M629.4,315.2c5.6,0.9,11.2,1.8,16.8,2.7c5.7,0.9,11.4,1.9,17.1,2.9c0.5,0.1,0.9,0.1,1.4,0
		c0.4-0.1,0.9-0.3,0.7-0.9c-0.4-0.4-0.9-0.4-1.3-0.5c-6.8-1.1-13.6-2.2-20.5-3.3c-5-0.8-10.1-1.7-15.1-2.5c-1.7-0.3-3.4-0.5-5.1-0.7
		c-0.5-0.1-1.2-0.2-1.5,0.9c0.6,0.2,1,0.4,1.4,0.5C625.2,314.5,627.3,314.8,629.4,315.2z"/>
	<path fill="#FFFFFF" d="M538.4,417.6C538.4,417.6,538.4,417.6,538.4,417.6C538.4,417.7,538.4,417.6,538.4,417.6
		C538.4,417.6,538.4,417.6,538.4,417.6z"/>
	<path fill="#FFFFFF" d="M531.4,410.9c-3.2-2.9-6.1-6-9.1-9c-3-3.1-6.3-6.1-9.4-9.1c-0.5-0.5-1.1-1.1-1.7-1.5
		c-0.4-0.3-1-0.6-1.5-0.1c0,0.8,0.6,1.1,1.1,1.5c2.7,2.3,4.8,5.2,7.8,7.2c0.3,0.2,0.5,0.5,0.7,0.8c1.1,1.6,2.4,3.1,4,4.2
		c0.5,0.4,0.9,0.9,1.3,1.4c0.6,0.8,1.4,1.5,2.2,2.2c1.5,1.4,3.2,2.7,4.5,4.2c1.3,1.6,3.4,2.3,4.3,4.3c0.6,1.1,1.7,1.3,2.9,0.6
		C535.9,415.6,533.8,413.1,531.4,410.9z"/>
	<path fill="#FFFFFF" d="M443.6,393.4c-0.1-0.2-0.4-0.3-0.6-0.5c-0.7,0.1-1.1,0.4-1.6,1.1c1.3,2.9,2.6,5.8,3.7,8.7
		c1.9,4.7,3.7,9.4,5.5,14.2c0.4,1,1.1,1.7,2.3,1.8c0.6-0.9-0.1-1.6-0.4-2.3c-2.6-6.3-5.1-12.7-7.4-19.1
		C444.7,396,444.1,394.7,443.6,393.4z"/>
	<path fill="#FFFFFF" d="M316.2,199.6c0.6,0.7,1.2,1.4,2.3,1.7c0.4-0.8,0.1-1.1-0.2-1.5c-2-2.2-3.8-4.6-6.1-6.5
		c-2.4-2.1-4-4.9-6.6-6.7c-1.5-2.3-3.7-3.9-5.4-6c-0.3-0.4-0.8-0.8-1.3-1c-0.5-0.2-1.1-0.4-1.4,0.4c0.1,0.9,0.7,1.6,1.4,2.3
		c2.6,2.6,5.2,5.1,7.7,7.7C309.8,193.1,313,196.4,316.2,199.6z"/>
	<path fill="#FFFFFF" d="M599.4,372.1c-5.9-2.5-11.7-5.2-17.4-8c-1.1-0.5-2.2-1-3.4-1.3c-0.5-0.2-1.1-0.3-1.5,0.2
		c0.1,0.2,0.1,0.4,0.2,0.5c0.6,0.3,1.1,0.7,1.7,0.9c1.4,0.6,2.7,1.2,4.1,1.9c1.9,0.9,3.7,1.8,5.6,2.7c2.3,1.1,4.6,2.2,6.9,3.3
		c2.4,1.1,4.7,2.3,7.1,3.5c0.9,0.5,1.8,0.5,3-0.5c-0.4-0.3-0.6-0.5-0.9-0.6C603,373.8,601.2,372.9,599.4,372.1z"/>
	<path fill="#FFFFFF" d="M243.8,125.9c1.3,1.3,2.6,2.7,4,4c0.4,0.4,0.9,0.7,1.5,0.5c0.4-0.2,0.3-0.9-0.4-1.7c-0.3-0.4-0.6-0.7-1-1
		c-3.6-3.4-7.2-6.8-10.6-10.3c-3.4-3.5-7-6.7-10.2-10.3c-0.7-0.8-1.6-1.6-2.4-2.4c-0.6-0.6-1.2-1.2-2.7-1.3c1.2,1.3,2,2.2,2.9,3
		C231.1,112.9,237.5,119.4,243.8,125.9z"/>
	<path fill="#FFFFFF" d="M593.7,244.8c0.8,0.3,1,0.5,1.1,0.4c15.7-2.4,31.4-4.9,47.2-7.4c0.1,0,0.2-0.3,0.4-0.5
		c-0.5-0.5-1-0.8-1.7-0.6c-2.6,0.8-5.4,0.9-8.1,1.5c-6.1,1.4-12.3,2-18.5,3c-0.9,0.1-1.9,0.2-2.8,0.4c-3.9,0.7-7.8,1.5-11.7,2
		C597.8,243.9,596.1,244.3,593.7,244.8z"/>
	<path fill="#FFFFFF" d="M670.6,233.2c3.4-1,6.9-1.2,10.3-1.8c3.9-0.7,7.8-1.2,11.8-1.8c3.6-0.6,7.3-1.2,10.9-1.8
		c0.5-0.1,1.2,0,1.6-0.8c-1-0.1-1.9,0-2.8,0.2c-0.9,0.2-1.9,0.3-2.8,0.4c-3.7,0.6-7.5,0.9-11.2,1.7c-2.5,0.5-5.1,0.7-7.6,1.1
		c-5.2,0.6-10.3,1.3-15.4,2.2c-0.6,0.1-1.3,0.2-1.8,1c0.6,0.5,1.2,0.5,1.8,0.4C667,233.8,668.9,233.7,670.6,233.2z"/>
	<path fill="#FFFFFF" d="M541.1,465.3c-3.9-5.1-7.8-10.2-11.7-15.3c-1-1.3-2.2-1.9-3.9-1.6c-0.7,0.1-1.5-0.1-1.9,0.7
		c1.5,0.5,3,0.3,4.3,1.2c0.8,1.9,2.5,3.5,3.7,5.3c2.5,3.8,5.4,7.3,8,11c0.4,0.6,0.9,1.2,1.6,1.5c0.3,0.1,0.7,0.3,1.1-0.1
		c0-0.2,0.1-0.5,0-0.7C542.1,466.7,541.6,465.9,541.1,465.3z"/>
	<path fill="#FFFFFF" d="M188.1,112.1c-0.3-0.4-0.8-0.8-1.4-0.5c-0.3,0.4-0.2,0.7,0.1,1c0.6,0.6,1.2,1.2,1.9,1.7
		c4.3,3.1,8.2,6.8,12.4,10.1c2.6,2.1,5.2,4.2,7.8,6.3c0.3,0.2,0.6,0.5,0.9,0.6c0.7,0.3,1.1,0,1.3-1c-2.5-1.5-4.2-3.8-6.6-5.2
		c-1.6-1-3.2-2-4.4-3.5c-0.3-0.4-0.9-0.7-1.3-1c-1.1-0.9-2.2-1.8-3.3-2.6c-1.6-1.2-2.9-2.6-4.6-3.7
		C189.9,113.7,188.9,113.1,188.1,112.1z"/>
	<path fill="#FFFFFF" d="M632.7,125.6c1.7-0.5,3.3-1.3,4.8-2.3c2.5-1.6,5-3.3,7.6-4.7c1.4-0.8,2.1-1.8,2-3.5c-1-0.4-1.6,0.1-2.2,0.5
		c-3.9,2.4-7.8,4.9-11.6,7.3c-0.5,0.3-1,0.8-1.5,1.3c-0.3,0.3-0.3,0.7-0.1,1C631.9,125.6,632.3,125.7,632.7,125.6z"/>
	<path fill="#FFFFFF" d="M162.2,489.9c-4.6,4.1-9.3,8.1-13.9,12.2c-1.3,1.2-2.7,2.3-4,3.5c-0.9,0.9-0.9,1.2,0,2.7
		c1.7-0.8,2.5-2.4,3.9-3.5c1.5-1.1,2.9-2.4,4.1-3.8c1.1-1.4,2.8-2.3,3.7-3.7c1-1.7,2.8-2.4,4-3.9c1.1-1.4,2.3-2.6,3.6-3.9
		C162.9,489.3,162.6,489.6,162.2,489.9z"/>
	<path fill="#FFFFFF" d="M314,381c1.1-0.1,1.9-0.7,2.6-1.5c2.1-2.6,4.2-5.2,6.3-7.8c0.6-0.7,1.1-1.5,0.7-2.8
		c-1.7,0.2-2.9,0.7-3.8,1.9c-2.2,2.8-4.4,5.5-6.5,8.3c-0.3,0.4-0.7,0.7-0.6,1.2C313.6,381.1,313.7,381.1,314,381z"/>
	<path fill="#FFFFFF" d="M267,149.2C267,149.1,267,149.1,267,149.2L267,149.2C267,149.2,267,149.2,267,149.2z"/>
	<path fill="#FFFFFF" d="M275.1,157.6c2.7,2.7,5.3,5.5,8,8.2c0.6,0.6,1.3,1.4,2.1,1.7c0.5-0.2,0.6-0.4,0.5-0.7
		c-0.2-0.7-0.7-1.3-1.2-1.8c-4.7-4.8-9.3-9.6-14-14.4c-0.5-0.5-1.1-1-1.8-1.4c-0.5-0.3-1-0.3-1.5-0.1c0.3,0.4,0.5,0.8,0.8,1.1
		C270.2,152.7,272.7,155.2,275.1,157.6z"/>
	<path fill="#FFFFFF" d="M527.7,320.3c3.2,0.9,6.4,1.6,9.4,3c1.8,0.8,3.7,1.3,5.6,2c0.8,0.3,1.7,0.4,2.4-0.1
		c0.2-0.1,0.3-0.4,0.4-0.6c-0.1-0.2-0.2-0.5-0.3-0.5c-0.3-0.2-0.6-0.4-1-0.5c-5.4-1.7-10.8-3.4-16.2-5.1c-0.5-0.2-1.1-0.3-1.7-0.3
		c-0.5,0-0.9,0.3-1.1,0.8c-0.2,0.6,0.2,0.8,0.7,1C526.6,320.1,527.2,320.2,527.7,320.3z"/>
	<path fill="#FFFFFF" d="M591.8,245.6c0.1,0,0.1-0.3,0.2-0.6c-2.3,0.4-4.5,0.8-6.8,1c-2.3,0.2-4.6,0.9-7,1.1c-2.3,0.2-4.5,0.7-6.7,1
		c-2.2,0.4-4.5,0.8-6.7,1.1c-2.3,0.4-4.7,0.6-7,1.2c-2.2,0.6-4.6-0.1-6.9,1.2c0.5,0.3,0.7,0.5,0.8,0.5
		C565.1,249.9,578.5,247.8,591.8,245.6z"/>
	<path fill="#FFFFFF" d="M173.5,205.4c-1.6-0.7-3.3-0.8-4.9-1.4c-4.3-1.6-8.7-2.5-13-3.9c-1.8-0.6-3.7-1.3-6-1.1
		c0.4,0.7,0.8,0.7,1.1,0.9c2.3,0.7,4.5,1.4,6.8,2.1c4.9,1.6,9.7,3.2,14.5,4.8c0.7,0.2,1.4,0.6,2.1,0
		C174.4,206,174.1,205.7,173.5,205.4z"/>
	<path fill="#FFFFFF" d="M674.6,148.7c-1,0.4-2.1,0.8-2.9,1.9c0.7,0.6,1.3,0.6,1.9,0.4c0.8-0.3,1.6-0.6,2.4-0.9
		c3.4-1.6,6.8-3.2,10.2-4.7c1.5-0.7,2.9-1.3,4.4-2c0.5-0.2,0.7-0.8,0.5-1.1c-0.3-0.3-0.6-0.5-1-0.4c-0.5,0.2-1.1,0.4-1.6,0.6
		c-2.7,1.3-5.4,2.6-8.2,3.8C678.4,147.1,676.5,147.8,674.6,148.7z"/>
	<path fill="#FFFFFF" d="M237.3,423.2c0.9-1.1,1.9-2,2.8-3.1c1.2-1.4,2.3-2.9,3.9-3.9c0.2-0.1,0.4-0.4,0.5-0.6
		c0.5-0.9,1.3-1.6,2.2-2.1c1.8-1,2.9-2.8,4.5-4.1c0.1-0.1,0-0.3,0-0.7c-1.2,0-1.7,0.7-2.3,1.2c-1.8,1.6-3.6,3.3-5.4,4.9
		c-2.8,2.6-5.7,5.1-8.5,7.7c-0.2,0.2-0.4,0.4-0.6,0.6c-0.5,0.6-0.4,1.2,0.5,2C236,424.7,236.6,423.9,237.3,423.2z"/>
	<path fill="#FFFFFF" d="M511.4,476.6C511.4,476.6,511.4,476.5,511.4,476.6C511.4,476.5,511.4,476.5,511.4,476.6
		C511.3,476.6,511.4,476.6,511.4,476.6z"/>
	<path fill="#FFFFFF" d="M508.2,470.2c-3.2-5.7-6.5-11.4-9.7-17.1c-0.3-0.6-0.7-1.1-1.2-1.5c-0.1,0.3-0.2,0.7-0.1,1
		c1,2.3,2,4.6,3.2,6.7c1.2,2.2,2.6,4.2,3.9,6.3c0.3,0.5,0.5,1,0.7,1.5c0.3,0.9,0.8,1.7,1.3,2.4c0.7,0.9,1.1,1.8,1.5,2.9
		c0.5,1.4,1.6,2.6,2.5,3.9c0.2,0.2,0.6,0.2,1,0.3c0-0.6-0.3-1.2-0.6-1.7C510,473.2,509.1,471.7,508.2,470.2z"/>
	<path fill="#FFFFFF" d="M497.3,451.5C497.3,451.5,497.3,451.5,497.3,451.5C497.4,451.5,497.4,451.5,497.3,451.5
		C497.4,451.4,497.3,451.5,497.3,451.5z"/>
	<path fill="#FFFFFF" d="M614,137.7c0.5-0.2,1.1-0.4,1.5-0.7c3-1.9,6.1-3.7,9.1-5.6c1.1-0.7,1.2-1.8,1.2-3c-0.9-0.1-1.4,0.2-1.9,0.5
		c-3.1,2-6.1,4-9.1,6.1c-0.6,0.4-1.2,0.9-1.7,1.5c-0.1,0.2-0.2,0.5-0.1,0.8C613.2,137.6,613.6,137.8,614,137.7z"/>
	<path fill="#FFFFFF" d="M528.2,367.6c-1.7-1.3-3.2-3-5.1-3.8c-1.6-0.7-2.9-1.7-4.1-2.8c-0.4-0.4-0.8-0.9-1.3-1.1
		c-2.1-0.9-3.6-2.6-5.4-3.9c-1.2-0.9-2.5-1.6-4-2.1c-0.4-0.1-0.7-0.2-1,0.2c-0.2,0.5,0,0.9,0.5,1.2c2.2,1.4,4.3,2.9,6.7,4.1
		c2.4,1.2,4.4,3.1,6.7,4.4c2.4,1.3,4.4,3.1,6.6,4.6c0.4,0.3,0.7,0.5,0.8,0.9C528.6,368.8,528.8,368.1,528.2,367.6z"/>
	<path fill="#FFFFFF" d="M398.3,70.5c-0.6,0.1-1,0.5-1.2,1.4c-0.1,0.5-0.1,0.9-0.1,1.4c0,1.4,0,2.8,0,4.1c0,2,0,4,0.1,6.1
		c0,0.5,0,1.1,0.7,1.4c0.2-0.1,0.5-0.2,0.6-0.4c0.4-0.8,0.6-1.7,0.7-2.7c0.1-3.3,0.1-6.6,0.2-9.9C399.3,70.9,398.9,70.4,398.3,70.5z
		"/>
	<path fill="#FFFFFF" d="M606.6,214.5c2.2-0.3,14.8-4.1,17-5.2c-1.1-0.9-2.1-0.8-3.1-0.4c-4.1,1.3-8.3,2.6-12.5,3.6
		c-0.9,0.2-1.8,0.5-2.7,0.9c-0.4,0.1-0.6,0.4-0.4,0.9C605.4,214.7,606,214.6,606.6,214.5z"/>
	<path fill="#FFFFFF" d="M63.5,135.5c1.8,0.8,3.6,1.6,5.4,2.4c3.6,1.7,7.2,3.4,10.8,5.1c1.2,0.6,2.4,1.1,3.7,1.4
		c0.4,0.1,0.7,0.1,1-0.5c-0.6-0.8-1.6-1.1-2.5-1.5c-4-1.7-8-3.4-12-5.1c-2.8-1.2-5.6-2.5-8.6-3.3C61.8,134.8,62.7,135.1,63.5,135.5z
		"/>
	<path fill="#FFFFFF" d="M362.1,515.3c0.3,2.2,0.5,4.3-0.5,6.5c-0.4,0.9-0.3,2-0.5,3c-0.2,0.9,0.3,1.5,1,2c0,0,0,0.1,0,0.1
		c0,0,0.1,0,0.1,0c0,0,0,0,0,0c0,0,0,0,0,0l-0.1-0.1c0.9-1.8,0.9-3.9,1.6-5.8c0-0.1,0-0.2,0-0.3c-0.1-2,0.3-4,1-5.9
		c0.4-1.4,0.2-2.2-0.9-3.8C362.3,512.1,361.8,513.5,362.1,515.3z"/>
	<path fill="#FFFFFF" d="M37.5,237.7c-0.1,0-0.3,0.3-0.3,0.4c0,0.2,0.1,0.4,0.2,0.5c0.5,0.4,1.2,0.5,1.9,0.5c2.1,0,4.1,0.4,6.2,0.7
		c2.4,0.3,4.9,0.5,7.3,0.7c0.5,0,1.2,0.1,1.3-0.6c-0.3-0.6-1-0.5-1.5-0.6c-4.6-0.6-9.2-1.2-13.8-1.7C38.4,237.5,38,237.6,37.5,237.7
		z"/>
	<path fill="#FFFFFF" d="M550.5,431c0,0,0,0.1,0,0.1C550.6,431.1,550.6,431.1,550.5,431C550.6,431.1,550.6,431.1,550.5,431
		C550.6,431,550.6,431,550.5,431z"/>
	<path fill="#FFFFFF" d="M538.4,417.7C538.4,417.7,538.4,417.7,538.4,417.7C538.4,417.7,538.4,417.6,538.4,417.7
		C538.4,417.6,538.4,417.7,538.4,417.7z"/>
	<path fill="#FFFFFF" d="M549.9,429.4c-2.1-2.5-4.8-4.4-6.9-7c-1.4-1.7-3.1-3.2-4.6-4.8c-0.6,1.7,0.3,2.8,1.6,3.6
		c0.9,0.6,2.1,0.8,2,2.3c0,0.2,0.3,0.5,0.5,0.6c1.4,1,2.7,2.2,3.8,3.6c0.8,0.9,1.9,1.7,2.7,2.7c0.3,0.4,0.9,0.5,1.4,0.6
		C550.6,430.4,550.3,429.9,549.9,429.4z"/>
	<path fill="#FFFFFF" d="M535.3,253.8c-2.2,0.3-4.5,0.6-6.8,1c-0.4,0.1-1,0.1-1.2,0.8c0.9,0.6,1.7,0.3,2.6,0.1
		c4.7-0.8,9.3-1.6,14-2.3c1.5-0.2,3-0.4,4.5-0.7c0.4-0.1,1-0.1,0.9-0.9c-1.5,0.2-3,0.3-4.5,0.6C541.7,252.8,538.5,253.3,535.3,253.8
		z"/>
	<path fill="#FFFFFF" d="M82.2,79.4c3.3,2.1,6.7,4.2,10.1,6.2c2.4,1.4,4.6,3.2,7.2,4.2c-0.2-0.6-0.7-1-1.3-1.3
		c-1.4-0.9-3-1.7-4.3-2.7c-3.4-2.8-7.4-4.8-10.9-7.5c-0.3-0.2-0.6-0.4-1-0.6c-0.4-0.1-0.7-0.2-1,0.2C81,78.9,81.7,79.1,82.2,79.4z"
		/>
	<path fill="#FFFFFF" d="M215.5,440.6c-2.8,2.6-5.4,5.3-8.4,7.8c-0.7,0.6-1.2,1.4-1.2,2.4c0.9-0.4,1.7-1,2.5-1.7
		c1.4-1.3,3-2.5,4.4-3.8c1.3-1.2,2.6-2.4,3.9-3.6c0.3-0.2,0.5-0.5,0.7-0.9c0.2-0.5,0.4-1.1-0.4-1.3
		C216.4,439.6,216,440.2,215.5,440.6z"/>
	<path fill="#FFFFFF" d="M707.3,226.8c0.6,0.6,1,0.4,1.3,0.3c1.5-0.3,3-0.6,4.4-0.8c4.1-0.4,8.2-1,12.3-1.7c0.4-0.1,0.7-0.2,0.8-0.6
		c-0.3-0.8-1-0.8-1.6-0.7c-5.1,0.9-10.1,2.3-15.2,2.8C708.8,226.1,708.2,226.5,707.3,226.8z"/>
	<path fill="#FFFFFF" d="M683,295.8c1,0.3,1.3,0.6,1.7,0.6c6.8,0.4,13.5,0.8,20.3,1.2c0.1,0,0.2-0.1,0.2-0.2c0-0.1,0-0.2,0-0.3
		C700.9,296.4,685.7,295.3,683,295.8z"/>
	<path fill="#FFFFFF" d="M220.8,102.3c0.3-0.7,0.1-1-0.1-1.2c-3.5-3.2-6.5-6.9-9.6-10.4c-0.4-0.4-0.7-0.9-1.2-1.2
		c-0.5-0.3-1-0.5-1.5,0.2c0.1,0.2,0.1,0.5,0.3,0.7C212.7,94.3,217,97.9,220.8,102.3z"/>
	<path fill="#FFFFFF" d="M158.2,151c-2.7-1.6-5.5-3-8.6-3.7c0.5,1,1.6,1.1,2.5,1.6c3.1,1.9,6.3,3.7,9.5,5.5c0.3,0.2,0.7,0.3,1,0.4
		c0.4,0.1,0.8,0.1,0.9-0.4c0-0.2-0.1-0.6-0.3-0.7C161.5,152.7,159.8,151.9,158.2,151z"/>
	<path fill="#FFFFFF" d="M183.4,110c0.5,0.5,1,1,1.8,1.2c0-0.9-0.5-1.3-0.9-1.8c-2.1-2.5-5.2-3.9-7.6-6.1c-0.5-0.4-1-0.8-2.4-0.9
		C177.3,105.5,180.7,107.5,183.4,110z"/>
	<path fill="#FFFFFF" d="M258.9,400.7c-2.1,1.9-4.1,3.9-6.2,5.9c-0.1,0.1,0,0.3-0.1,0.9c1.5-0.8,2.4-1.7,3.4-2.5
		c2-1.5,3.8-3.2,5.4-5.2c0.2-0.3,0.4-0.6-0.2-1C260.3,399.2,259.6,400.1,258.9,400.7z"/>
	<path fill="#FFFFFF" d="M193,73.8c0.1,0.1,0.3,0,0.5-0.1c0-0.2,0-0.4-0.1-0.5c-3-3-6-6.1-9-9.1c-0.1-0.1-0.3-0.1-0.8-0.2
		C185,66,191.4,72.5,193,73.8z"/>
	<path fill="#FFFFFF" d="M360.8,528.7c0,1.4-0.3,2.7-0.6,4.1c-0.2,0.9-0.3,1.8-0.3,2.7c0,0.5,0.3,0.9,1,0.6c1.4-2.9,1.3-6.1,1.2-9.2
		C361.3,527.2,360.8,527.8,360.8,528.7z"/>
	<path fill="#FFFFFF" d="M737,300.3c0.5,0,1.2,0,1.1-1.2c-3.9,0.1-7.6-0.8-11.7-0.4c2.6,0.8,5,0.9,7.2,1.2
		C734.8,300.1,735.9,300.2,737,300.3z"/>
	<path fill="#FFFFFF" d="M267,149.1C267,149.1,267,149.1,267,149.1C267,149.1,267,149.1,267,149.1C267,149.2,267,149.1,267,149.1z"
		/>
	<path fill="#FFFFFF" d="M266.5,147.2c-1.3-1.6-2.6-3.1-3.9-4.7c-0.6-0.7-1.3-0.8-1.7-0.4c-0.5,0.6-0.1,1.1,0.3,1.4
		c1.9,1.9,3.9,3.7,5.8,5.5C267.2,148.3,267,147.7,266.5,147.2z"/>
	<path fill="#FFFFFF" d="M70.1,275.4c-0.3,0-0.7,0.1-1.1,0.3c-0.6,0.3-0.9,0.7-0.3,1.5c1.7,0,3.5,0,5.2,0c0.4,0,0.7-0.1,1.5-0.3
		c-0.5-0.5-0.6-0.8-0.8-0.9C73.1,275.8,71.6,275.6,70.1,275.4z"/>
	<path fill="#FFFFFF" d="M713.7,298.1c1.4,0.3,3,0.4,4.5,0.3c1.6-0.1,3.1,0.9,4.7,0.2c-0.2-0.2-0.3-0.4-0.4-0.4
		c-4.5-0.1-8.9-0.9-13.8-0.7C710.5,298.5,712.2,297.7,713.7,298.1z"/>
	<path fill="#FFFFFF" d="M535.8,373.7c0.1,0,0.1,0,0.2,0C536,373.7,535.9,373.7,535.8,373.7C535.9,373.6,535.8,373.7,535.8,373.7z"
		/>
	<path fill="#FFFFFF" d="M546.4,380C546.4,380,546.5,380,546.4,380C546.4,380,546.4,380,546.4,380C546.4,380,546.4,380,546.4,380z"
		/>
	<path fill="#FFFFFF" d="M536,373.7c2.2,2.2,5.1,3.5,7.4,5.7c0.3,0.3,0.8,0.5,1.2,0.7c0.6,0.3,1.2,0.2,1.8-0.1
		c-2.4-1.9-5.1-3.5-7.7-5.2C537.9,374.3,537,373.7,536,373.7z"/>
	<path fill="#FFFFFF" d="M360,538.9c-1.4,2.3-0.9,4.8-1.3,7c-0.1,0.5-0.1,1.1,0.5,1.5c0.5,0,0.7-0.3,0.6-0.7
		c-0.3-1.3,0.1-2.5,0.5-3.7c0.2-0.7,0.5-1.4,0.6-2.1C361,540.2,361,539.5,360,538.9z"/>
	<path fill="#FFFFFF" d="M504.2,547.6C504.2,547.6,504.2,547.6,504.2,547.6C504.2,547.6,504.2,547.6,504.2,547.6
		c0,0.3,0,0.6,0.1,0.8C504.2,548.1,504.2,547.9,504.2,547.6L504.2,547.6z"/>
	<path fill="#FFFFFF" d="M499.7,537.2c-0.7,0.8-0.8,1.6-0.3,2.2c1.2,1.5,1.7,3.2,2.6,4.8c0.4,0.7,0.7,1.5,1.1,2.2
		c0.2,0.5,0.6,0.9,1.1,1.1c-1.1-2.9-2.2-5.8-3.4-8.7C500.6,538.3,500.4,537.5,499.7,537.2z"/>
	<path fill="#FFFFFF" d="M175.3,55.5c-0.1-0.6-0.1-0.8-0.2-0.9c-1-1.2-2.2-2.3-2.2-4c0-0.1-0.1-0.2-0.1-0.2c-0.2-0.4-1-0.6-1.5-0.3
		c-0.5,0.3-0.4,0.7-0.2,1.2C171.7,52.6,173.2,54.1,175.3,55.5z"/>
	<path fill="#FFFFFF" d="M52.4,130.5c2.1,1.1,4.2,2.2,6.4,3c0.8,0.3,1.5,0.5,2.4,0.4c-2.7-1.6-6.8-3.4-8.9-3.8
		C52.3,130.2,52.3,130.5,52.4,130.5z"/>
	<path fill="#FFFFFF" d="M61.2,133.9c0,0,0.1,0,0.1,0C61.3,133.9,61.3,133.9,61.2,133.9C61.2,133.9,61.2,133.9,61.2,133.9
		C61.2,133.9,61.2,133.9,61.2,133.9C61.2,133.9,61.2,133.9,61.2,133.9z"/>
	<path fill="#FFFFFF" d="M42.5,125.5c-0.9-0.5-1.8-1-2.8-1.4c-0.6-0.3-1.2-0.5-1.9-0.6c-0.4-0.1-0.8,0-0.8,0.5
		c1.6,1,6.4,2.9,8.1,2.9C44.3,126.4,43.4,126,42.5,125.5z"/>
	<path fill="#FFFFFF" d="M296.9,49.4c-0.4-0.8-0.8-1.7-1.6-2.2c-0.9-0.6-0.6-1.9-1.6-2.6c0.4,2.9,1,4.1,2.7,5.9
		C297.1,50.3,297.1,49.8,296.9,49.4z"/>
	<path fill="#FFFFFF" d="M199.4,456.9c1.5-1.5,3.7-2.4,4.2-4.7c-1.4,1.2-2.9,2.3-4.2,3.5C199,455.9,198.7,456.4,199.4,456.9z"/>
	<path fill="#FFFFFF" d="M128.9,193c2,0.4,3.9,1,5.7,1.8c0.5,0.2,1.1,0.4,1.6-0.5c-2.3-0.9-4.6-1.4-6.9-1.8c-0.1,0-0.1,0.1-0.2,0.2
		C128.7,192.6,129.4,192.6,128.9,193z"/>
	<path fill="#FFFFFF" d="M104.6,92.6c-0.2-0.1-0.5-0.3-1,0.2c2.3,1,3.8,2.9,6.2,3.5C108.1,95,106.4,93.8,104.6,92.6z"/>
	<path fill="#FFFFFF" d="M531.1,369.5C531.1,369.5,531.1,369.5,531.1,369.5C531.1,369.5,531.1,369.4,531.1,369.5L531.1,369.5z"/>
	<path fill="#FFFFFF" d="M535.8,373.7C535.8,373.7,535.9,373.6,535.8,373.7C535.9,373.6,535.9,373.6,535.8,373.7
		C535.8,373.7,535.8,373.7,535.8,373.7z"/>
	<path fill="#FFFFFF" d="M534.6,372c-1.3-0.7-2.5-1.5-3.5-2.5c0,0.3-0.1,0.8,0.1,1c1.4,1.2,2.5,2.8,4.6,3.2
		C535.7,372.9,535.3,372.4,534.6,372z"/>
	<path fill="#FFFFFF" d="M141.7,75.9c-0.5-1.8-1.5-2.4-2.5-3c-0.2-0.1-0.6,0-0.7,0.3c-0.1,0.1-0.1,0.4,0,0.5
		C139.2,74.6,140.1,75.2,141.7,75.9z"/>
	<path fill="#FFFFFF" d="M257.5,31.1c-1.1-3-1.1-3-2-3.1C256,29.3,256.5,30.4,257.5,31.1z"/>
	<path fill="#FFFFFF" d="M149.3,147.1c0,0,0.1,0.1,0.1,0.1c0,0,0,0,0,0c0,0,0.1,0,0.1,0c0,0,0,0,0-0.1
		C149.5,147.2,149.4,147.1,149.3,147.1z"/>
	<path fill="#FFFFFF" d="M149.3,147.1c-2.5-1.9-2.8-2-4.4-2.2C146.5,146.3,147.1,146.6,149.3,147.1z"/>
	<path fill="#FFFFFF" d="M42.7,165.7c0-0.3,0-0.4,0-0.4c-0.9-1.1-1.4-1.3-2-0.9c-0.1,0-0.1,0.2-0.1,0.2c0.1,1,1,0.8,1.7,1.1
		C42.3,165.8,42.4,165.8,42.7,165.7z"/>
	<path fill="#FFFFFF" d="M144.7,197.4c0,0.1,0.1,0.4,0.2,0.4c0.5,0.3,1,0.4,1.8-0.2c-0.6-0.4-1.1-0.8-1.7-0.6
		C144.8,197.1,144.7,197.2,144.7,197.4z"/>
	<path fill="#FFFFFF" d="M139.6,196.1c0.5,0.5,1.1,0.7,2.1,0.7C140.7,195.4,140.6,195.5,139.6,196.1z"/>
	<path fill="#FFFFFF" d="M358.9,549.5c-0.1,0-0.4,0.1-0.5,0.2c-0.4,0.7-0.4,1.5,0,2.5c0.7-0.8,1-1.4,0.8-2.3
		C359.3,549.7,359.1,549.5,358.9,549.5z"/>
	<path fill="#FFFFFF" d="M249.9,17.3c0-0.6-0.1-1.1-1.1-1.3c0.2,0.5,0.2,0.7,0.4,0.9C249.3,17.2,249.4,17.6,249.9,17.3z"/>
	<path fill="#FFFFFF" d="M358,555.5c0.8-0.5,0.6-1.2,0.5-1.9C357.7,553.9,357.7,553.9,358,555.5z"/>
	<path fill="#FFFFFF" d="M48.6,129c0.3,0.1,0.6,0.4,0.9-0.2c-0.4-0.2-0.7-0.7-1.4-0.5C48.1,128.8,48.4,128.9,48.6,129z"/>
	<path fill="#FFFFFF" d="M186.9,467.5c0.7,0.1,1-0.3,1.1-1.1C187.3,466.6,186.8,466.9,186.9,467.5z"/>
	<path fill="#FFFFFF" d="M122.7,190.7c0.8,0.5,1.3,0.9,2,0.4C124.2,190.4,123.6,190.5,122.7,190.7z"/>
	<path fill="#FFFFFF" d="M114.3,99.1c-0.6-0.4-1.1-0.8-1.7-1.2C113.3,98.9,113.3,98.9,114.3,99.1z"/>
	<path fill="#FFFFFF" d="M112.6,97.8C112.6,97.8,112.6,97.8,112.6,97.8L112.6,97.8C112.6,97.8,112.6,97.8,112.6,97.8
		C112.6,97.8,112.6,97.8,112.6,97.8c-0.2,0-0.4,0-0.5,0C112.3,97.9,112.4,97.8,112.6,97.8C112.6,97.8,112.6,97.8,112.6,97.8z"/>
	<path fill="#FFFFFF" d="M179.5,59.7c0-0.6-0.4-0.9-1.2-1.2C178.6,59.3,178.8,59.8,179.5,59.7z"/>
	<path fill="#FFFFFF" d="M195.2,459.9c0.7-0.3,1.4-0.3,1.4-1C195.8,458.7,195.6,459.2,195.2,459.9z"/>
	<path fill="#FFFFFF" d="M191,464c-0.8,0-1.2,0.3-1.3,1C190.5,465.1,191,464.8,191,464z"/>
	<path fill="#FFFFFF" d="M118.6,101.8c-0.5-0.5-0.7-1.3-1.7-0.9C117.3,101.6,117.8,101.9,118.6,101.8z"/>
	<path fill="#FFFFFF" d="M118.7,101.8c0,0-0.1,0-0.1,0C118.6,101.9,118.6,101.9,118.7,101.8C118.6,101.9,118.7,101.8,118.7,101.8z"
		/>
	<path fill="#FFFFFF" d="M262.8,397.5c-0.1,0.1-0.1,0.2-0.1,0.3c0.1,0.1,0.1,0.1,0.2,0.2c0.4,0.2,0.8,0.1,1-0.2
		c0.1-0.1,0-0.4-0.1-0.5C263.4,397,263.1,397.2,262.8,397.5z"/>
	<path fill="#FFFFFF" d="M172.1,100.2c-0.1,0.2-0.1,0.3,0.1,0.4c0.1,0,0.2,0,0.2,0c0.1-0.2,0.1-0.3-0.1-0.4
		C172.2,100.2,172.1,100.2,172.1,100.2z"/>
	<path fill="#FFFFFF" d="M165.9,487c0,0.2,0.1,0.3,0.3,0.3c0.2-0.1,0.4-0.2,0.7-0.4c-0.3-0.3-0.4-0.4-0.5-0.4
		C166.1,486.5,165.9,486.7,165.9,487z"/>
	<path fill="#FFFFFF" d="M169.4,483.7c-0.1,0.2,0.1,0.3,0.3,0.2c0.1,0,0.1-0.1,0.1-0.2c0,0-0.1-0.1-0.2-0.1
		C169.5,483.6,169.4,483.7,169.4,483.7z"/>
	<path fill="#FFFFFF" d="M105.1,185.2c0,0,0.1-0.1,0.1-0.1c-0.1,0-0.1-0.1-0.2-0.1c0,0-0.1,0.1-0.1,0.1
		C104.9,185.2,105,185.2,105.1,185.2z"/>
	<path fill="#FFFFFF" d="M100.7,90.4c-0.2-0.5-0.6-0.5-1-0.4C100,90.1,100.2,90.6,100.7,90.4z"/>
	<path fill="#FFFFFF" d="M99.7,89.9C99.7,89.9,99.6,89.9,99.7,89.9c-0.1,0-0.1,0-0.1,0c0,0-0.1,0-0.1,0c0,0,0,0.1,0,0.1
		C99.6,89.9,99.6,89.9,99.7,89.9z"/>
	<polygon fill="#FFFFFF" points="282.7,17.7 282.5,17.7 282.6,17.8 	"/>
	<polygon fill="#FFFFFF" points="175.1,478.9 175,478.8 175,479 	"/>
	<polygon fill="#FFFFFF" points="254.5,25.1 254.4,25.1 254.5,25.3 	"/>
	<path fill="#FFFFFF" d="M528.6,369.5c0,0,0-0.1,0-0.1C528.6,369.4,528.6,369.4,528.6,369.5C528.6,369.5,528.6,369.5,528.6,369.5
		c0.8-0.1,1.6,0.4,2.4,0C530.2,369.3,529.4,369.3,528.6,369.5z"/>
	<path fill="#FFFFFF" d="M531.1,369.5C531.1,369.5,531.1,369.4,531.1,369.5C531.1,369.4,531.1,369.5,531.1,369.5
		C531.1,369.5,531.1,369.5,531.1,369.5z"/>
	<path fill="#FFFFFF" d="M575,48.7c0.2,0,0.3-0.1,0.5-0.1c-0.2,0-0.3-0.1-0.5-0.1c-0.3,0-0.4,0.1-0.3,0.2
		C574.7,48.8,574.9,48.8,575,48.7z"/>
	<path fill="#FFFFFF" d="M575.5,48.6C575.5,48.6,575.5,48.6,575.5,48.6C575.5,48.6,575.5,48.6,575.5,48.6
		C575.4,48.4,575.4,48.2,575.5,48.6C575.5,48.6,575.5,48.5,575.5,48.6C575.5,48.6,575.5,48.6,575.5,48.6
		C575.5,48.6,575.5,48.6,575.5,48.6C575.5,48.6,575.5,48.6,575.5,48.6L575.5,48.6z"/>
	<path fill="#FFFFFF" d="M357.2,560.3c-0.1,0.2,0,0.3,0.2,0.2c0,0,0-0.1,0.1-0.2c0-0.1-0.1-0.1-0.1-0.2
		C357.3,560.2,357.2,560.2,357.2,560.3z"/>
	<path fill="#FFFFFF" d="M575.5,48.5C575.4,48.5,575.4,48.5,575.5,48.5C575.4,48.5,575.4,48.5,575.5,48.5z"/>
	<path fill="#FFFFFF" d="M575.4,48.4C575.4,48.4,575.4,48.4,575.4,48.4L575.4,48.4z"/>
	<path fill="#FFFFFF" d="M205.4,450.8c0.2,0,0.3,0,0.5,0C205.7,450.7,205.5,450.5,205.4,450.8z"/>
	<path fill="#FFFFFF" d="M205.9,450.8C205.9,450.8,205.9,450.8,205.9,450.8L205.9,450.8C206,450.8,206,450.8,205.9,450.8
		C205.9,450.7,205.9,450.8,205.9,450.8C205.9,450.8,205.9,450.8,205.9,450.8z"/>
	<path fill="#FFFFFF" d="M504.3,548.4c0,0.3,0.1,0.7,0.1,1c0,0,0,0,0,0C504.3,549,504.3,548.7,504.3,548.4z"/>
</g>
</svg>
