<?xml version="1.0" encoding="utf-8"?>
<!-- Generator: Adobe Illustrator 18.1.0, SVG Export Plug-In . SVG Version: 6.00 Build 0)  -->
<svg version="1.1" id="Layer_1" xmlns="http://www.w3.org/2000/svg" xmlns:xlink="http://www.w3.org/1999/xlink" x="0px" y="0px"
	 viewBox="0 0 201.6 201.6" enable-background="new 0 0 201.6 201.6" xml:space="preserve">
<g>
	<path fill="none" stroke="#FFFFFF" stroke-width="2" stroke-miterlimit="10" d="M179.3,91.1c-4.9-39.1-38.2-69.3-78.6-69.3
		C57,21.8,21.6,57.2,21.6,101c0,4.7,0.4,9.3,1.2,13.8L179.3,91.1z"/>
	<path fill="none" stroke="#FFFFFF" stroke-width="2" stroke-miterlimit="10" d="M43.4,155.5c14.4,15.2,34.8,24.6,57.4,24.6
		c31.2,0,58.2-18,71.1-44.2L43.4,155.5z"/>
</g>
<g>
	<path fill="none" stroke="#FFFFFF" stroke-width="2" stroke-miterlimit="10" d="M196.3,127.2c0,2.8-2.2,5.4-5,5.8L11.2,160.5
		c-2.7,0.4-5-1.5-5-4.3v-33.8c0-2.8,2.2-5.4,5-5.8l180.1-27.2c2.7-0.4,5,1.5,5,4.3V127.2z"/>
</g>
<path fill="#FFFFFF" d="M72.5,116.6c1.3-0.2,2.7-0.4,4.1-0.6c1.3,0.9,2.7,1.9,4.1,3c0.2,1.5,0.5,3.1,0.7,4.7
	c1.8-0.3,3.6-0.5,5.5-0.8c-0.4-2.7-0.8-5.4-1.2-8.2c1.4-0.2,2.7-0.4,4.1-0.6c1.3,0.9,2.6,1.9,4,2.9c1,6.9,2.1,13.8,3.1,20.7
	c-1.3,0.2-2.6,0.4-4,0.6c-1.3-0.9-2.7-1.9-4.1-3c-0.2-1.5-0.5-3.1-0.7-4.7c-1.8,0.3-3.6,0.6-5.5,0.8c0.4,2.7,0.8,5.4,1.2,8.2
	c-1.4,0.2-2.6,0.4-4.1,0.6c-1-0.7-2.2-1.6-3.3-2.4c-0.2-0.2-0.5-0.3-0.8-0.4C74.7,130.5,73.6,123.5,72.5,116.6z M89.2,114.9
	c-0.8,0.1-1.6,0.2-2.6,0.4c0.6,3.9,1.2,7.7,1.8,11.6c-3.5,0.5-7,1.1-10.5,1.6c-0.4-2.9-0.9-5.7-1.3-8.5c-1-0.7-1.9-1.4-2.9-2.1
	c1,6.4,1.9,12.6,2.9,18.9c0.9,0.6,1.8,1.3,2.9,2.1c-0.4-2.8-0.8-5.2-1.2-7.7c3.5-0.5,7-1.1,10.5-1.6c0.3,1.7,0.5,3.3,0.7,4.9
	c0.9-0.1,1.7-0.3,2.6-0.4C91.1,127.7,90.1,121.3,89.2,114.9z M90.1,115.4c1,6.4,1.9,12.7,2.9,18.9c1,0.7,1.9,1.4,3,2.1
	c-1-6.4-1.9-12.6-2.9-18.9C92.1,116.8,91.2,116.1,90.1,115.4z M79.2,131.9c0.4,2.5,0.8,4.9,1.1,7.4c0.9-0.1,1.7-0.3,2.5-0.4
	c-0.4-2.5-0.7-4.9-1.1-7.4C80.9,131.6,80.1,131.8,79.2,131.9z M87,123.8c-1.9,0.3-3.8,0.6-5.7,0.9c-0.7,0.9-1.3,1.8-2.1,2.8
	c2.8-0.4,5.4-0.8,8.1-1.2C87.3,125.4,87.1,124.7,87,123.8z M78.5,127c0.8-1.1,1.5-2,2.2-2.9c-0.2-1.5-0.4-2.9-0.7-4.3
	c-0.9,0.1-1.7,0.3-2.6,0.4C77.8,122.5,78.1,124.7,78.5,127z M74.1,117.2c1.1,0.8,2,1.5,2.8,2.1c0.7-0.1,1.4-0.2,2.2-0.3
	c-1.1-0.8-2-1.4-2.9-2.1C75.6,116.9,75,117,74.1,117.2z M95.3,137c-1.1-0.8-2-1.5-2.9-2.1c-0.7,0.1-1.4,0.2-2.2,0.3
	c1.1,0.8,2,1.5,2.9,2.1C93.9,137.3,94.5,137.2,95.3,137z"/>
<path fill="#FFFFFF" d="M165.6,127.3c-1.9,0.3-3.7,0.6-5.5,0.8c-1.6-1.2-3.2-2.4-4.8-3.5c-0.8,1.9-2.2,3.1-3.2,4.7
	c-1.4,0.2-2.7,0.4-4,0.6c-1-6.9-2.1-13.7-3.1-20.7c1-1.3,2-2.7,3-4c1.3-0.2,2.6-0.4,4-0.6c0.3,2,0.6,3.9,0.9,6.1
	c2-2.5,3.6-4.8,5.3-7.1c1.9-0.3,3.8-0.6,5.8-0.9c0.3,1.8,0.5,3.6,0.8,5.5c-2.1,2.8-4.2,5.6-6.3,8.6c3.2,2.4,6.4,4.7,9.7,7.1
	C167.2,125.1,166.4,126.1,165.6,127.3z M163.8,126.6c0-0.1,0-0.2,0.1-0.2c-4.8-3.5-9.7-7.1-14.6-10.6c-0.3-2.1-0.6-4.2-1-6.3
	c-0.9,0.1-1.7,0.3-2.5,0.4c1,6.4,1.9,12.7,2.9,19.1c0.9-0.1,1.7-0.3,2.5-0.4c-0.4-2.9-0.9-5.7-1.3-8.9c3.6,2.6,7,5.1,10.3,7.5
	C161.5,127,162.7,126.8,163.8,126.6z M158.6,104.3c-2.7,3.7-5.5,7.4-8.2,11.1c5,3.6,9.9,7.2,14.8,10.9c0.6-0.8,1.1-1.5,1.6-2.3
	c-4.3-3.1-8.4-6.1-12.6-9.2c2.7-3.7,5.4-7.3,8.2-11.1C161.1,104,159.9,104.2,158.6,104.3z M155.5,114.7c0.8,0.6,1.5,1.1,2.2,1.6
	c2.1-2.9,4.2-5.7,6.2-8.4c-0.2-1.3-0.4-2.5-0.6-3.8C160.7,107.7,158.1,111.2,155.5,114.7z M152.2,111.6c-0.3-1.8-0.5-3.6-0.8-5.6
	c-0.8,1.1-1.5,2-2.1,2.9c0.3,1.9,0.6,3.7,0.8,5.6C150.8,113.5,151.5,112.6,152.2,111.6z M154,123.6c-1-0.7-1.9-1.4-2.9-2.1
	c0.3,2.1,0.6,4.2,1,6.3c0.8-1,1.5-2,2.2-2.9C154.1,124.5,154.1,124.1,154,123.6z M146.3,108.8c0.9-0.1,1.5-0.2,2.2-0.3
	c0.7-0.9,1.3-1.8,2.1-2.8c-0.8,0.1-1.5,0.2-2.2,0.3C147.8,106.8,147.1,107.7,146.3,108.8z"/>
<path fill="#FFFFFF" d="M132.3,126.3c3-0.3,4.4-2,5-5.9c1.4-0.2,2.8-0.4,4.3-0.6c1,0.8,2.1,1.6,3.3,2.4c-0.1,2-0.8,3.7-1.8,5.2
	c-1.5,2.3-3.6,3.8-6.3,4.2c-1.7,0.3-3.4,0.6-5.1,0.6c-4.2-0.1-7.3-2.4-9-6.6c-1.8-4.3-1.9-8.7,0.3-12.8c1.4-2.7,3.6-4.3,6.5-4.9
	c1.4-0.3,2.9-0.5,4.3-0.6c3.9-0.4,8.1,2.4,9.7,6.6c-0.8,1.1-1.6,2.2-2.5,3.4c-1.3,0.2-2.6,0.4-4,0.6c-0.6-1.8-1.4-3.5-3-4.7
	c-2.2,0.3-3.6,1.7-4.4,3.9C128.6,119.9,129.5,124.4,132.3,126.3z M132,131.3c-1.8-0.8-3.4-2.1-4.6-3.8c-1.6-2.2-2.3-4.8-2.4-7.5
	c-0.1-2.3,0.4-4.5,1.8-6.3c1.3-1.6,2.8-2.6,4.9-2.4c2.2,0.2,3.8,1.7,5,3.7c0.3,0.5,0.5,1,0.8,1.6c0.6-0.8,1.2-1.6,1.8-2.4
	c-1.8-3.2-4.2-5.2-7.5-5.5c-3.4-0.3-6.1,1.3-7.9,4.4c-1.2,2.1-1.7,4.5-1.5,7c0.2,3.6,1.3,6.7,4,9C127.9,130.7,129.8,131.4,132,131.3
	z M132.8,112.6c-1.2-0.6-2.3-0.4-3.4,0.1c-1.8,0.8-2.8,2.4-3.3,4.4c-0.6,2.6-0.2,5.2,0.7,7.6c1.4,3.4,3.7,5.6,7.1,6.1
	c3.4,0.5,6.4-0.7,8.5-3.7c0.9-1.3,1.5-2.8,1.7-4.5c-0.8-0.6-1.5-1.1-2.3-1.7c-0.3,1-0.4,2-0.7,2.9c-0.9,2.5-2.6,4-5.1,4.3
	c-2.5,0.3-4.5-0.9-5.9-3.1c-0.5-0.8-0.9-1.7-1.2-2.7C127.5,118.1,129.1,114.3,132.8,112.6z M138.1,121.2c-0.2,1.3-0.6,2.5-1.4,3.6
	c-0.8,1-1.8,1.7-3,2.2c3.5,1.4,7.1-1.7,7-6.1C139.9,121,139,121.1,138.1,121.2z M134,108.3c2.7,1.1,4.6,3,5.9,5.4
	c0.9-0.1,1.7-0.3,2.5-0.4C141,110.2,137.1,107.8,134,108.3z M140.6,116.5c0.5-0.7,1-1.4,1.6-2.2c-0.9,0.1-1.5,0.2-2.2,0.3
	c-0.4,0.7-1.1,1.3-1.4,2.1C139.2,116.7,139.9,116.6,140.6,116.5z"/>
<path fill="#FFFFFF" d="M104.9,111.7c1.5-0.2,2.9-0.4,4.3-0.7c4.6,6.3,9.2,12.5,13.9,18.8c-0.6,1.4-1.2,2.7-1.8,4.1
	c-1.5,0.2-2.9,0.4-4.3,0.7c-0.7-1-1.5-2-2.3-3c-3,0.5-6,0.9-9.1,1.4c-0.4,1.1-0.8,2.3-1.3,3.6c-1.4,0.2-2.8,0.4-4.3,0.7
	c-0.9-1.1-1.9-2.2-2.9-3.3C99.7,126.5,102.3,119.1,104.9,111.7z M122.1,130c-4.3-5.8-8.6-11.6-13-17.6c-1.5,4.4-3,8.6-4.4,12.8
	c1.1-0.2,1.9-0.3,2.8-0.4c0.9-2.3,1.5-4.5,2.5-6.9c3.7,5,7.3,9.8,10.9,14.8C121.3,131.8,121.7,130.9,122.1,130z M103.4,126.4
	c1.7-4.9,3.3-9.6,5-14.5c-0.6,0.1-1.1,0.2-1.5,0.2c-0.5,0.1-0.9,0.1-1.3,0.2c-2.1,5.3-7,19.8-7,20.7c0.9-0.1,1.8-0.3,2.6-0.4
	c0.4-1.2,0.9-2.4,1.3-3.7c3.1-0.5,6.2-0.9,9.3-1.4c-0.6-0.8-1.1-1.5-1.7-2.2C108,125.7,105.8,126.1,103.4,126.4z M120.2,133.2
	c-3.4-4.6-6.6-9-10-13.5c-0.4,1.1-0.7,2-1,2.9c1.4,1.9,2.7,3.7,4.2,5.7c-3.3,0.5-6.4,1-9.8,1.5c0.7,0.9,1.3,1.5,2,2.3
	c3.2-0.5,6.4-1,9.5-1.4c0.8,1.1,1.5,2,2.2,3C118.3,133.5,119.2,133.4,120.2,133.2z M100.3,136.2c1-0.2,1.9-0.3,3-0.5
	c-0.7-0.8-1.3-1.5-1.8-2.1c-1,0.2-1.9,0.3-3,0.5C99.2,134.9,99.8,135.6,100.3,136.2z M103.9,135.2c0.3-0.9,0.6-1.8,0.9-2.7
	c-0.6-0.7-1.2-1.4-1.9-2.2c-0.3,1-0.6,1.8-0.9,2.6C102.7,133.7,103.2,134.4,103.9,135.2z"/>
<path fill="#FFFFFF" d="M167.1,121.5c0.9-1.2,1.8-2.4,2.6-3.5c1.3-0.2,2.6-0.4,4-0.6c0.5,1.8,1.4,3.1,3.2,3.5c0.3-1.2,0-2.1-0.8-2.8
	c-0.5-0.4-1-0.7-1.5-1c-1.4-0.7-2.7-1.4-4.1-2.2c-1.4-0.8-2.5-1.9-3.2-3.4c-1.7-3.7-0.3-7.7,3-9.3c0.5-0.2,1-0.4,1.6-0.5
	c1.5-0.3,3.1-0.6,4.7-0.7c2.4-0.2,4.6,0.7,6.3,2.7c0.4,0.5,0.7,1.1,1.1,1.6c-0.9,1.2-1.8,2.4-2.6,3.6c-1.3,0.2-2.6,0.4-4,0.6
	c-0.5-1.7-1.3-3.1-3.1-3.4c-0.4,1-0.3,1.8,0.5,2.5c0.4,0.4,1,0.8,1.5,1.1c1.4,0.8,2.8,1.5,4.2,2.2c1.7,1,3,2.3,3.7,4.4
	c1.2,3.7-0.3,7.3-3.5,8.6c-0.6,0.3-1.3,0.5-1.9,0.6c-1.8,0.2-3.6,0.6-5.3,0.5C170.7,125.8,168.4,124,167.1,121.5z M171.6,121
	c0.5,1.6,2.4,2.9,3.8,3.3c1.6,0.4,3.2,0.3,4.6-0.3c3.8-1.5,4.5-5.4,3-8.6c-0.7-1.5-1.8-2.4-3.2-3.1c-1.4-0.8-2.9-1.5-4.3-2.3
	c-1.6-0.8-2.4-2.1-2.3-4c0-0.1-0.1-0.1-0.1-0.2c-2,0.3-2.9,1.9-2,3.8c0.2,0.5,0.6,0.9,1,1.2c0.6,0.5,1.4,0.9,2.1,1.3
	c1.4,0.7,2.7,1.4,4.1,2.1c0.9,0.5,1.7,1.1,2.2,2.1c1,1.7,0.7,3.7-0.8,4.7c-1.5,1.1-4.3,1.1-5.8-1.3c-0.2-0.3-0.4-0.7-0.7-1.1
	C172.7,119.5,172.1,120.3,171.6,121z M179.5,105.6c-0.9-1.7-2.1-2.7-3.6-3.1c-1.8-0.6-3.6-0.5-5.4,0.4c-2.9,1.5-4,4.5-2.8,7.8
	c0.6,1.6,1.7,2.7,3.1,3.5c1.5,0.8,3,1.6,4.5,2.4c1.7,0.9,2.7,2.1,2.4,4.3c1.1-0.1,2-0.5,2.4-1.6c0.4-1.1,0-2.2-0.8-3
	c-0.4-0.4-0.8-0.7-1.3-1c-0.5-0.3-1-0.6-1.5-0.8c-1.2-0.6-2.5-1.3-3.7-1.9c-0.9-0.5-1.6-1.1-2.2-1.9c-1.2-1.9-0.8-4.2,1-5.1
	c2-1.1,4.3-0.3,5.6,1.7c0.2,0.3,0.3,0.5,0.5,0.9C178.3,107.1,178.9,106.4,179.5,105.6z M176.9,101.8c1.4,0.9,2.5,2,3.3,3.4
	c0.9-0.1,1.7-0.3,2.5-0.4C181.3,102.5,179.3,101.7,176.9,101.8z M174.2,124.9c-1.5-0.8-2.6-2-3.4-3.4c-0.9,0.1-1.7,0.3-2.6,0.4
	C169.9,124.2,171.8,125.1,174.2,124.9z M180.9,107.9c0.4-0.8,1.1-1.3,1.3-2.1c-0.7,0.1-1.3,0.2-2,0.3c-0.5,0.7-1,1.3-1.6,2.1
	C179.5,108.1,180.2,108,180.9,107.9z M172.4,118.5c-0.9,0.1-1.5,0.2-2.2,0.3c-0.5,0.6-0.9,1.3-1.5,2.1c0.9-0.1,1.5-0.2,2.2-0.3
	C171.3,120,171.7,119.3,172.4,118.5z"/>
<path fill="none" d="M89.2,114.9c1,6.4,1.9,12.8,2.9,19.2c-0.8,0.1-1.6,0.2-2.6,0.4c-0.3-1.7-0.5-3.3-0.7-4.9
	c-3.5,0.5-7,1.1-10.5,1.6c0.4,2.5,0.8,5,1.2,7.7c-1.1-0.8-2-1.5-2.9-2.1c-1-6.3-1.9-12.5-2.9-18.9c1,0.7,1.9,1.4,2.9,2.1
	c0.4,2.8,0.9,5.6,1.3,8.5c3.5-0.5,7-1.1,10.5-1.6c-0.6-3.9-1.2-7.7-1.8-11.6C87.5,115.2,88.3,115.1,89.2,114.9z"/>
<path fill="none" d="M90.1,115.4c1.1,0.8,2,1.5,3,2.1c1,6.3,1.9,12.5,2.9,18.9c-1-0.8-2-1.4-3-2.1C92.1,128,91.1,121.8,90.1,115.4z"
	/>
<path fill="none" d="M79.2,131.9c0.8-0.1,1.6-0.2,2.5-0.4c0.4,2.5,0.7,4.9,1.1,7.4c-0.8,0.1-1.6,0.2-2.5,0.4
	C80,136.8,79.6,134.4,79.2,131.9z"/>
<path fill="none" d="M87,123.8c0.1,0.9,0.2,1.6,0.4,2.4c-2.7,0.4-5.4,0.8-8.1,1.2c0.7-1,1.4-1.9,2.1-2.8
	C83.2,124.4,85.1,124.1,87,123.8z"/>
<path fill="none" d="M78.5,127c-0.4-2.4-0.7-4.6-1-6.9c0.8-0.1,1.7-0.3,2.6-0.4c0.2,1.4,0.4,2.8,0.7,4.3C80,125,79.3,125.9,78.5,127
	z"/>
<path fill="none" d="M74.1,117.2c0.9-0.1,1.5-0.2,2.2-0.3c0.9,0.6,1.8,1.3,2.9,2.1c-0.8,0.1-1.5,0.2-2.2,0.3
	C76.1,118.6,75.2,118,74.1,117.2z"/>
<path fill="none" d="M95.3,137c-0.8,0.1-1.5,0.2-2.2,0.3c-0.9-0.6-1.8-1.3-2.9-2.1c0.8-0.1,1.4-0.2,2.2-0.3
	C93.3,135.6,94.2,136.2,95.3,137z"/>
<path fill="none" d="M163.8,126.6c-1.1,0.2-2.3,0.3-3.5,0.5c-3.3-2.4-6.7-4.9-10.3-7.5c0.5,3.1,0.9,6,1.3,8.9
	c-0.9,0.1-1.7,0.3-2.5,0.4c-1-6.3-1.9-12.7-2.9-19.1c0.8-0.1,1.6-0.2,2.5-0.4c0.3,2.1,0.6,4.2,1,6.3c4.9,3.6,9.7,7.1,14.6,10.6
	C163.8,126.5,163.8,126.5,163.8,126.6z"/>
<path fill="none" d="M158.6,104.3c1.3-0.2,2.5-0.4,3.9-0.6c-2.8,3.8-5.5,7.4-8.2,11.1c4.2,3.1,8.3,6.1,12.6,9.2
	c-0.6,0.8-1.1,1.5-1.6,2.3c-5-3.6-9.8-7.2-14.8-10.9C153.2,111.7,155.9,108.1,158.6,104.3z"/>
<path fill="none" d="M155.5,114.7c2.6-3.5,5.2-7,7.8-10.6c0.2,1.4,0.4,2.5,0.6,3.8c-2,2.7-4.1,5.5-6.2,8.4
	C156.9,115.8,156.2,115.3,155.5,114.7z"/>
<path fill="none" d="M152.2,111.6c-0.7,0.9-1.4,1.9-2.1,2.9c-0.3-1.9-0.6-3.7-0.8-5.6c0.6-0.9,1.4-1.8,2.1-2.9
	C151.6,108.1,151.9,109.9,152.2,111.6z"/>
<path fill="none" d="M154,123.6c0.1,0.4,0.1,0.8,0.2,1.3c-0.7,0.9-1.4,1.8-2.2,2.9c-0.3-2.1-0.6-4.2-1-6.3
	C152.1,122.2,153.1,122.9,154,123.6z"/>
<path fill="none" d="M146.3,108.8c0.8-1.1,1.5-2,2.1-2.8c0.7-0.1,1.3-0.2,2.2-0.3c-0.8,1.1-1.4,2-2.1,2.8
	C147.8,108.5,147.2,108.6,146.3,108.8z"/>
<path fill="none" d="M132,131.3c-2.2,0.1-4.1-0.6-5.8-2.1c-2.6-2.3-3.7-5.5-4-9c-0.1-2.5,0.3-4.9,1.5-7c1.8-3.1,4.5-4.7,7.9-4.4
	c3.3,0.3,5.7,2.3,7.5,5.5c-0.6,0.8-1.2,1.6-1.8,2.4c-0.3-0.6-0.5-1.1-0.8-1.6c-1.2-2-2.8-3.4-5-3.7c-2-0.2-3.6,0.7-4.9,2.4
	c-1.4,1.8-1.9,4-1.8,6.3c0.1,2.7,0.9,5.3,2.4,7.5C128.6,129.2,130.1,130.5,132,131.3z"/>
<path fill="none" d="M132.8,112.6c-3.7,1.7-5.3,5.6-4,9.8c0.3,0.9,0.6,1.9,1.2,2.7c1.4,2.3,3.4,3.4,5.9,3.1c2.5-0.3,4.2-1.8,5.1-4.3
	c0.3-0.9,0.5-1.9,0.7-2.9c0.8,0.6,1.5,1.1,2.3,1.7c-0.2,1.7-0.8,3.2-1.7,4.5c-2.1,3-5,4.2-8.5,3.7c-3.4-0.5-5.7-2.7-7.1-6.1
	c-1-2.4-1.4-5-0.7-7.6c0.5-2,1.5-3.6,3.3-4.4C130.4,112.1,131.6,112,132.8,112.6z"/>
<path fill="none" d="M138.1,121.2c1-0.1,1.8-0.3,2.7-0.4c0,4.4-3.5,7.5-7,6.1c1.2-0.5,2.2-1.1,3-2.2
	C137.4,123.8,137.8,122.5,138.1,121.2z"/>
<path fill="none" d="M134,108.3c3.1-0.5,7,1.9,8.4,5c-0.8,0.1-1.6,0.2-2.5,0.4C138.5,111.3,136.7,109.4,134,108.3z"/>
<path fill="none" d="M140.6,116.5c-0.7,0.1-1.3,0.2-2,0.3c0.3-0.9,1-1.4,1.4-2.1c0.7-0.1,1.3-0.2,2.2-0.3
	C141.5,115.2,141.1,115.8,140.6,116.5z"/>
<path fill="none" d="M122.1,130c-0.4,0.9-0.8,1.7-1.2,2.7c-3.7-5-7.2-9.8-10.9-14.8c-0.9,2.3-1.6,4.6-2.5,6.9
	c-0.9,0.1-1.7,0.3-2.8,0.4c1.5-4.3,2.9-8.4,4.4-12.8C113.6,118.4,117.8,124.2,122.1,130z"/>
<path fill="none" d="M103.4,126.4c2.4-0.4,4.6-0.7,6.8-1c0.5,0.7,1.1,1.4,1.7,2.2c-3.2,0.5-6.2,0.9-9.3,1.4
	c-0.4,1.2-0.9,2.4-1.3,3.7c-0.9,0.1-1.8,0.3-2.6,0.4c0-1,4.9-15.4,7-20.7c0.4-0.1,0.9-0.1,1.3-0.2c0.4-0.1,0.9-0.1,1.5-0.2
	C106.7,116.8,105.1,121.5,103.4,126.4z"/>
<path fill="none" d="M120.2,133.2c-1.1,0.2-1.9,0.3-2.9,0.4c-0.7-0.9-1.4-1.9-2.2-3c-3.1,0.5-6.3,1-9.5,1.4c-0.6-0.7-1.2-1.4-2-2.3
	c3.3-0.5,6.4-1,9.8-1.5c-1.5-2-2.8-3.9-4.2-5.7c0.3-0.9,0.6-1.8,1-2.9C113.6,124.2,116.8,128.6,120.2,133.2z"/>
<path fill="none" d="M100.3,136.2c-0.5-0.6-1.1-1.3-1.8-2.1c1.1-0.2,2-0.3,3-0.5c0.5,0.6,1.1,1.3,1.8,2.1
	C102.3,135.9,101.3,136.1,100.3,136.2z"/>
<path fill="none" d="M103.9,135.2c-0.7-0.8-1.3-1.5-1.9-2.2c0.3-0.8,0.6-1.6,0.9-2.6c0.7,0.8,1.3,1.5,1.9,2.2
	C104.6,133.4,104.3,134.3,103.9,135.2z"/>
<path fill="none" d="M171.6,121c0.6-0.7,1.1-1.5,1.7-2.2c0.2,0.4,0.4,0.7,0.7,1.1c1.5,2.4,4.3,2.3,5.8,1.3c1.4-1,1.7-3,0.8-4.7
	c-0.5-1-1.3-1.6-2.2-2.1c-1.4-0.7-2.7-1.4-4.1-2.1c-0.7-0.4-1.4-0.8-2.1-1.3c-0.4-0.3-0.7-0.7-1-1.2c-0.9-1.9-0.1-3.5,2-3.8
	c0,0.1,0.1,0.1,0.1,0.2c-0.1,2,0.7,3.2,2.3,4c1.4,0.7,2.9,1.5,4.3,2.3c1.3,0.7,2.5,1.6,3.2,3.1c1.5,3.2,0.8,7.1-3,8.6
	c-1.5,0.6-3.1,0.7-4.6,0.3C174,123.9,172.1,122.6,171.6,121z"/>
<path fill="none" d="M179.5,105.6c-0.6,0.8-1.2,1.5-1.7,2.3c-0.2-0.4-0.3-0.6-0.5-0.9c-1.3-2-3.6-2.7-5.6-1.7
	c-1.8,0.9-2.2,3.3-1,5.1c0.6,0.9,1.3,1.5,2.2,1.9c1.2,0.7,2.5,1.3,3.7,1.9c0.5,0.3,1,0.5,1.5,0.8c0.5,0.3,0.9,0.6,1.3,1
	c0.8,0.8,1.2,1.9,0.8,3c-0.4,1.1-1.2,1.5-2.4,1.6c0.3-2.2-0.7-3.5-2.4-4.3c-1.5-0.8-3-1.6-4.5-2.4c-1.4-0.8-2.5-1.9-3.1-3.5
	c-1.2-3.3-0.1-6.3,2.8-7.8c1.7-0.9,3.5-1,5.4-0.4C177.4,103,178.6,103.9,179.5,105.6z"/>
<path fill="none" d="M176.9,101.8c2.4-0.1,4.4,0.7,5.9,3c-0.9,0.1-1.7,0.3-2.5,0.4C179.4,103.8,178.3,102.7,176.9,101.8z"/>
<path fill="none" d="M174.2,124.9c-2.4,0.2-4.4-0.7-6-3c0.9-0.1,1.7-0.3,2.6-0.4C171.7,122.9,172.8,124.1,174.2,124.9z"/>
<path fill="none" d="M180.9,107.9c-0.7,0.1-1.4,0.2-2.2,0.3c0.6-0.8,1.1-1.5,1.6-2.1c0.7-0.1,1.3-0.2,2-0.3
	C182,106.6,181.3,107.1,180.9,107.9z"/>
<path fill="none" d="M172.4,118.5c-0.6,0.9-1.1,1.5-1.5,2.1c-0.7,0.1-1.3,0.2-2.2,0.3c0.6-0.8,1.1-1.5,1.5-2.1
	C170.9,118.7,171.5,118.6,172.4,118.5z"/>
<path fill="#FFFFFF" d="M44.6,143.3c-0.6,0.7-1.1,1.4-1.8,2.1c-0.8,0.9-1.9,1.4-3.1,1.6c-1.6,0.2-2.6-0.5-3.1-2
	c-0.1-0.3-0.2-0.7-0.3-1.2c-0.2,0.3-0.4,0.6-0.6,0.9c-1,1.4-2.1,2.7-3.8,3.4c-2.2,0.8-3.6,0.3-4.6-1.7c-0.7,0.7-1.4,1.5-2.2,2.2
	c-0.3,0.3-0.7,0.5-1.1,0.7c-2.3,1-4.5-0.1-4.9-2.6c-0.5-2.8-0.1-5.6,0.5-8.3c0.4-1.9,1.1-3.8,2.2-5.4c0.4-0.6,0.9-1.2,1.4-1.7
	c2.2-2,4.7-1.7,6.4,0.8c0.1-0.3,0.2-0.4,0.2-0.6c0.7-2.8,1.3-5.5,2-8.3c0.1-0.4,0.3-0.7,0.7-0.7c1-0.1,2-0.3,3-0.5
	c-0.4,1.7-0.8,3.3-1.1,4.9c-1.2,5.1-2.4,10.2-3.6,15.3c-0.2,1-0.3,2-0.2,2.9c0,0.8,0.7,1.2,1.4,0.7c0.7-0.4,1.3-1,1.7-1.6
	c2.2-3,3.6-6.4,4.3-10c0.4-1.9,0.9-3.9,1.4-5.8c1.2-0.2,2.3-0.4,3.6-0.6c-0.1,0.3-0.1,0.6-0.2,0.9c-1,4.1-1.9,8.3-2.9,12.4
	c-0.2,0.7-0.2,1.5-0.2,2.2c0,0.9,0.5,1.2,1.2,0.7c0.7-0.4,1.3-1,1.8-1.7c1.4-2,2.3-4.3,2.9-6.8c0.7-2.8,1.3-5.7,2-8.5
	c1.2-0.2,2.3-0.4,3.6-0.6c-0.4,1.6-0.7,3.2-1.1,4.7c-0.6,2.7-1.3,5.4-1.9,8.1c-0.2,1-0.3,2-0.3,3c0,0.9,0.7,1.2,1.4,0.7
	c0.6-0.4,1.2-0.9,1.6-1.5c1.8-2.5,3.2-5.3,3.8-8.4c1-4.8,2.2-9.5,3.3-14.3c0.1-0.2,0.3-0.5,0.5-0.6c1-0.2,2.1-0.3,3.2-0.5
	c-0.7,2.9-1.3,5.6-2,8.6c1-1.1,2-1.9,3.3-2.3c1.7-0.5,3.2,0.2,3.9,1.9c0.6,1.5,0.6,3.2,0.5,4.8c-0.2,2.3-0.7,4.6-1.6,6.8
	c1.2-0.2,2.2-0.8,2.9-1.6c0.8-1,1.4-2.2,2-3.3c0.3-0.5,0.6-0.6,1-0.3c0.4,0.2,1,0.3,0.7,1.1c-1.3,3.4-3.5,5.7-7.3,6.4
	c-0.3,0-0.6,0.3-0.7,0.6c-1.3,1.9-3,3.2-5.3,3.5c-2.4,0.3-4-0.7-4.7-3c-0.1-0.2-0.2-0.5-0.3-0.8c-0.4,0.7-0.8,1.3-1.2,1.9
	c-1,1.4-2.1,2.7-3.7,3.3c-2.2,0.9-3.7,0.2-4.6-2C44.7,143.3,44.6,143.3,44.6,143.3z M22.3,144.4c0.2,1.9,1,2.3,2.2,1.6
	c0.1-0.1,0.3-0.1,0.4-0.2c1.1-0.9,1.9-2,2.3-3.4c0.7-2.3,1.2-4.7,1.7-7.1c0.2-0.8-0.4-1.9-1.1-2.3c-0.6-0.3-1.4-0.2-2.1,0.4
	c-0.3,0.2-0.5,0.5-0.7,0.8C22.9,137.5,22.4,141.1,22.3,144.4z M62.2,137.7c1-2.1,1.9-6.4,1.8-8.6c-0.1-1.5-1.2-2.2-2.5-1.5
	c-2.1,1.2-2.9,3.1-2.8,5.5C58.9,135.4,60.1,137,62.2,137.7z M61.6,139.6c-1.8-0.7-3-1.7-3.9-3.3c-0.2,1.5-0.4,2.9,0,4.2
	c0.3,1,1.1,1.3,2,0.8C60.3,140.8,60.8,140.2,61.6,139.6z"/>
</svg>
